<?xml version="1.0" encoding="iso-8859-1"?>
<!-- Generator: Adobe Illustrator 18.1.1, SVG Export Plug-In . SVG Version: 6.00 Build 0)  -->
<svg version="1.1" id="Capa_1" xmlns="http://www.w3.org/2000/svg" xmlns:xlink="http://www.w3.org/1999/xlink" x="0px" y="0px"
	 viewBox="0 0 20.267 20.267" style="enable-background:new 0 0 20.267 20.267;" xml:space="preserve">
<g>
	<path style="fill:#888888;" d="M10.099,16.392c-0.947,0-1.714-0.767-1.714-1.714s0.767-1.714,1.714-1.714
		c0.947,0,1.714,0.767,1.714,1.714S11.046,16.392,10.099,16.392z M8.136,12.028c0-0.478-0.387-0.865-0.865-0.865
		s-0.865,0.387-0.865,0.865c0,0.478,0.387,0.865,0.865,0.865S8.136,12.506,8.136,12.028z M13.618,12.028
		c0-0.478-0.387-0.865-0.865-0.865s-0.865,0.387-0.865,0.865c0,0.478,0.387,0.865,0.865,0.865S13.618,12.506,13.618,12.028z
		 M13.953,17.333c0.001,0.848-1.557,2.926-3.605,2.934c-0.001,0-0.014,0-0.014,0c-2.04,0-3.594-1.746-3.594-2.621
		c0-0.241,0.098-0.391,0.181-0.477c0.129-0.133,0.444-0.277,0.898-0.123c0.494,0.17,1.489,0.455,2.608,0.455
		c0.904,0,1.663-0.188,2.254-0.561c0.262-0.164,0.474-0.24,0.668-0.24C13.704,16.7,13.953,16.96,13.953,17.333z M12.912,17.789
		c-0.688,0.374-1.523,0.563-2.485,0.563c-1.14,0-2.159-0.265-2.74-0.453c0.077,0.143,0.207,0.33,0.412,0.539
		c0.29,0.293,1.088,0.979,2.235,0.979v0.424l0.011-0.424c0.96-0.004,1.703-0.616,2.059-0.979
		C12.633,18.206,12.8,17.979,12.912,17.789z M15.983,7.292c0,0-0.065-0.21-0.186-0.553C15.266,5.226,15.071,0,9.897,0
		S4.507,4.39,4.25,6.739c-0.021,0.19-0.035,0.376-0.035,0.553C4.216,7.292,9.249,10.735,15.983,7.292z M17.223,7.565
		c0,0-1.878,1.844-7.125,1.986C4.852,9.693,3.045,7.565,3.045,7.565c-0.92,0-1.667,0.746-1.667,1.666s0.746,1.666,1.667,1.666
		c0,0,6.566-2.082,14.177,0c0,0,1.666-0.746,1.666-1.666C18.889,8.311,18.144,7.565,17.223,7.565z"/>
</g>
<g>
</g>
<g>
</g>
<g>
</g>
<g>
</g>
<g>
</g>
<g>
</g>
<g>
</g>
<g>
</g>
<g>
</g>
<g>
</g>
<g>
</g>
<g>
</g>
<g>
</g>
<g>
</g>
<g>
</g>
</svg>
