<?xml version="1.0" ?><svg baseProfile="tiny" height="512px" id="Layer_1" version="1.2" viewBox="0 0 512 512" width="512px" xml:space="preserve" xmlns="http://www.w3.org/2000/svg" xmlns:xlink="http://www.w3.org/1999/xlink"><g><path d="M351.141,287.628c-6.662-6.662-17.465-6.662-24.127,0c-0.062,0.062-29.515,29.514-53.242,53.244   c0.002-46.457,0.002-115.205,0.002-115.301c0-9.422-7.64-17.061-17.061-17.061c-9.422,0-17.06,7.639-17.06,17.061   c0,0.071,0.001,68.869,0.001,115.3c-23.728-23.73-53.179-53.182-53.241-53.244c-6.663-6.662-17.464-6.662-24.127,0   c-6.662,6.663-6.662,17.465,0,24.128c0.075,0.073,77.343,77.34,82.339,82.335c0.01,0.008,0.017,0.019,0.026,0.028   c0.009,0.01,0.019,0.017,0.029,0.026c0.018,0.018,0.03,0.03,0.046,0.046c0.018,0.019,0.036,0.035,0.054,0.054   c0.058,0.059,0.098,0.099,0.1,0.101c0.152,0.146,0.316,0.272,0.473,0.412c0.098,0.089,0.195,0.18,0.296,0.266   c0.102,0.086,0.198,0.184,0.301,0.269c0.037,0.03,0.076,0.057,0.113,0.085c0.218,0.176,0.446,0.332,0.671,0.494   c0.18,0.131,0.352,0.272,0.538,0.396c0.048,0.031,0.099,0.061,0.148,0.092c0.236,0.152,0.479,0.289,0.719,0.429   c0.185,0.106,0.362,0.225,0.55,0.326c0.057,0.029,0.116,0.057,0.173,0.085c0.236,0.123,0.48,0.229,0.72,0.34   c0.202,0.094,0.398,0.197,0.605,0.281c0.057,0.024,0.116,0.043,0.174,0.065c0.236,0.096,0.477,0.173,0.715,0.258   c0.225,0.077,0.443,0.167,0.671,0.235c0.052,0.017,0.108,0.026,0.161,0.043c0.245,0.071,0.491,0.125,0.738,0.187   c0.282,0.068,0.561,0.141,0.848,0.195c0.268,0.052,0.539,0.085,0.809,0.123c0.217,0.03,0.434,0.075,0.652,0.099   c0.056,0.006,0.114,0.006,0.171,0.011c0.26,0.024,0.52,0.029,0.78,0.042c0.243,0.012,0.485,0.033,0.728,0.034   c0.026,0,0.052,0.004,0.078,0.004c0.027,0,0.053-0.004,0.079-0.004c0.243-0.001,0.485-0.022,0.727-0.034   c0.26-0.013,0.519-0.018,0.777-0.04c0.057-0.006,0.115-0.007,0.172-0.013c0.219-0.023,0.437-0.068,0.654-0.099   c0.268-0.038,0.536-0.07,0.803-0.121c0.289-0.056,0.571-0.129,0.856-0.198c0.246-0.061,0.492-0.114,0.735-0.186   c0.05-0.016,0.102-0.023,0.151-0.039c0.231-0.07,0.453-0.161,0.681-0.239c0.239-0.085,0.479-0.162,0.715-0.258   c0.053-0.02,0.108-0.036,0.161-0.058c0.21-0.088,0.409-0.193,0.614-0.288c0.242-0.11,0.486-0.217,0.724-0.341   c0.053-0.026,0.106-0.048,0.157-0.075c0.192-0.103,0.374-0.225,0.562-0.334c0.241-0.141,0.486-0.276,0.723-0.431   c0.152-0.101,0.3-0.209,0.45-0.313c0.082-0.058,0.16-0.119,0.24-0.177c0.217-0.157,0.437-0.306,0.647-0.474   c0.038-0.031,0.079-0.06,0.116-0.093c0.128-0.104,0.246-0.222,0.371-0.328c0.098-0.083,0.191-0.168,0.285-0.254   c0.143-0.127,0.292-0.242,0.431-0.375c0.001-0.002,0.025-0.024,0.066-0.067c0.017-0.015,0.032-0.029,0.047-0.046   c0.025-0.023,0.054-0.052,0.089-0.087c0.008-0.01,0.019-0.017,0.028-0.026c0.009-0.01,0.016-0.021,0.025-0.028   c4.997-4.995,82.266-82.262,82.339-82.335C357.803,305.092,357.804,294.29,351.141,287.628z" fill="#010101"/><path d="M493.709,238.217c-3.878-7.588-8.307-18.157-25.542-18.157c-2.191,0-4.344-0.014-6.761-0.032   c-12.144-33.701-32.316-63.516-58.367-87.071c0.154-0.181,0.361-0.364,0.51-0.543c6.653-8.053-2.117-20.584-8.585-25.339   c-38.278-28.148-85.54-44.778-136.696-44.778c-49.142,0-111.527,21.243-132.139,41.506c-18.791,18.474-12.425,26.496-11.153,27.771   c-26.796,23.764-47.643,54.083-60.028,88.449c-2.69,0.021-5.326,0.038-7.755,0.038c-17.235,0-22.634,10.568-26.51,18.157   C16.806,245.805,5,295.258,5,319.965v3.529c0,24.709,11.806,74.219,15.683,81.807c3.876,7.588,9.049,18.214,26.283,18.214   c12.203,0,29.741,0.431,33.111-0.472c3.369-0.901,6.408-6.231,12.587-2c6.18,4.229,19.336-2.511,19.336-8.945   c0-6.436,0-88.604,0-88.604v-3.529c0,0,0-82.051,0-88.487c0-6.436-13.1-13.175-19.278-8.944c-5.01,3.429-8.011,0.577-10.874-1.108   c11.296-27.66,29.062-52.062,51.211-71.415l0.172,0.101c0,0,9.669,10.388,22.142,1.73c12.473-8.657,64.424-33.528,102.89-33.528   c39.342,0,93.583,25.381,104.841,34.98c9.926,8.462,19.438-0.02,21.55-2.147c21.446,19.083,38.54,42.95,49.62,69.923   c-3.016,1.577-7.22,5.15-12.605,1.463c-6.181-4.231-20.668,2.509-20.668,8.944c0,6.436,0,88.487,0,88.487v3.529   c0,0,0,82.168,0,88.604c0,6.435,14.477,13.175,20.656,8.945c6.18-4.231,10.137,1.099,13.507,2   c3.368,0.902,20.971,0.472,33.173,0.472c17.235,0,21.395-10.626,25.271-18.214c3.875-7.588,14.393-57.098,14.393-81.807v-3.529   C508,295.258,497.584,245.805,493.709,238.217z" fill="#010101"/></g></svg>