<svg xmlns="http://www.w3.org/2000/svg" width="247" height="247" viewBox="0 0 247 247">
  <rect id="svgEditorBackground" x="0" y="0" width="100%" height="100%" style="fill: {{backgroundcolor}}; stroke: none;"/>
  <path fill-rule="evenodd" clip-rule="evenodd" fill="{{color}}" d="M247 216.904l-30.096 30.096-49.19-49.189c-17.116 11.406-37.665 18.064-59.776 18.064-59.613 0-107.938-48.324-107.938-107.937s48.325-107.938 107.938-107.938c59.614 0 107.939 48.325 107.939 107.938 0 22.112-6.66 42.661-18.067 59.776l49.19 49.19zm-139.083-178.369c-38.332 0-69.406 31.071-69.406 69.405 0 38.331 31.074 69.405 69.406 69.405 38.331 0 69.405-31.074 69.405-69.405-.001-38.335-31.074-69.405-69.405-69.405zm31.773 87.117l-14.064 14.063-17.705-17.706-17.708 17.71-14.064-14.065 17.709-17.708-17.717-17.716 14.064-14.063 17.716 17.716 17.713-17.712 14.064 14.063-17.713 17.712 17.705 17.706z"/>
</svg>