<?xml version="1.0" standalone="no"?>
<!DOCTYPE svg PUBLIC "-//W3C//DTD SVG 1.1//EN" "http://www.w3.org/Graphics/SVG/1.1/DTD/svg11.dtd" >
<svg xmlns="http://www.w3.org/2000/svg" xmlns:xlink="http://www.w3.org/1999/xlink" version="1.1">
<metadata>
Created by FontForge 20150913 at Thu May  5 20:12:03 2016
 By Jimmy Wärting
(c) 2015 Apple Inc. All rights reserved.
</metadata>
<defs>
<font id=".SFNSDisplay-Black" horiz-adv-x="0" >
  <font-face 
    font-family=".SF NS Display"
    font-weight="900"
    font-stretch="normal"
    units-per-em="2048"
    panose-1="0 0 10 0 0 0 0 0 0 0"
    ascent="1638"
    descent="-410"
    x-height="1124"
    cap-height="1443"
    bbox="-660 -854 2718 2231"
    underline-thickness="260"
    underline-position="-380"
    stemh="335"
    stemv="420"
    unicode-range="U+0020-FB02"
  />
<missing-glyph horiz-adv-x="2048" 
d="M100 -494v128h1848v-128h-1848zM100 -31v128h1848v-128h-1848zM100 432v129h1848v-129h-1848zM100 896v128h1848v-128h-1848zM100 1359v128h1848v-128h-1848zM100 1822v128h1848v-128h-1848z" />
    <glyph glyph-name=".notdef" horiz-adv-x="2048" 
d="M100 -494v128h1848v-128h-1848zM100 -31v128h1848v-128h-1848zM100 432v129h1848v-129h-1848zM100 896v128h1848v-128h-1848zM100 1359v128h1848v-128h-1848zM100 1822v128h1848v-128h-1848z" />
    <glyph glyph-name=".null" 
 />
    <glyph glyph-name="nonmarkingreturn" 
 />
    <glyph glyph-name="space" unicode=" " horiz-adv-x="390" 
 />
    <glyph glyph-name="A" unicode="A" horiz-adv-x="1534" 
d="M1052 0l-75 287h-440l-75 -287h-432l471 1443h532l471 -1443h-452zM753 1110l-139 -524h286l-139 524h-8z" />
    <glyph glyph-name="Agrave" unicode="&#xc0;" horiz-adv-x="1534" 
d="M1052 0l-75 287h-440l-75 -287h-432l471 1443h532l471 -1443h-452zM753 1110l-139 -524h286l-139 524h-8zM621 1564l-274 321h348l232 -321h-306z" />
    <glyph glyph-name="Aacute" unicode="&#xc1;" horiz-adv-x="1534" 
d="M1052 0l-75 287h-440l-75 -287h-432l471 1443h532l471 -1443h-452zM753 1110l-139 -524h286l-139 524h-8zM907 1555h-306l232 321h348z" />
    <glyph glyph-name="Adieresis" unicode="&#xc4;" horiz-adv-x="1534" 
d="M1052 0l-75 287h-440l-75 -287h-432l471 1443h532l471 -1443h-452zM753 1110l-139 -524h286l-139 524h-8zM545 1536c-92 0 -158 68 -158 150c0 83 66 150 158 150s158 -67 158 -150c0 -82 -66 -150 -158 -150zM989 1536c-92 0 -158 68 -158 150c0 83 66 150 158 150
s158 -67 158 -150c0 -82 -66 -150 -158 -150z" />
    <glyph glyph-name="Adieresismacron" unicode="&#x1de;" horiz-adv-x="1534" 
d="M1052 0l-75 287h-440l-75 -287h-432l471 1443h532l471 -1443h-452zM753 1110l-139 -524h286l-139 524h-8zM545 1836c92 0 158 -67 158 -150c0 -82 -66 -150 -158 -150s-158 68 -158 150c0 83 66 150 158 150zM393 2120h748v-180h-748v180zM989 1836
c92 0 158 -67 158 -150c0 -82 -66 -150 -158 -150s-158 68 -158 150c0 83 66 150 158 150z" />
    <glyph glyph-name="Aring" unicode="&#xc5;" horiz-adv-x="1534" 
d="M1052 0l-75 287h-440l-75 -287h-432l471 1443h532l471 -1443h-452zM753 1110l-139 -524h286l-139 524h-8zM767 1520c-119 0 -220 96 -220 212c0 118 101 213 220 213s219 -95 219 -213c0 -116 -100 -212 -219 -212zM767 1656c43 0 80 34 80 76c0 43 -37 78 -80 78
s-80 -35 -80 -78c0 -42 37 -76 80 -76z" />
    <glyph glyph-name="Aringacute" unicode="&#x1fa;" horiz-adv-x="1534" 
d="M1052 0l-75 287h-440l-75 -287h-432l471 1443h532l471 -1443h-452zM753 1110l-139 -524h286l-139 524h-8zM767 1518c-125 0 -214 86 -214 205s89 205 214 205c124 0 213 -85 213 -205s-89 -205 -213 -205zM767 1653c40 0 70 30 70 70s-30 69 -70 69
c-41 0 -71 -29 -71 -69s30 -70 71 -70zM745 2201h323l-162 -202h-276z" />
    <glyph glyph-name="Atilde" unicode="&#xc3;" horiz-adv-x="1534" 
d="M1052 0l-75 287h-440l-75 -287h-432l471 1443h532l471 -1443h-452zM753 1110l-139 -524h286l-139 524h-8zM920 1546c-146 0 -199 119 -268 119c-46 0 -66 -48 -69 -101h-201c0 187 117 293 251 293c146 0 199 -119 268 -119c46 0 66 44 69 106h201
c0 -187 -117 -298 -251 -298z" />
    <glyph glyph-name="Abrevegrave" unicode="&#x1eb0;" horiz-adv-x="1534" 
d="M1052 0l-75 287h-440l-75 -287h-432l471 1443h532l471 -1443h-452zM753 1110l-139 -524h286l-139 524h-8zM1162 1850c-2 -160 -143 -314 -395 -314s-393 154 -395 314h236c4 -66 61 -128 159 -128s155 62 159 128h236zM923 1925h-286l-238 281h322z" />
    <glyph glyph-name="Adotmacron" unicode="&#x1e0;" horiz-adv-x="1534" 
d="M1052 0l-75 287h-440l-75 -287h-432l471 1443h532l471 -1443h-452zM753 1110l-139 -524h286l-139 524h-8zM767 1536c-92 0 -158 68 -158 150c0 83 66 150 158 150s158 -67 158 -150c0 -82 -66 -150 -158 -150zM1141 2120v-180h-748v180h748z" />
    <glyph glyph-name="Aringbelow" unicode="&#x1e00;" horiz-adv-x="1534" 
d="M1052 0l-75 287h-440l-75 -287h-432l471 1443h532l471 -1443h-452zM753 1110l-139 -524h286l-139 524h-8zM767 -603c-132 0 -244 106 -244 235c0 130 112 236 244 236s243 -106 243 -236c0 -129 -111 -235 -243 -235zM767 -452c47 0 88 38 88 84c0 47 -41 86 -88 86
s-88 -39 -88 -86c0 -46 41 -84 88 -84z" />
    <glyph glyph-name="Acircumflex" unicode="&#xc2;" horiz-adv-x="1534" 
d="M1052 0l-75 287h-440l-75 -287h-432l471 1443h532l471 -1443h-452zM753 1110l-139 -524h286l-139 524h-8zM610 1872h314l255 -336h-276l-132 192h-8l-132 -192h-276z" />
    <glyph glyph-name="Acircumflexdotbelow" unicode="&#x1eac;" horiz-adv-x="1534" 
d="M1052 0l-75 287h-440l-75 -287h-432l471 1443h532l471 -1443h-452zM753 1110l-139 -524h286l-139 524h-8zM610 1872h314l255 -336h-276l-132 192h-8l-132 -192h-276zM767 -524c-100 0 -177 80 -177 177s77 176 177 176s177 -79 177 -176s-77 -177 -177 -177z" />
    <glyph glyph-name="Acircumflexacute" unicode="&#x1ea4;" horiz-adv-x="1534" 
d="M1052 0l-75 287h-440l-75 -287h-432l471 1443h532l471 -1443h-452zM753 1110l-139 -524h286l-139 524h-8zM612 1842h310l255 -306h-280l-126 166h-8l-126 -166h-280zM811 1925l202 281h322l-238 -281h-286z" />
    <glyph glyph-name="Acircumflextilde" unicode="&#x1eaa;" horiz-adv-x="1534" 
d="M1052 0l-75 287h-440l-75 -287h-432l471 1443h532l471 -1443h-452zM753 1110l-139 -524h286l-139 524h-8zM913 1913c-146 0 -202 121 -271 121c-46 0 -66 -48 -69 -101h-201c0 187 113 293 249 293c146 0 202 -121 271 -121c46 0 66 44 69 106h201
c0 -187 -113 -298 -249 -298zM612 1842h310l255 -306h-280l-126 166h-8l-126 -166h-280z" />
    <glyph glyph-name="Acircumflexgrave" unicode="&#x1ea6;" horiz-adv-x="1534" 
d="M1052 0l-75 287h-440l-75 -287h-432l471 1443h532l471 -1443h-452zM753 1110l-139 -524h286l-139 524h-8zM612 1842h310l255 -306h-280l-126 166h-8l-126 -166h-280zM1143 1925h-286l-238 281h322z" />
    <glyph glyph-name="Acircumflexhookabove" unicode="&#x1ea8;" horiz-adv-x="1534" 
d="M1052 0l-75 287h-440l-75 -287h-432l471 1443h532l471 -1443h-452zM753 1110l-139 -524h286l-139 524h-8zM612 1842h310l255 -306h-280l-126 166h-8l-126 -166h-280zM878 2016v167c36 18 101 29 165 29c172 0 277 -87 277 -231c0 -103 -68 -207 -188 -258l-107 135
c56 23 70 62 70 98c0 49 -39 78 -106 78c-32 0 -83 -8 -111 -18z" />
    <glyph glyph-name="Abreve" unicode="&#x102;" horiz-adv-x="1534" 
d="M1052 0l-75 287h-440l-75 -287h-432l471 1443h532l471 -1443h-452zM753 1110l-139 -524h286l-139 524h-8zM372 1870h236c4 -86 59 -148 159 -148s155 62 159 148h236c-6 -180 -143 -334 -395 -334s-389 154 -395 334z" />
    <glyph glyph-name="Abreveacute" unicode="&#x1eae;" horiz-adv-x="1534" 
d="M1052 0l-75 287h-440l-75 -287h-432l471 1443h532l471 -1443h-452zM753 1110l-139 -524h286l-139 524h-8zM372 1850h236c4 -66 61 -128 159 -128s155 62 159 128h236c-2 -160 -143 -314 -395 -314s-393 154 -395 314zM611 1925l202 281h322l-238 -281h-286z" />
    <glyph glyph-name="Abrevetilde" unicode="&#x1eb4;" horiz-adv-x="1534" 
d="M1052 0l-75 287h-440l-75 -287h-432l471 1443h532l471 -1443h-452zM753 1110l-139 -524h286l-139 524h-8zM372 1850h236c4 -66 61 -128 159 -128s155 62 159 128h236c-2 -160 -143 -314 -395 -314s-393 154 -395 314zM913 1913c-146 0 -202 121 -271 121
c-46 0 -66 -48 -69 -91h-201c0 177 113 283 249 283c146 0 202 -121 271 -121c46 0 66 44 69 106h201c0 -187 -113 -298 -249 -298z" />
    <glyph glyph-name="Abrevehookabove" unicode="&#x1eb2;" horiz-adv-x="1534" 
d="M1052 0l-75 287h-440l-75 -287h-432l471 1443h532l471 -1443h-452zM753 1110l-139 -524h286l-139 524h-8zM547 2048v156c31 14 106 27 159 27c154 0 250 -73 250 -190c0 -93 -94 -203 -205 -241l-94 107c59 23 93 59 93 96c0 40 -40 65 -102 65c-36 0 -72 -7 -101 -20z
M372 1850h236c5 -74 71 -128 159 -128s154 54 159 128h236c-2 -181 -169 -314 -395 -314s-393 133 -395 314z" />
    <glyph glyph-name="Abrevedotbelow" unicode="&#x1eb6;" horiz-adv-x="1534" 
d="M1052 0l-75 287h-440l-75 -287h-432l471 1443h532l471 -1443h-452zM753 1110l-139 -524h286l-139 524h-8zM372 1870h236c4 -86 59 -148 159 -148s155 62 159 148h236c-6 -180 -143 -334 -395 -334s-389 154 -395 334zM767 -524c-100 0 -177 80 -177 177s77 176 177 176
s177 -79 177 -176s-77 -177 -177 -177z" />
    <glyph glyph-name="Ainvertedbreve" unicode="&#x202;" horiz-adv-x="1534" 
d="M1052 0l-75 287h-440l-75 -287h-432l471 1443h532l471 -1443h-452zM753 1110l-139 -524h286l-139 524h-8zM372 1536c6 180 143 334 395 334s389 -154 395 -334h-236c-4 86 -59 148 -159 148s-155 -62 -159 -148h-236z" />
    <glyph glyph-name="Acaron" unicode="&#x1cd;" horiz-adv-x="1534" 
d="M1052 0l-75 287h-440l-75 -287h-432l471 1443h532l471 -1443h-452zM753 1110l-139 -524h286l-139 524h-8zM610 1536l-255 336h276l132 -192h8l132 192h276l-255 -336h-314z" />
    <glyph glyph-name="Adotaccent" unicode="&#x226;" horiz-adv-x="1534" 
d="M1052 0l-75 287h-440l-75 -287h-432l471 1443h532l471 -1443h-452zM753 1110l-139 -524h286l-139 524h-8zM767 1536c-100 0 -177 80 -177 177s77 176 177 176s177 -79 177 -176s-77 -177 -177 -177z" />
    <glyph glyph-name="Adotbelow" unicode="&#x1ea0;" horiz-adv-x="1534" 
d="M1052 0l-75 287h-440l-75 -287h-432l471 1443h532l471 -1443h-452zM753 1110l-139 -524h286l-139 524h-8zM767 -524c-100 0 -177 80 -177 177s77 176 177 176s177 -79 177 -176s-77 -177 -177 -177z" />
    <glyph glyph-name="Ahookabove" unicode="&#x1ea2;" horiz-adv-x="1534" 
d="M1052 0l-75 287h-440l-75 -287h-432l471 1443h532l471 -1443h-452zM753 1110l-139 -524h286l-139 524h-8zM558 1807v167c36 18 101 29 165 29c172 0 277 -87 277 -231c0 -112 -91 -217 -216 -272l-111 133c60 23 102 70 102 114c0 49 -39 78 -106 78
c-32 0 -83 -8 -111 -18z" />
    <glyph glyph-name="Adblgrave" unicode="&#x200;" horiz-adv-x="1534" 
d="M1052 0l-75 287h-440l-75 -287h-432l471 1443h532l471 -1443h-452zM753 1110l-139 -524h286l-139 524h-8zM861 1555l-274 321h348l232 -321h-306zM381 1555l-274 321h348l232 -321h-306z" />
    <glyph glyph-name="Amacron" unicode="&#x100;" horiz-adv-x="1534" 
d="M1052 0l-75 287h-440l-75 -287h-432l471 1443h532l471 -1443h-452zM753 1110l-139 -524h286l-139 524h-8zM1141 1786v-180h-748v180h748z" />
    <glyph glyph-name="Aogonek" unicode="&#x104;" horiz-adv-x="1534" 
d="M753 1110l-139 -524h286l-139 524h-8zM1381 -468c-39 -17 -98 -26 -172 -26c-181 0 -306 98 -306 240c0 94 54 181 152 243l-78 298h-440l-75 -287h-432l471 1443h532l471 -1443l-89 -6c-117 -8 -230 -98 -230 -184c0 -61 44 -94 124 -94c32 0 63 4 72 9v-193z" />
    <glyph glyph-name="B" unicode="B" horiz-adv-x="1382" 
d="M833 0h-733v1443h709c295 0 468 -135 468 -360c0 -166 -126 -291 -293 -312v-8c195 -5 358 -152 358 -343c0 -253 -200 -420 -509 -420zM524 1152v-287h164c109 0 177 57 177 144c0 89 -64 143 -171 143h-170zM524 291h181c131 0 206 59 206 168c0 103 -76 163 -203 163
h-184v-331z" />
    <glyph glyph-name="Blinebelow" unicode="&#x1e06;" horiz-adv-x="1382" 
d="M833 0h-733v1443h709c295 0 468 -135 468 -360c0 -166 -126 -291 -293 -312v-8c195 -5 358 -152 358 -343c0 -253 -200 -420 -509 -420zM524 1152v-287h164c109 0 177 57 177 144c0 89 -64 143 -171 143h-170zM524 291h181c131 0 206 59 206 168c0 103 -76 163 -203 163
h-184v-331zM1065 -240v-180h-748v180h748z" />
    <glyph glyph-name="Bdotbelow" unicode="&#x1e04;" horiz-adv-x="1382" 
d="M833 0h-733v1443h709c295 0 468 -135 468 -360c0 -166 -126 -291 -293 -312v-8c195 -5 358 -152 358 -343c0 -253 -200 -420 -509 -420zM524 1152v-287h164c109 0 177 57 177 144c0 89 -64 143 -171 143h-170zM524 291h181c131 0 206 59 206 168c0 103 -76 163 -203 163
h-184v-331zM691 -524c-100 0 -177 80 -177 177s77 176 177 176s177 -79 177 -176s-77 -177 -177 -177z" />
    <glyph glyph-name="Bdotaccent" unicode="&#x1e02;" horiz-adv-x="1382" 
d="M833 0h-733v1443h709c295 0 468 -135 468 -360c0 -166 -126 -291 -293 -312v-8c195 -5 358 -152 358 -343c0 -253 -200 -420 -509 -420zM524 1152v-287h164c109 0 177 57 177 144c0 89 -64 143 -171 143h-170zM524 291h181c131 0 206 59 206 168c0 103 -76 163 -203 163
h-184v-331zM691 1536c-100 0 -177 80 -177 177s77 176 177 176s177 -79 177 -176s-77 -177 -177 -177z" />
    <glyph glyph-name="C" unicode="C" horiz-adv-x="1513" 
d="M781 -25c-442 0 -716 271 -716 747s275 746 716 746c381 0 669 -248 670 -606h-406c-10 164 -117 273 -264 273c-174 0 -284 -154 -284 -412c0 -261 109 -415 285 -415c146 0 252 107 265 274h406c-2 -360 -283 -607 -672 -607z" />
    <glyph glyph-name="Cacute" unicode="&#x106;" horiz-adv-x="1513" 
d="M781 -25c-442 0 -716 271 -716 747s275 746 716 746c381 0 669 -248 670 -606h-406c-10 164 -117 273 -264 273c-174 0 -284 -154 -284 -412c0 -261 109 -415 285 -415c146 0 252 107 265 274h406c-2 -360 -283 -607 -672 -607zM897 1555h-306l232 321h348z" />
    <glyph glyph-name="Ccaron" unicode="&#x10c;" horiz-adv-x="1513" 
d="M781 -25c-442 0 -716 271 -716 747s275 746 716 746c381 0 669 -248 670 -606h-406c-10 164 -117 273 -264 273c-174 0 -284 -154 -284 -412c0 -261 109 -415 285 -415c146 0 252 107 265 274h406c-2 -360 -283 -607 -672 -607zM600 1536l-255 336h276l132 -192h8
l132 192h276l-255 -336h-314z" />
    <glyph glyph-name="Ccircumflex" unicode="&#x108;" horiz-adv-x="1513" 
d="M781 -25c-442 0 -716 271 -716 747s275 746 716 746c381 0 669 -248 670 -606h-406c-10 164 -117 273 -264 273c-174 0 -284 -154 -284 -412c0 -261 109 -415 285 -415c146 0 252 107 265 274h406c-2 -360 -283 -607 -672 -607zM600 1872h314l255 -336h-276l-132 192h-8
l-132 -192h-276z" />
    <glyph glyph-name="Cdotaccent" unicode="&#x10a;" horiz-adv-x="1513" 
d="M781 -25c-442 0 -716 271 -716 747s275 746 716 746c381 0 669 -248 670 -606h-406c-10 164 -117 273 -264 273c-174 0 -284 -154 -284 -412c0 -261 109 -415 285 -415c146 0 252 107 265 274h406c-2 -360 -283 -607 -672 -607zM757 1536c-100 0 -177 80 -177 177
s77 176 177 176s177 -79 177 -176s-77 -177 -177 -177z" />
    <glyph glyph-name="Ccedilla" unicode="&#xc7;" horiz-adv-x="1513" 
d="M1047 582h406c-2 -334 -245 -571 -591 -603l-35 -68c96 0 162 -66 162 -168c0 -129 -88 -195 -263 -195c-55 0 -107 5 -133 15v141c25 -8 63 -12 99 -12c66 0 94 11 94 37c0 35 -25 46 -100 46h-56v127l43 79c-378 41 -608 305 -608 741c0 476 275 746 716 746
c381 0 669 -248 670 -606h-406c-10 164 -117 273 -264 273c-174 0 -284 -154 -284 -412c0 -261 109 -415 285 -415c146 0 252 107 265 274z" />
    <glyph glyph-name="Ccedillaacute" unicode="&#x1e08;" horiz-adv-x="1513" 
d="M1171 1876l-274 -321h-306l232 321h348zM1047 582h406c-2 -334 -245 -571 -591 -603l-35 -68c96 0 162 -66 162 -168c0 -129 -88 -195 -263 -195c-55 0 -107 5 -133 15v141c25 -8 63 -12 99 -12c66 0 94 11 94 37c0 35 -25 46 -100 46h-56v127l43 79
c-378 41 -608 305 -608 741c0 476 275 746 716 746c381 0 669 -248 670 -606h-406c-10 164 -117 273 -264 273c-174 0 -284 -154 -284 -412c0 -261 109 -415 285 -415c146 0 252 107 265 274z" />
    <glyph glyph-name="D" unicode="D" horiz-adv-x="1477" 
d="M100 1443h617c438 0 695 -249 695 -711s-258 -732 -695 -732h-617v1443zM524 1106v-769h133c212 0 323 129 323 395c0 243 -120 374 -323 374h-133z" />
    <glyph glyph-name="Ddotaccent" unicode="&#x1e0a;" horiz-adv-x="1477" 
d="M100 1443h617c438 0 695 -249 695 -711s-258 -732 -695 -732h-617v1443zM524 1106v-769h133c212 0 323 129 323 395c0 243 -120 374 -323 374h-133zM739 1536c-100 0 -177 80 -177 177s77 176 177 176s177 -79 177 -176s-77 -177 -177 -177z" />
    <glyph glyph-name="Dcircumflexbelow" unicode="&#x1e12;" horiz-adv-x="1477" 
d="M100 1443h617c438 0 695 -249 695 -711s-258 -732 -695 -732h-617v1443zM524 1106v-769h133c212 0 323 129 323 395c0 243 -120 374 -323 374h-133zM582 -154h314l255 -336h-276l-132 192h-8l-132 -192h-276z" />
    <glyph glyph-name="Dcommaaccent" unicode="&#x1e10;" horiz-adv-x="1477" 
d="M100 1443h617c438 0 695 -249 695 -711s-258 -732 -695 -732h-617v1443zM524 1106v-769h133c212 0 323 129 323 395c0 243 -120 374 -323 374h-133zM710 -457h-308l152 321h359z" />
    <glyph glyph-name="Dlinebelow" unicode="&#x1e0e;" horiz-adv-x="1477" 
d="M100 1443h617c438 0 695 -249 695 -711s-258 -732 -695 -732h-617v1443zM524 1106v-769h133c212 0 323 129 323 395c0 243 -120 374 -323 374h-133zM1113 -240v-180h-748v180h748z" />
    <glyph glyph-name="Dcaron" unicode="&#x10e;" horiz-adv-x="1477" 
d="M100 1443h617c438 0 695 -249 695 -711s-258 -732 -695 -732h-617v1443zM524 1106v-769h133c212 0 323 129 323 395c0 243 -120 374 -323 374h-133zM582 1536l-255 336h276l132 -192h8l132 192h276l-255 -336h-314z" />
    <glyph glyph-name="Ddotbelow" unicode="&#x1e0c;" horiz-adv-x="1477" 
d="M100 1443h617c438 0 695 -249 695 -711s-258 -732 -695 -732h-617v1443zM524 1106v-769h133c212 0 323 129 323 395c0 243 -120 374 -323 374h-133zM739 -524c-100 0 -177 80 -177 177s77 176 177 176s177 -79 177 -176s-77 -177 -177 -177z" />
    <glyph glyph-name="Dcroat" unicode="&#x110;" horiz-adv-x="1503" 
d="M550 337h133c212 0 323 129 323 395c0 243 -120 374 -323 374h-133v-246h233v-279h-233v-244zM126 1443h617c438 0 695 -249 695 -711s-258 -732 -695 -732h-617v581h-66v279h66v583z" />
    <glyph glyph-name="E" unicode="E" horiz-adv-x="1216" 
d="M1118 337v-337h-1018v1443h1018v-337h-594v-233h557v-304h-557v-232h594z" />
    <glyph glyph-name="Egrave" unicode="&#xc8;" horiz-adv-x="1216" 
d="M1118 337v-337h-1018v1443h1018v-337h-594v-233h557v-304h-557v-232h594zM462 1564l-274 321h348l232 -321h-306z" />
    <glyph glyph-name="Edblgrave" unicode="&#x204;" horiz-adv-x="1216" 
d="M1118 337v-337h-1018v1443h1018v-337h-594v-233h557v-304h-557v-232h594zM702 1555l-274 321h348l232 -321h-306zM222 1555l-274 321h348l232 -321h-306z" />
    <glyph glyph-name="Eacute" unicode="&#xc9;" horiz-adv-x="1216" 
d="M1118 337v-337h-1018v1443h1018v-337h-594v-233h557v-304h-557v-232h594zM748 1555h-306l232 321h348z" />
    <glyph glyph-name="Ecircumflex" unicode="&#xca;" horiz-adv-x="1216" 
d="M1118 337v-337h-1018v1443h1018v-337h-594v-233h557v-304h-557v-232h594zM451 1872h314l255 -336h-276l-132 192h-8l-132 -192h-276z" />
    <glyph glyph-name="Ecircumflexhookabove" unicode="&#x1ec2;" horiz-adv-x="1216" 
d="M1118 337v-337h-1018v1443h1018v-337h-594v-233h557v-304h-557v-232h594zM453 1842h310l255 -306h-280l-126 166h-8l-126 -166h-280zM719 2016v167c36 18 101 29 165 29c172 0 277 -87 277 -231c0 -103 -68 -207 -188 -258l-107 135c56 23 70 62 70 98
c0 49 -39 78 -106 78c-32 0 -83 -8 -111 -18z" />
    <glyph glyph-name="Ecircumflexgrave" unicode="&#x1ec0;" horiz-adv-x="1216" 
d="M1118 337v-337h-1018v1443h1018v-337h-594v-233h557v-304h-557v-232h594zM453 1842h310l255 -306h-280l-126 166h-8l-126 -166h-280zM984 1925h-286l-238 281h322z" />
    <glyph glyph-name="Ecircumflextilde" unicode="&#x1ec4;" horiz-adv-x="1216" 
d="M1118 337v-337h-1018v1443h1018v-337h-594v-233h557v-304h-557v-232h594zM754 1913c-146 0 -202 121 -271 121c-46 0 -66 -48 -69 -101h-201c0 187 113 293 249 293c146 0 202 -121 271 -121c46 0 66 44 69 106h201c0 -187 -113 -298 -249 -298zM453 1842h310l255 -306
h-280l-126 166h-8l-126 -166h-280z" />
    <glyph glyph-name="Ecircumflexdotbelow" unicode="&#x1ec6;" horiz-adv-x="1216" 
d="M1118 337v-337h-1018v1443h1018v-337h-594v-233h557v-304h-557v-232h594zM451 1872h314l255 -336h-276l-132 192h-8l-132 -192h-276zM608 -524c-100 0 -177 80 -177 177s77 176 177 176s177 -79 177 -176s-77 -177 -177 -177z" />
    <glyph glyph-name="Ecircumflexacute" unicode="&#x1ebe;" horiz-adv-x="1216" 
d="M1118 337v-337h-1018v1443h1018v-337h-594v-233h557v-304h-557v-232h594zM453 1842h310l255 -306h-280l-126 166h-8l-126 -166h-280zM652 1925l202 281h322l-238 -281h-286z" />
    <glyph glyph-name="Edieresis" unicode="&#xcb;" horiz-adv-x="1216" 
d="M1118 337v-337h-1018v1443h1018v-337h-594v-233h557v-304h-557v-232h594zM386 1536c-92 0 -158 68 -158 150c0 83 66 150 158 150s158 -67 158 -150c0 -82 -66 -150 -158 -150zM830 1536c-92 0 -158 68 -158 150c0 83 66 150 158 150s158 -67 158 -150
c0 -82 -66 -150 -158 -150z" />
    <glyph glyph-name="Edotbelow" unicode="&#x1eb8;" horiz-adv-x="1216" 
d="M1118 337v-337h-1018v1443h1018v-337h-594v-233h557v-304h-557v-232h594zM608 -524c-100 0 -177 80 -177 177s77 176 177 176s177 -79 177 -176s-77 -177 -177 -177z" />
    <glyph glyph-name="Einvertedbreve" unicode="&#x206;" horiz-adv-x="1216" 
d="M1118 337v-337h-1018v1443h1018v-337h-594v-233h557v-304h-557v-232h594zM213 1536c6 180 143 334 395 334s389 -154 395 -334h-236c-4 86 -59 148 -159 148s-155 -62 -159 -148h-236z" />
    <glyph glyph-name="Ehookabove" unicode="&#x1eba;" horiz-adv-x="1216" 
d="M1118 337v-337h-1018v1443h1018v-337h-594v-233h557v-304h-557v-232h594zM399 1807v167c36 18 101 29 165 29c172 0 277 -87 277 -231c0 -112 -91 -217 -216 -272l-111 133c60 23 102 70 102 114c0 49 -39 78 -106 78c-32 0 -83 -8 -111 -18z" />
    <glyph glyph-name="Ecaron" unicode="&#x11a;" horiz-adv-x="1216" 
d="M1118 337v-337h-1018v1443h1018v-337h-594v-233h557v-304h-557v-232h594zM451 1536l-255 336h276l132 -192h8l132 192h276l-255 -336h-314z" />
    <glyph glyph-name="Emacron" unicode="&#x112;" horiz-adv-x="1216" 
d="M1118 337v-337h-1018v1443h1018v-337h-594v-233h557v-304h-557v-232h594zM982 1786v-180h-748v180h748z" />
    <glyph glyph-name="Emacrongrave" unicode="&#x1e14;" horiz-adv-x="1216" 
d="M1118 337v-337h-1018v1443h1018v-337h-594v-233h557v-304h-557v-232h594zM234 1606v180h748v-180h-748zM764 1925h-286l-238 281h322z" />
    <glyph glyph-name="Emacronacute" unicode="&#x1e16;" horiz-adv-x="1216" 
d="M1118 337v-337h-1018v1443h1018v-337h-594v-233h557v-304h-557v-232h594zM982 1606h-748v180h748v-180zM452 1925l202 281h322l-238 -281h-286z" />
    <glyph glyph-name="Etilde" unicode="&#x1ebc;" horiz-adv-x="1216" 
d="M1118 337v-337h-1018v1443h1018v-337h-594v-233h557v-304h-557v-232h594zM761 1546c-146 0 -199 119 -268 119c-46 0 -66 -48 -69 -101h-201c0 187 117 293 251 293c146 0 199 -119 268 -119c46 0 66 44 69 106h201c0 -187 -117 -298 -251 -298z" />
    <glyph glyph-name="Ecircumflexbelow" unicode="&#x1e18;" horiz-adv-x="1216" 
d="M1118 337v-337h-1018v1443h1018v-337h-594v-233h557v-304h-557v-232h594zM451 -154h314l255 -336h-276l-132 192h-8l-132 -192h-276z" />
    <glyph glyph-name="Ebreve" unicode="&#x114;" horiz-adv-x="1216" 
d="M1118 337v-337h-1018v1443h1018v-337h-594v-233h557v-304h-557v-232h594zM213 1870h236c4 -86 59 -148 159 -148s155 62 159 148h236c-6 -180 -143 -334 -395 -334s-389 154 -395 334z" />
    <glyph glyph-name="Etildebelow" unicode="&#x1e1a;" horiz-adv-x="1216" 
d="M1118 337v-337h-1018v1443h1018v-337h-594v-233h557v-304h-557v-232h594zM761 -456c-146 0 -199 119 -268 119c-46 0 -66 -48 -69 -101h-201c0 187 117 293 251 293c146 0 199 -119 268 -119c46 0 66 44 69 106h201c0 -187 -117 -298 -251 -298z" />
    <glyph glyph-name="Edotaccent" unicode="&#x116;" horiz-adv-x="1216" 
d="M1118 337v-337h-1018v1443h1018v-337h-594v-233h557v-304h-557v-232h594zM608 1536c-100 0 -177 80 -177 177s77 176 177 176s177 -79 177 -176s-77 -177 -177 -177z" />
    <glyph glyph-name="Ecedilla" unicode="&#x228;" horiz-adv-x="1216" 
d="M1118 1106h-594v-233h557v-304h-557v-232h594v-337h-394l-46 -89c96 0 162 -66 162 -168c0 -129 -88 -195 -263 -195c-55 0 -107 5 -133 15v141c25 -8 63 -12 99 -12c66 0 94 11 94 37c0 35 -25 46 -100 46h-56v127l54 98h-435v1443h1018v-337z" />
    <glyph glyph-name="Ecedillabreve" unicode="&#x1e1c;" horiz-adv-x="1216" 
d="M767 1870h236c-6 -180 -143 -334 -395 -334s-389 154 -395 334h236c4 -86 59 -148 159 -148s155 62 159 148zM1118 1106h-594v-233h557v-304h-557v-232h594v-337h-394l-46 -89c96 0 162 -66 162 -168c0 -129 -88 -195 -263 -195c-55 0 -107 5 -133 15v141
c25 -8 63 -12 99 -12c66 0 94 11 94 37c0 35 -25 46 -100 46h-56v127l54 98h-435v1443h1018v-337z" />
    <glyph glyph-name="Eogonek" unicode="&#x118;" horiz-adv-x="1216" 
d="M892 -494c-181 0 -305 97 -305 239c0 102 70 206 169 251v4h-656v1443h1018v-337h-594v-233h557v-304h-557v-232h594v-337l-50 -8c-104 -17 -200 -104 -200 -182c0 -61 44 -94 124 -94c31 0 63 4 72 9v-193c-39 -17 -98 -26 -172 -26z" />
    <glyph glyph-name="F" unicode="F" horiz-adv-x="1164" 
d="M524 0h-424v1443h1014v-337h-590v-277h534v-318h-534v-511z" />
    <glyph glyph-name="Fdotaccent" unicode="&#x1e1e;" horiz-adv-x="1164" 
d="M524 0h-424v1443h1014v-337h-590v-277h534v-318h-534v-511zM582 1536c-100 0 -177 80 -177 177s77 176 177 176s177 -79 177 -176s-77 -177 -177 -177z" />
    <glyph glyph-name="G" unicode="G" horiz-adv-x="1530" 
d="M1462 614c0 -395 -249 -639 -668 -639c-458 0 -729 269 -729 748c0 473 271 745 716 745c362 0 632 -213 664 -509h-417c-28 106 -123 175 -245 175c-180 0 -286 -148 -286 -405c0 -263 121 -420 307 -420c138 0 236 77 248 193l2 20h-220v282h628v-190z" />
    <glyph glyph-name="Gacute" unicode="&#x1f4;" horiz-adv-x="1530" 
d="M1462 614c0 -395 -249 -639 -668 -639c-458 0 -729 269 -729 748c0 473 271 745 716 745c362 0 632 -213 664 -509h-417c-28 106 -123 175 -245 175c-180 0 -286 -148 -286 -405c0 -263 121 -420 307 -420c138 0 236 77 248 193l2 20h-220v282h628v-190zM896 1555h-306
l232 321h348z" />
    <glyph glyph-name="Gcaron" unicode="&#x1e6;" horiz-adv-x="1530" 
d="M1462 614c0 -395 -249 -639 -668 -639c-458 0 -729 269 -729 748c0 473 271 745 716 745c362 0 632 -213 664 -509h-417c-28 106 -123 175 -245 175c-180 0 -286 -148 -286 -405c0 -263 121 -420 307 -420c138 0 236 77 248 193l2 20h-220v282h628v-190zM599 1536
l-255 336h276l132 -192h8l132 192h276l-255 -336h-314z" />
    <glyph glyph-name="Gcircumflex" unicode="&#x11c;" horiz-adv-x="1530" 
d="M1462 614c0 -395 -249 -639 -668 -639c-458 0 -729 269 -729 748c0 473 271 745 716 745c362 0 632 -213 664 -509h-417c-28 106 -123 175 -245 175c-180 0 -286 -148 -286 -405c0 -263 121 -420 307 -420c138 0 236 77 248 193l2 20h-220v282h628v-190zM599 1872h314
l255 -336h-276l-132 192h-8l-132 -192h-276z" />
    <glyph glyph-name="Gbreve" unicode="&#x11e;" horiz-adv-x="1530" 
d="M1462 614c0 -395 -249 -639 -668 -639c-458 0 -729 269 -729 748c0 473 271 745 716 745c362 0 632 -213 664 -509h-417c-28 106 -123 175 -245 175c-180 0 -286 -148 -286 -405c0 -263 121 -420 307 -420c138 0 236 77 248 193l2 20h-220v282h628v-190zM361 1870h236
c4 -86 59 -148 159 -148s155 62 159 148h236c-6 -180 -143 -334 -395 -334s-389 154 -395 334z" />
    <glyph glyph-name="Gmacron" unicode="&#x1e20;" horiz-adv-x="1530" 
d="M1462 614c0 -395 -249 -639 -668 -639c-458 0 -729 269 -729 748c0 473 271 745 716 745c362 0 632 -213 664 -509h-417c-28 106 -123 175 -245 175c-180 0 -286 -148 -286 -405c0 -263 121 -420 307 -420c138 0 236 77 248 193l2 20h-220v282h628v-190zM1130 1786v-180
h-748v180h748z" />
    <glyph glyph-name="Gdotaccent" unicode="&#x120;" horiz-adv-x="1530" 
d="M1462 614c0 -395 -249 -639 -668 -639c-458 0 -729 269 -729 748c0 473 271 745 716 745c362 0 632 -213 664 -509h-417c-28 106 -123 175 -245 175c-180 0 -286 -148 -286 -405c0 -263 121 -420 307 -420c138 0 236 77 248 193l2 20h-220v282h628v-190zM756 1536
c-100 0 -177 80 -177 177s77 176 177 176s177 -79 177 -176s-77 -177 -177 -177z" />
    <glyph glyph-name="Gcommaaccent" unicode="&#x122;" horiz-adv-x="1530" 
d="M1462 614c0 -395 -249 -639 -668 -639c-458 0 -729 269 -729 748c0 473 271 745 716 745c362 0 632 -213 664 -509h-417c-28 106 -123 175 -245 175c-180 0 -286 -148 -286 -405c0 -263 121 -420 307 -420c138 0 236 77 248 193l2 20h-220v282h628v-190zM727 -457h-308
l152 321h359z" />
    <glyph glyph-name="H" unicode="H" horiz-adv-x="1556" 
d="M1456 0h-424v558h-508v-558h-424v1443h424v-548h508v548h424v-1443z" />
    <glyph glyph-name="Hdieresis" unicode="&#x1e26;" horiz-adv-x="1556" 
d="M1456 0h-424v558h-508v-558h-424v1443h424v-548h508v548h424v-1443zM556 1536c-92 0 -158 68 -158 150c0 83 66 150 158 150s158 -67 158 -150c0 -82 -66 -150 -158 -150zM1000 1536c-92 0 -158 68 -158 150c0 83 66 150 158 150s158 -67 158 -150
c0 -82 -66 -150 -158 -150z" />
    <glyph glyph-name="Hcaron" unicode="&#x21e;" horiz-adv-x="1556" 
d="M1456 0h-424v558h-508v-558h-424v1443h424v-548h508v548h424v-1443zM621 1536l-255 336h276l132 -192h8l132 192h276l-255 -336h-314z" />
    <glyph glyph-name="Hcircumflex" unicode="&#x124;" horiz-adv-x="1556" 
d="M1456 0h-424v558h-508v-558h-424v1443h424v-548h508v548h424v-1443zM621 1872h314l255 -336h-276l-132 192h-8l-132 -192h-276z" />
    <glyph glyph-name="Hdotbelow" unicode="&#x1e24;" horiz-adv-x="1556" 
d="M1456 0h-424v558h-508v-558h-424v1443h424v-548h508v548h424v-1443zM778 -524c-100 0 -177 80 -177 177s77 176 177 176s177 -79 177 -176s-77 -177 -177 -177z" />
    <glyph glyph-name="Hdotaccent" unicode="&#x1e22;" horiz-adv-x="1556" 
d="M1456 0h-424v558h-508v-558h-424v1443h424v-548h508v548h424v-1443zM778 1536c-100 0 -177 80 -177 177s77 176 177 176s177 -79 177 -176s-77 -177 -177 -177z" />
    <glyph glyph-name="Hbrevebelow" unicode="&#x1e2a;" horiz-adv-x="1556" 
d="M1456 0h-424v558h-508v-558h-424v1443h424v-548h508v548h424v-1443zM383 -156h236c4 -86 59 -148 159 -148s155 62 159 148h236c-6 -180 -143 -334 -395 -334s-389 154 -395 334z" />
    <glyph glyph-name="Hcedilla" unicode="&#x1e28;" horiz-adv-x="1556" 
d="M1032 1443h424v-1443h-424v558h-508v-558h-198l-46 -89c96 0 162 -66 162 -168c0 -129 -88 -195 -263 -195c-55 0 -107 5 -133 15v141c25 -8 63 -12 99 -12c66 0 94 11 94 37c0 35 -25 46 -100 46h-56v127l54 98h-37v1443h424v-548h508v548z" />
    <glyph glyph-name="Hbar" unicode="&#x126;" horiz-adv-x="1609" 
d="M1058 895v133h-508v-133h508zM1558 1307v-279h-76v-1028h-424v558h-508v-558h-424v1028h-75v279h75v136h424v-136h508v136h424v-136h76z" />
    <glyph glyph-name="I" unicode="I" horiz-adv-x="624" 
d="M524 0h-424v1443h424v-1443z" />
    <glyph glyph-name="Idotaccent" unicode="&#x130;" horiz-adv-x="624" 
d="M524 0h-424v1443h424v-1443zM312 1536c-100 0 -177 80 -177 177s77 176 177 176s177 -79 177 -176s-77 -177 -177 -177z" />
    <glyph glyph-name="Igrave" unicode="&#xcc;" horiz-adv-x="624" 
d="M524 0h-424v1443h424v-1443zM166 1564l-274 321h348l232 -321h-306z" />
    <glyph glyph-name="Idblgrave" unicode="&#x208;" horiz-adv-x="624" 
d="M524 0h-424v1443h424v-1443zM406 1555l-274 321h348l232 -321h-306zM-74 1555l-274 321h348l232 -321h-306z" />
    <glyph glyph-name="Iacute" unicode="&#xcd;" horiz-adv-x="624" 
d="M524 0h-424v1443h424v-1443zM452 1555h-306l232 321h348z" />
    <glyph glyph-name="Icircumflex" unicode="&#xce;" horiz-adv-x="624" 
d="M524 0h-424v1443h424v-1443zM155 1872h314l255 -336h-276l-132 192h-8l-132 -192h-276z" />
    <glyph glyph-name="Icaron" unicode="&#x1cf;" horiz-adv-x="624" 
d="M524 0h-424v1443h424v-1443zM155 1536l-255 336h276l132 -192h8l132 192h276l-255 -336h-314z" />
    <glyph glyph-name="Idieresis" unicode="&#xcf;" horiz-adv-x="624" 
d="M524 0h-424v1443h424v-1443zM90 1536c-92 0 -158 68 -158 150c0 83 66 150 158 150s158 -67 158 -150c0 -82 -66 -150 -158 -150zM534 1536c-92 0 -158 68 -158 150c0 83 66 150 158 150s158 -67 158 -150c0 -82 -66 -150 -158 -150z" />
    <glyph glyph-name="Idieresisacute" unicode="&#x1e2e;" horiz-adv-x="624" 
d="M524 0h-424v1443h424v-1443zM156 1925l202 281h322l-238 -281h-286zM90 1536c-92 0 -158 68 -158 150c0 83 66 150 158 150s158 -67 158 -150c0 -82 -66 -150 -158 -150zM534 1536c-92 0 -158 68 -158 150c0 83 66 150 158 150s158 -67 158 -150
c0 -82 -66 -150 -158 -150z" />
    <glyph glyph-name="Ibreve" unicode="&#x12c;" horiz-adv-x="624" 
d="M524 0h-424v1443h424v-1443zM-83 1870h236c4 -86 59 -148 159 -148s155 62 159 148h236c-6 -180 -143 -334 -395 -334s-389 154 -395 334z" />
    <glyph glyph-name="Idotbelow" unicode="&#x1eca;" horiz-adv-x="624" 
d="M524 0h-424v1443h424v-1443zM312 -524c-100 0 -177 80 -177 177s77 176 177 176s177 -79 177 -176s-77 -177 -177 -177z" />
    <glyph glyph-name="Iinvertedbreve" unicode="&#x20a;" horiz-adv-x="624" 
d="M524 0h-424v1443h424v-1443zM-83 1536c6 180 143 334 395 334s389 -154 395 -334h-236c-4 86 -59 148 -159 148s-155 -62 -159 -148h-236z" />
    <glyph glyph-name="Imacron" unicode="&#x12a;" horiz-adv-x="624" 
d="M524 0h-424v1443h424v-1443zM686 1786v-180h-748v180h748z" />
    <glyph glyph-name="Itildebelow" unicode="&#x1e2c;" horiz-adv-x="624" 
d="M524 0h-424v1443h424v-1443zM465 -456c-146 0 -199 119 -268 119c-46 0 -66 -48 -69 -101h-201c0 187 117 293 251 293c146 0 199 -119 268 -119c46 0 66 44 69 106h201c0 -187 -117 -298 -251 -298z" />
    <glyph glyph-name="Ihookabove" unicode="&#x1ec8;" horiz-adv-x="624" 
d="M524 0h-424v1443h424v-1443zM103 1807v167c36 18 101 29 165 29c172 0 277 -87 277 -231c0 -112 -91 -217 -216 -272l-111 133c60 23 102 70 102 114c0 49 -39 78 -106 78c-32 0 -83 -8 -111 -18z" />
    <glyph glyph-name="Itilde" unicode="&#x128;" horiz-adv-x="624" 
d="M524 0h-424v1443h424v-1443zM465 1546c-146 0 -199 119 -268 119c-46 0 -66 -48 -69 -101h-201c0 187 117 293 251 293c146 0 199 -119 268 -119c46 0 66 44 69 106h201c0 -187 -117 -298 -251 -298z" />
    <glyph glyph-name="Iogonek" unicode="&#x12e;" horiz-adv-x="624" 
d="M100 -58v1501h424v-1443l-40 -8c-87 -17 -198 -84 -198 -174c0 -64 48 -102 138 -102c22 0 53 4 72 9v-193c-33 -14 -78 -26 -182 -26c-179 0 -300 99 -300 240c0 73 31 143 86 196z" />
    <glyph glyph-name="J" unicode="J" horiz-adv-x="1271" 
d="M20 511h406c0 -113 59 -181 156 -181c93 0 143 60 143 174v939h424v-942c0 -339 -210 -526 -561 -526c-350 0 -568 202 -568 536z" />
    <glyph glyph-name="Jcircumflex" unicode="&#x134;" horiz-adv-x="1271" 
d="M20 511h406c0 -113 59 -181 156 -181c93 0 143 60 143 174v939h424v-942c0 -339 -210 -526 -561 -526c-350 0 -568 202 -568 536zM789 1872h314l255 -336h-276l-132 192h-8l-132 -192h-276z" />
    <glyph glyph-name="K" unicode="K" horiz-adv-x="1445" 
d="M524 0h-424v1443h424v-612h8l446 612h445l-475 -641l497 -802h-493l-315 530l-113 -152v-378z" />
    <glyph glyph-name="Kacute" unicode="&#x1e30;" horiz-adv-x="1445" 
d="M524 0h-424v1443h424v-612h8l446 612h445l-475 -641l497 -802h-493l-315 530l-113 -152v-378zM863 1555h-306l232 321h348z" />
    <glyph glyph-name="Kcaron" unicode="&#x1e8;" horiz-adv-x="1445" 
d="M524 0h-424v1443h424v-612h8l446 612h445l-475 -641l497 -802h-493l-315 530l-113 -152v-378zM566 1536l-255 336h276l132 -192h8l132 192h276l-255 -336h-314z" />
    <glyph glyph-name="Kdotbelow" unicode="&#x1e32;" horiz-adv-x="1445" 
d="M524 0h-424v1443h424v-612h8l446 612h445l-475 -641l497 -802h-493l-315 530l-113 -152v-378zM723 -524c-100 0 -177 80 -177 177s77 176 177 176s177 -79 177 -176s-77 -177 -177 -177z" />
    <glyph glyph-name="Klinebelow" unicode="&#x1e34;" horiz-adv-x="1445" 
d="M524 0h-424v1443h424v-612h8l446 612h445l-475 -641l497 -802h-493l-315 530l-113 -152v-378zM1097 -240v-180h-748v180h748z" />
    <glyph glyph-name="Kcommaaccent" unicode="&#x136;" horiz-adv-x="1445" 
d="M524 0h-424v1443h424v-612h8l446 612h445l-475 -641l497 -802h-493l-315 530l-113 -152v-378zM694 -457h-308l152 321h359z" />
    <glyph glyph-name="L" unicode="L" horiz-adv-x="1150" 
d="M1090 337v-337h-990v1443h424v-1106h566z" />
    <glyph glyph-name="Lacute" unicode="&#x139;" horiz-adv-x="1150" 
d="M1090 337v-337h-990v1443h424v-1106h566zM451 1555h-306l232 321h348z" />
    <glyph glyph-name="Lcircumflexbelow" unicode="&#x1e3c;" horiz-adv-x="1150" 
d="M1090 337v-337h-990v1443h424v-1106h566zM418 -154h314l255 -336h-276l-132 192h-8l-132 -192h-276z" />
    <glyph glyph-name="Ldotbelow" unicode="&#x1e36;" horiz-adv-x="1150" 
d="M1090 337v-337h-990v1443h424v-1106h566zM575 -524c-100 0 -177 80 -177 177s77 176 177 176s177 -79 177 -176s-77 -177 -177 -177z" />
    <glyph glyph-name="Ldotbelowmacron" unicode="&#x1e38;" horiz-adv-x="1150" 
d="M1090 337v-337h-990v1443h424v-1106h566zM575 -524c-100 0 -177 80 -177 177s77 176 177 176s177 -79 177 -176s-77 -177 -177 -177zM685 1786v-180h-748v180h748z" />
    <glyph glyph-name="Llinebelow" unicode="&#x1e3a;" horiz-adv-x="1150" 
d="M1090 337v-337h-990v1443h424v-1106h566zM949 -240v-180h-748v180h748z" />
    <glyph glyph-name="Lcommaaccent" unicode="&#x13b;" horiz-adv-x="1150" 
d="M1090 337v-337h-990v1443h424v-1106h566zM546 -457h-308l152 321h359z" />
    <glyph glyph-name="Lcaron" unicode="&#x13d;" horiz-adv-x="1150" 
d="M760 1443h322l-50 -518h-272v518zM1090 337v-337h-990v1443h424v-1106h566z" />
    <glyph glyph-name="Lslash" unicode="&#x141;" horiz-adv-x="1176" 
d="M550 337h566v-337h-990v573l-72 -39v256l72 39v614h424v-383l250 136v-256l-250 -136v-467z" />
    <glyph glyph-name="M" unicode="M" horiz-adv-x="1833" 
d="M1733 1443v-1443h-370v836h-8l-325 -819h-227l-325 819h-8v-836h-370v1443h490l323 -842h8l322 842h490z" />
    <glyph glyph-name="Macute" unicode="&#x1e3e;" horiz-adv-x="1833" 
d="M1057 1555h-306l232 321h348zM1733 1443v-1443h-370v836h-8l-325 -819h-227l-325 819h-8v-836h-370v1443h490l323 -842h8l322 842h490z" />
    <glyph glyph-name="Mdotaccent" unicode="&#x1e40;" horiz-adv-x="1833" 
d="M917 1536c-100 0 -177 80 -177 177s77 176 177 176s177 -79 177 -176s-77 -177 -177 -177zM1733 1443v-1443h-370v836h-8l-325 -819h-227l-325 819h-8v-836h-370v1443h490l323 -842h8l322 842h490z" />
    <glyph glyph-name="Mdotbelow" unicode="&#x1e42;" horiz-adv-x="1833" 
d="M917 -524c-100 0 -177 80 -177 177s77 176 177 176s177 -79 177 -176s-77 -177 -177 -177zM1733 1443v-1443h-370v836h-8l-325 -819h-227l-325 819h-8v-836h-370v1443h490l323 -842h8l322 842h490z" />
    <glyph glyph-name="N" unicode="N" horiz-adv-x="1494" 
d="M500 0h-400v1443h329l557 -748h8v748h400v-1443h-325l-561 760h-8v-760z" />
    <glyph glyph-name="Ngrave" unicode="&#x1f8;" horiz-adv-x="1494" 
d="M500 0h-400v1443h329l557 -748h8v748h400v-1443h-325l-561 760h-8v-760zM601 1564l-274 321h348l232 -321h-306z" />
    <glyph glyph-name="Nacute" unicode="&#x143;" horiz-adv-x="1494" 
d="M500 0h-400v1443h329l557 -748h8v748h400v-1443h-325l-561 760h-8v-760zM887 1555h-306l232 321h348z" />
    <glyph glyph-name="Ntilde" unicode="&#xd1;" horiz-adv-x="1494" 
d="M500 0h-400v1443h329l557 -748h8v748h400v-1443h-325l-561 760h-8v-760zM900 1546c-146 0 -199 119 -268 119c-46 0 -66 -48 -69 -101h-201c0 187 117 293 251 293c146 0 199 -119 268 -119c46 0 66 44 69 106h201c0 -187 -117 -298 -251 -298z" />
    <glyph glyph-name="Ndotbelow" unicode="&#x1e46;" horiz-adv-x="1494" 
d="M500 0h-400v1443h329l557 -748h8v748h400v-1443h-325l-561 760h-8v-760zM747 -524c-100 0 -177 80 -177 177s77 176 177 176s177 -79 177 -176s-77 -177 -177 -177z" />
    <glyph glyph-name="Ndotaccent" unicode="&#x1e44;" horiz-adv-x="1494" 
d="M500 0h-400v1443h329l557 -748h8v748h400v-1443h-325l-561 760h-8v-760zM747 1536c-100 0 -177 80 -177 177s77 176 177 176s177 -79 177 -176s-77 -177 -177 -177z" />
    <glyph glyph-name="Ncaron" unicode="&#x147;" horiz-adv-x="1494" 
d="M500 0h-400v1443h329l557 -748h8v748h400v-1443h-325l-561 760h-8v-760zM590 1536l-255 336h276l132 -192h8l132 192h276l-255 -336h-314z" />
    <glyph glyph-name="Ncircumflexbelow" unicode="&#x1e4a;" horiz-adv-x="1494" 
d="M500 0h-400v1443h329l557 -748h8v748h400v-1443h-325l-561 760h-8v-760zM590 -154h314l255 -336h-276l-132 192h-8l-132 -192h-276z" />
    <glyph glyph-name="Nlinebelow" unicode="&#x1e48;" horiz-adv-x="1494" 
d="M500 0h-400v1443h329l557 -748h8v748h400v-1443h-325l-561 760h-8v-760zM1121 -240v-180h-748v180h748z" />
    <glyph glyph-name="Ncommaaccent" unicode="&#x145;" horiz-adv-x="1494" 
d="M500 0h-400v1443h329l557 -748h8v748h400v-1443h-325l-561 760h-8v-760zM718 -457h-308l152 321h359z" />
    <glyph glyph-name="O" unicode="O" horiz-adv-x="1584" 
d="M792 1468c446 0 727 -286 727 -747s-281 -746 -727 -746c-447 0 -727 285 -727 746s281 747 727 747zM792 1130c-177 0 -295 -159 -295 -409c0 -249 117 -408 295 -408s295 159 295 408c0 250 -118 409 -295 409z" />
    <glyph glyph-name="Odieresis" unicode="&#xd6;" horiz-adv-x="1584" 
d="M792 1468c446 0 727 -286 727 -747s-281 -746 -727 -746c-447 0 -727 285 -727 746s281 747 727 747zM792 1130c-177 0 -295 -159 -295 -409c0 -249 117 -408 295 -408s295 159 295 408c0 250 -118 409 -295 409zM570 1536c-92 0 -158 68 -158 150c0 83 66 150 158 150
s158 -67 158 -150c0 -82 -66 -150 -158 -150zM1014 1536c-92 0 -158 68 -158 150c0 83 66 150 158 150s158 -67 158 -150c0 -82 -66 -150 -158 -150z" />
    <glyph glyph-name="Oslash" unicode="&#xd8;" horiz-adv-x="1584" 
d="M1033 974l-361 -633c36 -18 76 -28 120 -28c178 0 295 159 295 408c0 101 -19 187 -54 253zM579 422l370 656c-44 34 -97 52 -157 52c-177 0 -295 -159 -295 -409c0 -126 30 -228 82 -299zM1317 1472l-76 -134c177 -127 278 -340 278 -617c0 -461 -281 -746 -727 -746
c-111 0 -211 17 -299 51l-64 -112l-103 58l59 105c-203 122 -320 346 -320 644c0 461 281 747 727 747c127 0 241 -23 338 -67l69 122z" />
    <glyph glyph-name="Otilde" unicode="&#xd5;" horiz-adv-x="1584" 
d="M792 1468c446 0 727 -286 727 -747s-281 -746 -727 -746c-447 0 -727 285 -727 746s281 747 727 747zM792 1130c-177 0 -295 -159 -295 -409c0 -249 117 -408 295 -408s295 159 295 408c0 250 -118 409 -295 409zM945 1546c-146 0 -199 119 -268 119
c-46 0 -66 -48 -69 -101h-201c0 187 117 293 251 293c146 0 199 -119 268 -119c46 0 66 44 69 106h201c0 -187 -117 -298 -251 -298z" />
    <glyph glyph-name="Oacute" unicode="&#xd3;" horiz-adv-x="1584" 
d="M792 1468c446 0 727 -286 727 -747s-281 -746 -727 -746c-447 0 -727 285 -727 746s281 747 727 747zM792 1130c-177 0 -295 -159 -295 -409c0 -249 117 -408 295 -408s295 159 295 408c0 250 -118 409 -295 409zM932 1555h-306l232 321h348z" />
    <glyph glyph-name="Ocircumflex" unicode="&#xd4;" horiz-adv-x="1584" 
d="M792 1468c446 0 727 -286 727 -747s-281 -746 -727 -746c-447 0 -727 285 -727 746s281 747 727 747zM792 1130c-177 0 -295 -159 -295 -409c0 -249 117 -408 295 -408s295 159 295 408c0 250 -118 409 -295 409zM635 1872h314l255 -336h-276l-132 192h-8l-132 -192h-276
z" />
    <glyph glyph-name="Ograve" unicode="&#xd2;" horiz-adv-x="1584" 
d="M792 1468c446 0 727 -286 727 -747s-281 -746 -727 -746c-447 0 -727 285 -727 746s281 747 727 747zM792 1130c-177 0 -295 -159 -295 -409c0 -249 117 -408 295 -408s295 159 295 408c0 250 -118 409 -295 409zM646 1564l-274 321h348l232 -321h-306z" />
    <glyph glyph-name="Ocircumflexhookabove" unicode="&#x1ed4;" horiz-adv-x="1584" 
d="M792 1468c446 0 727 -286 727 -747s-281 -746 -727 -746c-447 0 -727 285 -727 746s281 747 727 747zM792 1130c-177 0 -295 -159 -295 -409c0 -249 117 -408 295 -408s295 159 295 408c0 250 -118 409 -295 409zM637 1842h310l255 -306h-280l-126 166h-8l-126 -166h-280
zM903 2016v167c36 18 101 29 165 29c172 0 277 -87 277 -231c0 -103 -68 -207 -188 -258l-107 135c56 23 70 62 70 98c0 49 -39 78 -106 78c-32 0 -83 -8 -111 -18z" />
    <glyph glyph-name="Ocircumflexgrave" unicode="&#x1ed2;" horiz-adv-x="1584" 
d="M792 1468c446 0 727 -286 727 -747s-281 -746 -727 -746c-447 0 -727 285 -727 746s281 747 727 747zM792 1130c-177 0 -295 -159 -295 -409c0 -249 117 -408 295 -408s295 159 295 408c0 250 -118 409 -295 409zM637 1842h310l255 -306h-280l-126 166h-8l-126 -166h-280
zM1168 1925h-286l-238 281h322z" />
    <glyph glyph-name="Odotbelow" unicode="&#x1ecc;" horiz-adv-x="1584" 
d="M792 1468c446 0 727 -286 727 -747s-281 -746 -727 -746c-447 0 -727 285 -727 746s281 747 727 747zM792 1130c-177 0 -295 -159 -295 -409c0 -249 117 -408 295 -408s295 159 295 408c0 250 -118 409 -295 409zM792 -524c-100 0 -177 80 -177 177s77 176 177 176
s177 -79 177 -176s-77 -177 -177 -177z" />
    <glyph glyph-name="Odblgrave" unicode="&#x20c;" horiz-adv-x="1584" 
d="M792 1468c446 0 727 -286 727 -747s-281 -746 -727 -746c-447 0 -727 285 -727 746s281 747 727 747zM792 1130c-177 0 -295 -159 -295 -409c0 -249 117 -408 295 -408s295 159 295 408c0 250 -118 409 -295 409zM886 1555l-274 321h348l232 -321h-306zM406 1555
l-274 321h348l232 -321h-306z" />
    <glyph glyph-name="Otildeacute" unicode="&#x1e4c;" horiz-adv-x="1584" 
d="M792 1468c446 0 727 -286 727 -747s-281 -746 -727 -746c-447 0 -727 285 -727 746s281 747 727 747zM792 1130c-177 0 -295 -159 -295 -409c0 -249 117 -408 295 -408s295 159 295 408c0 250 -118 409 -295 409zM938 1536c-146 0 -202 121 -271 121
c-46 0 -66 -48 -69 -101h-201c0 187 113 293 249 293c146 0 202 -121 271 -121c46 0 66 44 69 106h201c0 -187 -113 -298 -249 -298zM636 1925l202 281h322l-238 -281h-286z" />
    <glyph glyph-name="Omacronacute" unicode="&#x1e52;" horiz-adv-x="1584" 
d="M792 1468c446 0 727 -286 727 -747s-281 -746 -727 -746c-447 0 -727 285 -727 746s281 747 727 747zM792 1130c-177 0 -295 -159 -295 -409c0 -249 117 -408 295 -408s295 159 295 408c0 250 -118 409 -295 409zM1166 1606h-748v180h748v-180zM636 1925l202 281h322
l-238 -281h-286z" />
    <glyph glyph-name="Ocircumflextilde" unicode="&#x1ed6;" horiz-adv-x="1584" 
d="M792 1468c446 0 727 -286 727 -747s-281 -746 -727 -746c-447 0 -727 285 -727 746s281 747 727 747zM792 1130c-177 0 -295 -159 -295 -409c0 -249 117 -408 295 -408s295 159 295 408c0 250 -118 409 -295 409zM938 1913c-146 0 -202 121 -271 121
c-46 0 -66 -48 -69 -101h-201c0 187 113 293 249 293c146 0 202 -121 271 -121c46 0 66 44 69 106h201c0 -187 -113 -298 -249 -298zM637 1842h310l255 -306h-280l-126 166h-8l-126 -166h-280z" />
    <glyph glyph-name="Odotaccentmacron" unicode="&#x230;" horiz-adv-x="1584" 
d="M792 1468c446 0 727 -286 727 -747s-281 -746 -727 -746c-447 0 -727 285 -727 746s281 747 727 747zM792 1130c-177 0 -295 -159 -295 -409c0 -249 117 -408 295 -408s295 159 295 408c0 250 -118 409 -295 409zM792 1536c-92 0 -158 68 -158 150c0 83 66 150 158 150
s158 -67 158 -150c0 -82 -66 -150 -158 -150zM1166 2120v-180h-748v180h748z" />
    <glyph glyph-name="Omacrongrave" unicode="&#x1e50;" horiz-adv-x="1584" 
d="M792 1468c446 0 727 -286 727 -747s-281 -746 -727 -746c-447 0 -727 285 -727 746s281 747 727 747zM792 1130c-177 0 -295 -159 -295 -409c0 -249 117 -408 295 -408s295 159 295 408c0 250 -118 409 -295 409zM418 1606v180h748v-180h-748zM948 1925h-286l-238 281
h322z" />
    <glyph glyph-name="Ocaron" unicode="&#x1d1;" horiz-adv-x="1584" 
d="M792 1468c446 0 727 -286 727 -747s-281 -746 -727 -746c-447 0 -727 285 -727 746s281 747 727 747zM792 1130c-177 0 -295 -159 -295 -409c0 -249 117 -408 295 -408s295 159 295 408c0 250 -118 409 -295 409zM635 1536l-255 336h276l132 -192h8l132 192h276
l-255 -336h-314z" />
    <glyph glyph-name="Oslashacute" unicode="&#x1fe;" horiz-adv-x="1584" 
d="M1231 1876l-274 -321h-306l232 321h348zM1033 974l-361 -633c36 -18 76 -28 120 -28c178 0 295 159 295 408c0 101 -19 187 -54 253zM579 422l370 656c-44 34 -97 52 -157 52c-177 0 -295 -159 -295 -409c0 -126 30 -228 82 -299zM1317 1472l-76 -134
c177 -127 278 -340 278 -617c0 -461 -281 -746 -727 -746c-111 0 -211 17 -299 51l-64 -112l-103 58l59 105c-203 122 -320 346 -320 644c0 461 281 747 727 747c127 0 241 -23 338 -67l69 122z" />
    <glyph glyph-name="Ohungarumlaut" unicode="&#x150;" horiz-adv-x="1584" 
d="M792 1468c446 0 727 -286 727 -747s-281 -746 -727 -746c-447 0 -727 285 -727 746s281 747 727 747zM792 1130c-177 0 -295 -159 -295 -409c0 -249 117 -408 295 -408s295 159 295 408c0 250 -118 409 -295 409zM1178 1555h-306l232 321h348zM698 1555h-306l232 321h348
z" />
    <glyph glyph-name="Obreve" unicode="&#x14e;" horiz-adv-x="1584" 
d="M792 1468c446 0 727 -286 727 -747s-281 -746 -727 -746c-447 0 -727 285 -727 746s281 747 727 747zM792 1130c-177 0 -295 -159 -295 -409c0 -249 117 -408 295 -408s295 159 295 408c0 250 -118 409 -295 409zM397 1870h236c4 -86 59 -148 159 -148s155 62 159 148
h236c-6 -180 -143 -334 -395 -334s-389 154 -395 334z" />
    <glyph glyph-name="Oinvertedbreve" unicode="&#x20e;" horiz-adv-x="1584" 
d="M792 1468c446 0 727 -286 727 -747s-281 -746 -727 -746c-447 0 -727 285 -727 746s281 747 727 747zM792 1130c-177 0 -295 -159 -295 -409c0 -249 117 -408 295 -408s295 159 295 408c0 250 -118 409 -295 409zM397 1536c6 180 143 334 395 334s389 -154 395 -334h-236
c-4 86 -59 148 -159 148s-155 -62 -159 -148h-236z" />
    <glyph glyph-name="Ohookabove" unicode="&#x1ece;" horiz-adv-x="1584" 
d="M792 1468c446 0 727 -286 727 -747s-281 -746 -727 -746c-447 0 -727 285 -727 746s281 747 727 747zM792 1130c-177 0 -295 -159 -295 -409c0 -249 117 -408 295 -408s295 159 295 408c0 250 -118 409 -295 409zM583 1807v167c36 18 101 29 165 29
c172 0 277 -87 277 -231c0 -112 -91 -217 -216 -272l-111 133c60 23 102 70 102 114c0 49 -39 78 -106 78c-32 0 -83 -8 -111 -18z" />
    <glyph glyph-name="Odieresismacron" unicode="&#x22a;" horiz-adv-x="1584" 
d="M792 1468c446 0 727 -286 727 -747s-281 -746 -727 -746c-447 0 -727 285 -727 746s281 747 727 747zM792 1130c-177 0 -295 -159 -295 -409c0 -249 117 -408 295 -408s295 159 295 408c0 250 -118 409 -295 409zM570 1836c92 0 158 -67 158 -150
c0 -82 -66 -150 -158 -150s-158 68 -158 150c0 83 66 150 158 150zM418 2120h748v-180h-748v180zM1014 1836c92 0 158 -67 158 -150c0 -82 -66 -150 -158 -150s-158 68 -158 150c0 83 66 150 158 150z" />
    <glyph glyph-name="Otildemacron" unicode="&#x22c;" horiz-adv-x="1584" 
d="M792 1468c446 0 727 -286 727 -747s-281 -746 -727 -746c-447 0 -727 285 -727 746s281 747 727 747zM792 1130c-177 0 -295 -159 -295 -409c0 -249 117 -408 295 -408s295 159 295 408c0 250 -118 409 -295 409zM938 1536c-146 0 -202 121 -271 121
c-46 0 -66 -48 -69 -101h-201c0 187 113 293 249 293c146 0 202 -121 271 -121c46 0 66 44 69 106h201c0 -187 -113 -298 -249 -298zM1166 2120v-180h-748v180h748z" />
    <glyph glyph-name="Odotaccent" unicode="&#x22e;" horiz-adv-x="1584" 
d="M792 1468c446 0 727 -286 727 -747s-281 -746 -727 -746c-447 0 -727 285 -727 746s281 747 727 747zM792 1130c-177 0 -295 -159 -295 -409c0 -249 117 -408 295 -408s295 159 295 408c0 250 -118 409 -295 409zM792 1536c-100 0 -177 80 -177 177s77 176 177 176
s177 -79 177 -176s-77 -177 -177 -177z" />
    <glyph glyph-name="Ocircumflexdotbelow" unicode="&#x1ed8;" horiz-adv-x="1584" 
d="M792 1468c446 0 727 -286 727 -747s-281 -746 -727 -746c-447 0 -727 285 -727 746s281 747 727 747zM792 1130c-177 0 -295 -159 -295 -409c0 -249 117 -408 295 -408s295 159 295 408c0 250 -118 409 -295 409zM635 1872h314l255 -336h-276l-132 192h-8l-132 -192h-276
zM792 -524c-100 0 -177 80 -177 177s77 176 177 176s177 -79 177 -176s-77 -177 -177 -177z" />
    <glyph glyph-name="Ocircumflexacute" unicode="&#x1ed0;" horiz-adv-x="1584" 
d="M792 1468c446 0 727 -286 727 -747s-281 -746 -727 -746c-447 0 -727 285 -727 746s281 747 727 747zM792 1130c-177 0 -295 -159 -295 -409c0 -249 117 -408 295 -408s295 159 295 408c0 250 -118 409 -295 409zM637 1842h310l255 -306h-280l-126 166h-8l-126 -166h-280
zM836 1925l202 281h322l-238 -281h-286z" />
    <glyph glyph-name="Otildedieresis" unicode="&#x1e4e;" horiz-adv-x="1584" 
d="M792 1468c446 0 727 -286 727 -747s-281 -746 -727 -746c-447 0 -727 285 -727 746s281 747 727 747zM792 1130c-177 0 -295 -159 -295 -409c0 -249 117 -408 295 -408s295 159 295 408c0 250 -118 409 -295 409zM938 1536c-146 0 -202 121 -271 121
c-46 0 -66 -48 -69 -101h-201c0 187 113 293 249 293c146 0 202 -121 271 -121c46 0 66 44 69 96h201c0 -177 -113 -288 -249 -288zM570 2227c92 0 158 -67 158 -150c0 -82 -66 -150 -158 -150s-158 68 -158 150c0 83 66 150 158 150zM1014 2227c92 0 158 -67 158 -150
c0 -82 -66 -150 -158 -150s-158 68 -158 150c0 83 66 150 158 150z" />
    <glyph glyph-name="Omacron" unicode="&#x14c;" horiz-adv-x="1584" 
d="M792 1468c446 0 727 -286 727 -747s-281 -746 -727 -746c-447 0 -727 285 -727 746s281 747 727 747zM792 1130c-177 0 -295 -159 -295 -409c0 -249 117 -408 295 -408s295 159 295 408c0 250 -118 409 -295 409zM1166 1786v-180h-748v180h748z" />
    <glyph glyph-name="Oogonek" unicode="&#x1ea;" horiz-adv-x="1584" 
d="M1039 -494c-181 0 -306 94 -306 230c0 92 75 199 164 236v8c-17 -2 -73 -5 -105 -5c-448 0 -727 286 -727 746s280 747 727 747s727 -287 727 -747c0 -268 -96 -489 -269 -619c-167 -125 -235 -207 -235 -282c0 -66 45 -104 124 -104c31 0 63 4 72 9v-193
c-39 -17 -98 -26 -172 -26zM792 1130c-179 0 -295 -161 -295 -409s116 -408 295 -408s295 160 295 408s-116 409 -295 409z" />
    <glyph glyph-name="Oogonekmacron" unicode="&#x1ec;" horiz-adv-x="1584" 
d="M1166 1786v-180h-748v180h748zM1039 -494c-181 0 -306 94 -306 230c0 92 75 199 164 236v8c-17 -2 -73 -5 -105 -5c-448 0 -727 286 -727 746s280 747 727 747s727 -287 727 -747c0 -268 -96 -489 -269 -619c-167 -125 -235 -207 -235 -282c0 -66 45 -104 124 -104
c31 0 63 4 72 9v-193c-39 -17 -98 -26 -172 -26zM792 1130c-179 0 -295 -161 -295 -409s116 -408 295 -408s295 160 295 408s-116 409 -295 409z" />
    <glyph glyph-name="Ohorn" unicode="&#x1a0;" horiz-adv-x="1700" 
d="M792 -25c-448 0 -727 286 -727 746s280 747 727 747c198 0 277 -60 447 -60c69 0 108 31 108 86v185h303v-270c0 -158 -80 -240 -232 -240h-63v-8c93 -79 164 -276 164 -440c0 -459 -279 -746 -727 -746zM792 313c179 0 295 160 295 408s-116 409 -295 409
s-295 -161 -295 -409s116 -408 295 -408z" />
    <glyph glyph-name="Ohorndotbelow" unicode="&#x1ee2;" horiz-adv-x="1700" 
d="M792 -524c-100 0 -177 80 -177 177s77 176 177 176s177 -79 177 -176s-77 -177 -177 -177zM792 -25c-448 0 -727 286 -727 746s280 747 727 747c198 0 277 -60 447 -60c69 0 108 31 108 86v185h303v-270c0 -158 -80 -240 -232 -240h-63v-8c93 -79 164 -276 164 -440
c0 -459 -279 -746 -727 -746zM792 313c179 0 295 160 295 408s-116 409 -295 409s-295 -161 -295 -409s116 -408 295 -408z" />
    <glyph glyph-name="Ohornhookabove" unicode="&#x1ede;" horiz-adv-x="1700" 
d="M583 1807v167c36 18 101 29 165 29c172 0 277 -87 277 -231c0 -112 -91 -217 -216 -272l-111 133c60 23 102 70 102 114c0 49 -39 78 -106 78c-32 0 -83 -8 -111 -18zM792 -25c-448 0 -727 286 -727 746s280 747 727 747c198 0 277 -60 447 -60c69 0 108 31 108 86v185
h303v-270c0 -158 -80 -240 -232 -240h-63v-8c93 -79 164 -276 164 -440c0 -459 -279 -746 -727 -746zM792 313c179 0 295 160 295 408s-116 409 -295 409s-295 -161 -295 -409s116 -408 295 -408z" />
    <glyph glyph-name="Ohorntilde" unicode="&#x1ee0;" horiz-adv-x="1700" 
d="M945 1546c-146 0 -199 119 -268 119c-46 0 -66 -48 -69 -101h-201c0 187 117 293 251 293c146 0 199 -119 268 -119c46 0 66 44 69 106h201c0 -187 -117 -298 -251 -298zM792 -25c-448 0 -727 286 -727 746s280 747 727 747c198 0 277 -60 447 -60c69 0 108 31 108 86
v185h303v-270c0 -158 -80 -240 -232 -240h-63v-8c93 -79 164 -276 164 -440c0 -459 -279 -746 -727 -746zM792 313c179 0 295 160 295 408s-116 409 -295 409s-295 -161 -295 -409s116 -408 295 -408z" />
    <glyph glyph-name="Ohorngrave" unicode="&#x1edc;" horiz-adv-x="1700" 
d="M646 1564l-274 321h348l232 -321h-306zM792 -25c-448 0 -727 286 -727 746s280 747 727 747c198 0 277 -60 447 -60c69 0 108 31 108 86v185h303v-270c0 -158 -80 -240 -232 -240h-63v-8c93 -79 164 -276 164 -440c0 -459 -279 -746 -727 -746zM792 313
c179 0 295 160 295 408s-116 409 -295 409s-295 -161 -295 -409s116 -408 295 -408z" />
    <glyph glyph-name="Ohornacute" unicode="&#x1eda;" horiz-adv-x="1700" 
d="M932 1555h-306l232 321h348zM792 -25c-448 0 -727 286 -727 746s280 747 727 747c198 0 277 -60 447 -60c69 0 108 31 108 86v185h303v-270c0 -158 -80 -240 -232 -240h-63v-8c93 -79 164 -276 164 -440c0 -459 -279 -746 -727 -746zM792 313c179 0 295 160 295 408
s-116 409 -295 409s-295 -161 -295 -409s116 -408 295 -408z" />
    <glyph glyph-name="P" unicode="P" horiz-adv-x="1346" 
d="M100 1443h659c321 0 537 -205 537 -526c0 -318 -229 -523 -566 -523h-206v-394h-424v1443zM524 1124v-417h119c141 0 225 71 225 209c0 137 -84 208 -222 208h-122z" />
    <glyph glyph-name="Pdotaccent" unicode="&#x1e56;" horiz-adv-x="1346" 
d="M100 1443h659c321 0 537 -205 537 -526c0 -318 -229 -523 -566 -523h-206v-394h-424v1443zM524 1124v-417h119c141 0 225 71 225 209c0 137 -84 208 -222 208h-122zM673 1536c-100 0 -177 80 -177 177s77 176 177 176s177 -79 177 -176s-77 -177 -177 -177z" />
    <glyph glyph-name="Pacute" unicode="&#x1e54;" horiz-adv-x="1346" 
d="M100 1443h659c321 0 537 -205 537 -526c0 -318 -229 -523 -566 -523h-206v-394h-424v1443zM524 1124v-417h119c141 0 225 71 225 209c0 137 -84 208 -222 208h-122zM813 1555h-306l232 321h348z" />
    <glyph glyph-name="Q" unicode="Q" horiz-adv-x="1583" 
d="M1495 -108h-384l-72 117c-77 -23 -160 -34 -247 -34c-447 0 -727 278 -727 746c0 459 281 747 727 747c445 0 726 -288 726 -747c0 -230 -68 -422 -198 -542zM792 307c19 0 37 2 53 6l-136 223h345l3 -4c19 59 29 122 29 189c0 249 -117 415 -294 415
c-178 0 -295 -165 -295 -415s117 -414 295 -414z" />
    <glyph glyph-name="R" unicode="R" horiz-adv-x="1395" 
d="M524 1130v-366h175c119 0 192 73 192 182c0 107 -77 184 -191 184h-176zM524 484v-484h-424v1443h641c385 0 583 -181 583 -490c0 -170 -82 -334 -233 -406l274 -547h-474l-228 484h-139z" />
    <glyph glyph-name="Rcaron" unicode="&#x158;" horiz-adv-x="1395" 
d="M524 1130v-366h175c119 0 192 73 192 182c0 107 -77 184 -191 184h-176zM524 484v-484h-424v1443h641c385 0 583 -181 583 -490c0 -170 -82 -334 -233 -406l274 -547h-474l-228 484h-139zM541 1536l-255 336h276l132 -192h8l132 192h276l-255 -336h-314z" />
    <glyph glyph-name="Rlinebelow" unicode="&#x1e5e;" horiz-adv-x="1395" 
d="M524 1130v-366h175c119 0 192 73 192 182c0 107 -77 184 -191 184h-176zM524 484v-484h-424v1443h641c385 0 583 -181 583 -490c0 -170 -82 -334 -233 -406l274 -547h-474l-228 484h-139zM1072 -240v-180h-748v180h748z" />
    <glyph glyph-name="Rdotbelowmacron" unicode="&#x1e5c;" horiz-adv-x="1395" 
d="M524 1130v-366h175c119 0 192 73 192 182c0 107 -77 184 -191 184h-176zM524 484v-484h-424v1443h641c385 0 583 -181 583 -490c0 -170 -82 -334 -233 -406l274 -547h-474l-228 484h-139zM698 -524c-100 0 -177 80 -177 177s77 176 177 176s177 -79 177 -176
s-77 -177 -177 -177zM1072 1786v-180h-748v180h748z" />
    <glyph glyph-name="Rdblgrave" unicode="&#x210;" horiz-adv-x="1395" 
d="M524 1130v-366h175c119 0 192 73 192 182c0 107 -77 184 -191 184h-176zM524 484v-484h-424v1443h641c385 0 583 -181 583 -490c0 -170 -82 -334 -233 -406l274 -547h-474l-228 484h-139zM792 1555l-274 321h348l232 -321h-306zM312 1555l-274 321h348l232 -321h-306z
" />
    <glyph glyph-name="Rinvertedbreve" unicode="&#x212;" horiz-adv-x="1395" 
d="M524 1130v-366h175c119 0 192 73 192 182c0 107 -77 184 -191 184h-176zM524 484v-484h-424v1443h641c385 0 583 -181 583 -490c0 -170 -82 -334 -233 -406l274 -547h-474l-228 484h-139zM303 1536c6 180 143 334 395 334s389 -154 395 -334h-236c-4 86 -59 148 -159 148
s-155 -62 -159 -148h-236z" />
    <glyph glyph-name="Racute" unicode="&#x154;" horiz-adv-x="1395" 
d="M524 1130v-366h175c119 0 192 73 192 182c0 107 -77 184 -191 184h-176zM524 484v-484h-424v1443h641c385 0 583 -181 583 -490c0 -170 -82 -334 -233 -406l274 -547h-474l-228 484h-139zM838 1555h-306l232 321h348z" />
    <glyph glyph-name="Rdotbelow" unicode="&#x1e5a;" horiz-adv-x="1395" 
d="M524 1130v-366h175c119 0 192 73 192 182c0 107 -77 184 -191 184h-176zM524 484v-484h-424v1443h641c385 0 583 -181 583 -490c0 -170 -82 -334 -233 -406l274 -547h-474l-228 484h-139zM698 -524c-100 0 -177 80 -177 177s77 176 177 176s177 -79 177 -176
s-77 -177 -177 -177z" />
    <glyph glyph-name="Rdotaccent" unicode="&#x1e58;" horiz-adv-x="1395" 
d="M524 1130v-366h175c119 0 192 73 192 182c0 107 -77 184 -191 184h-176zM524 484v-484h-424v1443h641c385 0 583 -181 583 -490c0 -170 -82 -334 -233 -406l274 -547h-474l-228 484h-139zM698 1536c-100 0 -177 80 -177 177s77 176 177 176s177 -79 177 -176
s-77 -177 -177 -177z" />
    <glyph glyph-name="Rcommaaccent" unicode="&#x156;" horiz-adv-x="1395" 
d="M524 1130v-366h175c119 0 192 73 192 182c0 107 -77 184 -191 184h-176zM524 484v-484h-424v1443h641c385 0 583 -181 583 -490c0 -170 -82 -334 -233 -406l274 -547h-474l-228 484h-139zM669 -457h-308l152 321h359z" />
    <glyph glyph-name="S" unicode="S" horiz-adv-x="1370" 
d="M60 425h401c12 -82 112 -136 226 -136c127 0 205 51 205 121c0 67 -53 96 -208 124l-191 34c-265 46 -409 198 -409 424c0 292 250 476 594 476c384 0 599 -176 601 -456h-387c-3 90 -92 143 -206 143c-111 0 -181 -46 -181 -118c0 -69 59 -105 196 -129l198 -34
c280 -49 411 -182 411 -416c0 -295 -247 -483 -631 -483c-387 0 -618 162 -619 450z" />
    <glyph glyph-name="Scaron" unicode="&#x160;" horiz-adv-x="1370" 
d="M60 425h401c12 -82 112 -136 226 -136c127 0 205 51 205 121c0 67 -53 96 -208 124l-191 34c-265 46 -409 198 -409 424c0 292 250 476 594 476c384 0 599 -176 601 -456h-387c-3 90 -92 143 -206 143c-111 0 -181 -46 -181 -118c0 -69 59 -105 196 -129l198 -34
c280 -49 411 -182 411 -416c0 -295 -247 -483 -631 -483c-387 0 -618 162 -619 450zM528 1536l-255 336h276l132 -192h8l132 192h276l-255 -336h-314z" />
    <glyph glyph-name="Scedilla" unicode="&#x15e;" horiz-adv-x="1370" 
d="M701 908l198 -34c280 -49 411 -182 411 -416c0 -265 -200 -444 -519 -477l-36 -70c96 0 162 -66 162 -168c0 -129 -88 -195 -263 -195c-55 0 -107 5 -133 15v141c25 -8 63 -12 99 -12c66 0 94 11 94 37c0 35 -25 46 -100 46h-56v127l42 75c-339 21 -539 180 -540 448h401
c12 -82 112 -136 226 -136c127 0 205 51 205 121c0 67 -53 96 -208 124l-191 34c-265 46 -409 198 -409 424c0 292 250 476 594 476c384 0 599 -176 601 -456h-387c-3 90 -92 143 -206 143c-111 0 -181 -46 -181 -118c0 -69 59 -105 196 -129z" />
    <glyph glyph-name="Sdotaccent" unicode="&#x1e60;" horiz-adv-x="1370" 
d="M60 425h401c12 -82 112 -136 226 -136c127 0 205 51 205 121c0 67 -53 96 -208 124l-191 34c-265 46 -409 198 -409 424c0 292 250 476 594 476c384 0 599 -176 601 -456h-387c-3 90 -92 143 -206 143c-111 0 -181 -46 -181 -118c0 -69 59 -105 196 -129l198 -34
c280 -49 411 -182 411 -416c0 -295 -247 -483 -631 -483c-387 0 -618 162 -619 450zM685 1536c-100 0 -177 80 -177 177s77 176 177 176s177 -79 177 -176s-77 -177 -177 -177z" />
    <glyph glyph-name="Sdotbelow" unicode="&#x1e62;" horiz-adv-x="1370" 
d="M60 425h401c12 -82 112 -136 226 -136c127 0 205 51 205 121c0 67 -53 96 -208 124l-191 34c-265 46 -409 198 -409 424c0 292 250 476 594 476c384 0 599 -176 601 -456h-387c-3 90 -92 143 -206 143c-111 0 -181 -46 -181 -118c0 -69 59 -105 196 -129l198 -34
c280 -49 411 -182 411 -416c0 -295 -247 -483 -631 -483c-387 0 -618 162 -619 450zM685 -524c-100 0 -177 80 -177 177s77 176 177 176s177 -79 177 -176s-77 -177 -177 -177z" />
    <glyph glyph-name="Scommaaccent" unicode="&#x218;" horiz-adv-x="1370" 
d="M60 425h401c12 -82 112 -136 226 -136c127 0 205 51 205 121c0 67 -53 96 -208 124l-191 34c-265 46 -409 198 -409 424c0 292 250 476 594 476c384 0 599 -176 601 -456h-387c-3 90 -92 143 -206 143c-111 0 -181 -46 -181 -118c0 -69 59 -105 196 -129l198 -34
c280 -49 411 -182 411 -416c0 -295 -247 -483 -631 -483c-387 0 -618 162 -619 450zM656 -457h-308l152 321h359z" />
    <glyph glyph-name="Sdotbelowdotaccent" unicode="&#x1e68;" horiz-adv-x="1370" 
d="M60 425h401c12 -82 112 -136 226 -136c127 0 205 51 205 121c0 67 -53 96 -208 124l-191 34c-265 46 -409 198 -409 424c0 292 250 476 594 476c384 0 599 -176 601 -456h-387c-3 90 -92 143 -206 143c-111 0 -181 -46 -181 -118c0 -69 59 -105 196 -129l198 -34
c280 -49 411 -182 411 -416c0 -295 -247 -483 -631 -483c-387 0 -618 162 -619 450zM685 -524c-100 0 -177 80 -177 177s77 176 177 176s177 -79 177 -176s-77 -177 -177 -177zM685 1536c-100 0 -177 80 -177 177s77 176 177 176s177 -79 177 -176s-77 -177 -177 -177z" />
    <glyph glyph-name="Scarondotaccent" unicode="&#x1e66;" horiz-adv-x="1370" 
d="M60 425h401c12 -82 112 -136 226 -136c127 0 205 51 205 121c0 67 -53 96 -208 124l-191 34c-265 46 -409 198 -409 424c0 292 250 476 594 476c384 0 599 -176 601 -456h-387c-3 90 -92 143 -206 143c-111 0 -181 -46 -181 -118c0 -69 59 -105 196 -129l198 -34
c280 -49 411 -182 411 -416c0 -295 -247 -483 -631 -483c-387 0 -618 162 -619 450zM530 1536l-255 306h280l126 -166h8l126 166h280l-255 -306h-310zM685 1870c-92 0 -158 68 -158 150c0 83 66 150 158 150s158 -67 158 -150c0 -82 -66 -150 -158 -150z" />
    <glyph glyph-name="Scircumflex" unicode="&#x15c;" horiz-adv-x="1370" 
d="M60 425h401c12 -82 112 -136 226 -136c127 0 205 51 205 121c0 67 -53 96 -208 124l-191 34c-265 46 -409 198 -409 424c0 292 250 476 594 476c384 0 599 -176 601 -456h-387c-3 90 -92 143 -206 143c-111 0 -181 -46 -181 -118c0 -69 59 -105 196 -129l198 -34
c280 -49 411 -182 411 -416c0 -295 -247 -483 -631 -483c-387 0 -618 162 -619 450zM528 1872h314l255 -336h-276l-132 192h-8l-132 -192h-276z" />
    <glyph glyph-name="Sacutedotaccent" unicode="&#x1e64;" horiz-adv-x="1370" 
d="M60 425h401c12 -82 112 -136 226 -136c127 0 205 51 205 121c0 67 -53 96 -208 124l-191 34c-265 46 -409 198 -409 424c0 292 250 476 594 476c384 0 599 -176 601 -456h-387c-3 90 -92 143 -206 143c-111 0 -181 -46 -181 -118c0 -69 59 -105 196 -129l198 -34
c280 -49 411 -182 411 -416c0 -295 -247 -483 -631 -483c-387 0 -618 162 -619 450zM959 1555h-306l232 321h348zM409 1536c-100 0 -177 80 -177 177s77 176 177 176s177 -79 177 -176s-77 -177 -177 -177z" />
    <glyph glyph-name="Sacute" unicode="&#x15a;" horiz-adv-x="1370" 
d="M60 425h401c12 -82 112 -136 226 -136c127 0 205 51 205 121c0 67 -53 96 -208 124l-191 34c-265 46 -409 198 -409 424c0 292 250 476 594 476c384 0 599 -176 601 -456h-387c-3 90 -92 143 -206 143c-111 0 -181 -46 -181 -118c0 -69 59 -105 196 -129l198 -34
c280 -49 411 -182 411 -416c0 -295 -247 -483 -631 -483c-387 0 -618 162 -619 450zM825 1555h-306l232 321h348z" />
    <glyph glyph-name="T" unicode="T" horiz-adv-x="1274" 
d="M849 0h-424v1106h-380v337h1184v-337h-380v-1106z" />
    <glyph glyph-name="Tcircumflexbelow" unicode="&#x1e70;" horiz-adv-x="1274" 
d="M849 0h-424v1106h-380v337h1184v-337h-380v-1106zM480 -154h314l255 -336h-276l-132 192h-8l-132 -192h-276z" />
    <glyph glyph-name="Tdotbelow" unicode="&#x1e6c;" horiz-adv-x="1274" 
d="M849 0h-424v1106h-380v337h1184v-337h-380v-1106zM637 -524c-100 0 -177 80 -177 177s77 176 177 176s177 -79 177 -176s-77 -177 -177 -177z" />
    <glyph glyph-name="Tcommaaccent" unicode="&#x21a;" horiz-adv-x="1274" 
d="M849 0h-424v1106h-380v337h1184v-337h-380v-1106zM608 -457h-308l152 321h359z" />
    <glyph glyph-name="Tdotaccent" unicode="&#x1e6a;" horiz-adv-x="1274" 
d="M849 0h-424v1106h-380v337h1184v-337h-380v-1106zM637 1536c-100 0 -177 80 -177 177s77 176 177 176s177 -79 177 -176s-77 -177 -177 -177z" />
    <glyph glyph-name="Tcedilla" unicode="&#x162;" horiz-adv-x="1274" 
d="M849 0h-96l-46 -89c96 0 162 -66 162 -168c0 -129 -88 -195 -263 -195c-55 0 -107 5 -133 15v141c25 -8 63 -12 99 -12c66 0 94 11 94 37c0 35 -25 46 -100 46h-56v127l54 98h-139v1106h-380v337h1184v-337h-380v-1106z" />
    <glyph glyph-name="Tlinebelow" unicode="&#x1e6e;" horiz-adv-x="1274" 
d="M849 0h-424v1106h-380v337h1184v-337h-380v-1106zM1011 -240v-180h-748v180h748z" />
    <glyph glyph-name="Tcaron" unicode="&#x164;" horiz-adv-x="1274" 
d="M849 0h-424v1106h-380v337h1184v-337h-380v-1106zM480 1536l-255 336h276l132 -192h8l132 192h276l-255 -336h-314z" />
    <glyph glyph-name="Tbar" unicode="&#x166;" horiz-adv-x="1345" 
d="M1249 1106h-380v-299h277v-279h-277v-528h-424v528h-245v279h245v299h-380v337h1184v-337z" />
    <glyph glyph-name="U" unicode="U" horiz-adv-x="1472" 
d="M524 1443v-882c0 -152 75 -235 212 -235s212 83 212 235v882h424v-929c0 -329 -255 -539 -636 -539s-636 210 -636 539v929h424z" />
    <glyph glyph-name="Ugrave" unicode="&#xd9;" horiz-adv-x="1472" 
d="M524 1443v-882c0 -152 75 -235 212 -235s212 83 212 235v882h424v-929c0 -329 -255 -539 -636 -539s-636 210 -636 539v929h424zM590 1564l-274 321h348l232 -321h-306z" />
    <glyph glyph-name="Udblgrave" unicode="&#x214;" horiz-adv-x="1472" 
d="M524 1443v-882c0 -152 75 -235 212 -235s212 83 212 235v882h424v-929c0 -329 -255 -539 -636 -539s-636 210 -636 539v929h424zM830 1555l-274 321h348l232 -321h-306zM350 1555l-274 321h348l232 -321h-306z" />
    <glyph glyph-name="Uacute" unicode="&#xda;" horiz-adv-x="1472" 
d="M524 1443v-882c0 -152 75 -235 212 -235s212 83 212 235v882h424v-929c0 -329 -255 -539 -636 -539s-636 210 -636 539v929h424zM876 1555h-306l232 321h348z" />
    <glyph glyph-name="Uhungarumlaut" unicode="&#x170;" horiz-adv-x="1472" 
d="M524 1443v-882c0 -152 75 -235 212 -235s212 83 212 235v882h424v-929c0 -329 -255 -539 -636 -539s-636 210 -636 539v929h424zM1122 1555h-306l232 321h348zM642 1555h-306l232 321h348z" />
    <glyph glyph-name="Ucircumflex" unicode="&#xdb;" horiz-adv-x="1472" 
d="M524 1443v-882c0 -152 75 -235 212 -235s212 83 212 235v882h424v-929c0 -329 -255 -539 -636 -539s-636 210 -636 539v929h424zM579 1872h314l255 -336h-276l-132 192h-8l-132 -192h-276z" />
    <glyph glyph-name="Ucaron" unicode="&#x1d3;" horiz-adv-x="1472" 
d="M524 1443v-882c0 -152 75 -235 212 -235s212 83 212 235v882h424v-929c0 -329 -255 -539 -636 -539s-636 210 -636 539v929h424zM579 1536l-255 336h276l132 -192h8l132 192h276l-255 -336h-314z" />
    <glyph glyph-name="Ucircumflexbelow" unicode="&#x1e76;" horiz-adv-x="1472" 
d="M524 1443v-882c0 -152 75 -235 212 -235s212 83 212 235v882h424v-929c0 -329 -255 -539 -636 -539s-636 210 -636 539v929h424zM579 -154h314l255 -336h-276l-132 192h-8l-132 -192h-276z" />
    <glyph glyph-name="Udieresis" unicode="&#xdc;" horiz-adv-x="1472" 
d="M524 1443v-882c0 -152 75 -235 212 -235s212 83 212 235v882h424v-929c0 -329 -255 -539 -636 -539s-636 210 -636 539v929h424zM514 1536c-92 0 -158 68 -158 150c0 83 66 150 158 150s158 -67 158 -150c0 -82 -66 -150 -158 -150zM958 1536c-92 0 -158 68 -158 150
c0 83 66 150 158 150s158 -67 158 -150c0 -82 -66 -150 -158 -150z" />
    <glyph glyph-name="Udieresisgrave" unicode="&#x1db;" horiz-adv-x="1472" 
d="M524 1443v-882c0 -152 75 -235 212 -235s212 83 212 235v882h424v-929c0 -329 -255 -539 -636 -539s-636 210 -636 539v929h424zM892 1925h-286l-238 281h322zM514 1536c-92 0 -158 68 -158 150c0 83 66 150 158 150s158 -67 158 -150c0 -82 -66 -150 -158 -150z
M958 1536c-92 0 -158 68 -158 150c0 83 66 150 158 150s158 -67 158 -150c0 -82 -66 -150 -158 -150z" />
    <glyph glyph-name="Udieresisacute" unicode="&#x1d7;" horiz-adv-x="1472" 
d="M524 1443v-882c0 -152 75 -235 212 -235s212 83 212 235v882h424v-929c0 -329 -255 -539 -636 -539s-636 210 -636 539v929h424zM580 1925l202 281h322l-238 -281h-286zM514 1536c-92 0 -158 68 -158 150c0 83 66 150 158 150s158 -67 158 -150c0 -82 -66 -150 -158 -150
zM958 1536c-92 0 -158 68 -158 150c0 83 66 150 158 150s158 -67 158 -150c0 -82 -66 -150 -158 -150z" />
    <glyph glyph-name="Udieresismacron" unicode="&#x1d5;" horiz-adv-x="1472" 
d="M524 1443v-882c0 -152 75 -235 212 -235s212 83 212 235v882h424v-929c0 -329 -255 -539 -636 -539s-636 210 -636 539v929h424zM514 1836c92 0 158 -67 158 -150c0 -82 -66 -150 -158 -150s-158 68 -158 150c0 83 66 150 158 150zM362 2120h748v-180h-748v180zM958 1836
c92 0 158 -67 158 -150c0 -82 -66 -150 -158 -150s-158 68 -158 150c0 83 66 150 158 150z" />
    <glyph glyph-name="Udieresiscaron" unicode="&#x1d9;" horiz-adv-x="1472" 
d="M524 1443v-882c0 -152 75 -235 212 -235s212 83 212 235v882h424v-929c0 -329 -255 -539 -636 -539s-636 210 -636 539v929h424zM594 1926l-247 305h267l111 -153h22l111 153h267l-247 -305h-284zM514 1836c92 0 158 -67 158 -150c0 -82 -66 -150 -158 -150
s-158 68 -158 150c0 83 66 150 158 150zM958 1836c92 0 158 -67 158 -150c0 -82 -66 -150 -158 -150s-158 68 -158 150c0 83 66 150 158 150z" />
    <glyph glyph-name="Udieresisbelow" unicode="&#x1e72;" horiz-adv-x="1472" 
d="M524 1443v-882c0 -152 75 -235 212 -235s212 83 212 235v882h424v-929c0 -329 -255 -539 -636 -539s-636 210 -636 539v929h424zM514 -476c-92 0 -158 68 -158 150c0 83 66 150 158 150s158 -67 158 -150c0 -82 -66 -150 -158 -150zM958 -476c-92 0 -158 68 -158 150
c0 83 66 150 158 150s158 -67 158 -150c0 -82 -66 -150 -158 -150z" />
    <glyph glyph-name="Utildebelow" unicode="&#x1e74;" horiz-adv-x="1472" 
d="M524 1443v-882c0 -152 75 -235 212 -235s212 83 212 235v882h424v-929c0 -329 -255 -539 -636 -539s-636 210 -636 539v929h424zM889 -456c-146 0 -199 119 -268 119c-46 0 -66 -48 -69 -101h-201c0 187 117 293 251 293c146 0 199 -119 268 -119c46 0 66 44 69 106h201
c0 -187 -117 -298 -251 -298z" />
    <glyph glyph-name="Uhookabove" unicode="&#x1ee6;" horiz-adv-x="1472" 
d="M524 1443v-882c0 -152 75 -235 212 -235s212 83 212 235v882h424v-929c0 -329 -255 -539 -636 -539s-636 210 -636 539v929h424zM527 1807v167c36 18 101 29 165 29c172 0 277 -87 277 -231c0 -112 -91 -217 -216 -272l-111 133c60 23 102 70 102 114
c0 49 -39 78 -106 78c-32 0 -83 -8 -111 -18z" />
    <glyph glyph-name="Ubreve" unicode="&#x16c;" horiz-adv-x="1472" 
d="M524 1443v-882c0 -152 75 -235 212 -235s212 83 212 235v882h424v-929c0 -329 -255 -539 -636 -539s-636 210 -636 539v929h424zM341 1870h236c4 -86 59 -148 159 -148s155 62 159 148h236c-6 -180 -143 -334 -395 -334s-389 154 -395 334z" />
    <glyph glyph-name="Uinvertedbreve" unicode="&#x216;" horiz-adv-x="1472" 
d="M524 1443v-882c0 -152 75 -235 212 -235s212 83 212 235v882h424v-929c0 -329 -255 -539 -636 -539s-636 210 -636 539v929h424zM341 1536c6 180 143 334 395 334s389 -154 395 -334h-236c-4 86 -59 148 -159 148s-155 -62 -159 -148h-236z" />
    <glyph glyph-name="Utildeacute" unicode="&#x1e78;" horiz-adv-x="1472" 
d="M524 1443v-882c0 -152 75 -235 212 -235s212 83 212 235v882h424v-929c0 -329 -255 -539 -636 -539s-636 210 -636 539v929h424zM882 1536c-146 0 -202 121 -271 121c-46 0 -66 -48 -69 -101h-201c0 187 113 293 249 293c146 0 202 -121 271 -121c46 0 66 44 69 106h201
c0 -187 -113 -298 -249 -298zM580 1925l202 281h322l-238 -281h-286z" />
    <glyph glyph-name="Udotbelow" unicode="&#x1ee4;" horiz-adv-x="1472" 
d="M524 1443v-882c0 -152 75 -235 212 -235s212 83 212 235v882h424v-929c0 -329 -255 -539 -636 -539s-636 210 -636 539v929h424zM736 -524c-100 0 -177 80 -177 177s77 176 177 176s177 -79 177 -176s-77 -177 -177 -177z" />
    <glyph glyph-name="Utilde" unicode="&#x168;" horiz-adv-x="1472" 
d="M524 1443v-882c0 -152 75 -235 212 -235s212 83 212 235v882h424v-929c0 -329 -255 -539 -636 -539s-636 210 -636 539v929h424zM889 1546c-146 0 -199 119 -268 119c-46 0 -66 -48 -69 -101h-201c0 187 117 293 251 293c146 0 199 -119 268 -119c46 0 66 44 69 106h201
c0 -187 -117 -298 -251 -298z" />
    <glyph glyph-name="Umacron" unicode="&#x16a;" horiz-adv-x="1472" 
d="M524 1443v-882c0 -152 75 -235 212 -235s212 83 212 235v882h424v-929c0 -329 -255 -539 -636 -539s-636 210 -636 539v929h424zM1110 1786v-180h-748v180h748z" />
    <glyph glyph-name="Umacrondieresis" unicode="&#x1e7a;" horiz-adv-x="1472" 
d="M524 1443v-882c0 -152 75 -235 212 -235s212 83 212 235v882h424v-929c0 -329 -255 -539 -636 -539s-636 210 -636 539v929h424zM1110 1606h-748v180h748v-180zM514 1931c-92 0 -158 68 -158 150c0 83 66 150 158 150s158 -67 158 -150c0 -82 -66 -150 -158 -150z
M958 1931c-92 0 -158 68 -158 150c0 83 66 150 158 150s158 -67 158 -150c0 -82 -66 -150 -158 -150z" />
    <glyph glyph-name="Uring" unicode="&#x16e;" horiz-adv-x="1472" 
d="M524 1443v-882c0 -152 75 -235 212 -235s212 83 212 235v882h424v-929c0 -329 -255 -539 -636 -539s-636 210 -636 539v929h424zM736 1520c-119 0 -220 96 -220 212c0 118 101 213 220 213s219 -95 219 -213c0 -116 -100 -212 -219 -212zM736 1656c43 0 80 34 80 76
c0 43 -37 78 -80 78s-80 -35 -80 -78c0 -42 37 -76 80 -76z" />
    <glyph glyph-name="Uogonek" unicode="&#x172;" horiz-adv-x="1472" 
d="M964 -494c-181 0 -306 94 -306 230c0 91 73 195 164 236v8c-19 -3 -56 -5 -86 -5c-385 0 -636 213 -636 539v929h424v-882c0 -152 75 -235 212 -235s212 83 212 235v882h424v-929c0 -177 -73 -325 -206 -417c-158 -110 -226 -193 -226 -277c0 -66 45 -104 124 -104
c31 0 63 4 72 9v-193c-39 -17 -98 -26 -172 -26z" />
    <glyph glyph-name="Uhorn" unicode="&#x1af;" horiz-adv-x="1773" 
d="M736 -26c-384 0 -636 213 -636 539v930h424v-883c0 -151 75 -234 212 -234s212 82 212 234v883h444c41 0 68 23 68 66v205h303v-290c0 -153 -95 -240 -252 -240h-139v-671c0 -326 -251 -539 -636 -539z" />
    <glyph glyph-name="Uhorngrave" unicode="&#x1eea;" horiz-adv-x="1773" 
d="M590 1564l-274 321h348l232 -321h-306zM736 -26c-384 0 -636 213 -636 539v930h424v-883c0 -151 75 -234 212 -234s212 82 212 234v883h444c41 0 68 23 68 66v205h303v-290c0 -153 -95 -240 -252 -240h-139v-671c0 -326 -251 -539 -636 -539z" />
    <glyph glyph-name="Uhornacute" unicode="&#x1ee8;" horiz-adv-x="1773" 
d="M876 1555h-306l232 321h348zM736 -26c-384 0 -636 213 -636 539v930h424v-883c0 -151 75 -234 212 -234s212 82 212 234v883h444c41 0 68 23 68 66v205h303v-290c0 -153 -95 -240 -252 -240h-139v-671c0 -326 -251 -539 -636 -539z" />
    <glyph glyph-name="Uhorndotbelow" unicode="&#x1ef0;" horiz-adv-x="1773" 
d="M736 -524c-100 0 -177 80 -177 177s77 176 177 176s177 -79 177 -176s-77 -177 -177 -177zM736 -26c-384 0 -636 213 -636 539v930h424v-883c0 -151 75 -234 212 -234s212 82 212 234v883h444c41 0 68 23 68 66v205h303v-290c0 -153 -95 -240 -252 -240h-139v-671
c0 -326 -251 -539 -636 -539z" />
    <glyph glyph-name="Uhornhookabove" unicode="&#x1eec;" horiz-adv-x="1773" 
d="M527 1807v167c36 18 101 29 165 29c172 0 277 -87 277 -231c0 -112 -91 -217 -216 -272l-111 133c60 23 102 70 102 114c0 49 -39 78 -106 78c-32 0 -83 -8 -111 -18zM736 -26c-384 0 -636 213 -636 539v930h424v-883c0 -151 75 -234 212 -234s212 82 212 234v883h444
c41 0 68 23 68 66v205h303v-290c0 -153 -95 -240 -252 -240h-139v-671c0 -326 -251 -539 -636 -539z" />
    <glyph glyph-name="Uhorntilde" unicode="&#x1eee;" horiz-adv-x="1773" 
d="M889 1546c-146 0 -199 119 -268 119c-46 0 -66 -48 -69 -101h-201c0 187 117 293 251 293c146 0 199 -119 268 -119c46 0 66 44 69 106h201c0 -187 -117 -298 -251 -298zM736 -26c-384 0 -636 213 -636 539v930h424v-883c0 -151 75 -234 212 -234s212 82 212 234v883h444
c41 0 68 23 68 66v205h303v-290c0 -153 -95 -240 -252 -240h-139v-671c0 -326 -251 -539 -636 -539z" />
    <glyph glyph-name="V" unicode="V" horiz-adv-x="1486" 
d="M1018 0h-550l-438 1443h488l231 -1041h8l231 1041h468z" />
    <glyph glyph-name="Vtilde" unicode="&#x1e7c;" horiz-adv-x="1486" 
d="M1018 0h-550l-438 1443h488l231 -1041h8l231 1041h468zM896 1546c-146 0 -199 119 -268 119c-46 0 -66 -48 -69 -101h-201c0 187 117 293 251 293c146 0 199 -119 268 -119c46 0 66 44 69 106h201c0 -187 -117 -298 -251 -298z" />
    <glyph glyph-name="Vdotbelow" unicode="&#x1e7e;" horiz-adv-x="1486" 
d="M1018 0h-550l-438 1443h488l231 -1041h8l231 1041h468zM743 -524c-100 0 -177 80 -177 177s77 176 177 176s177 -79 177 -176s-77 -177 -177 -177z" />
    <glyph glyph-name="W" unicode="W" horiz-adv-x="2062" 
d="M1027 826l-215 -826h-400l-372 1443h438l166 -912h8l215 912h328l215 -912h8l166 912h438l-372 -1443h-400l-215 826h-8z" />
    <glyph glyph-name="Wgrave" unicode="&#x1e80;" horiz-adv-x="2062" 
d="M1027 826l-215 -826h-400l-372 1443h438l166 -912h8l215 912h328l215 -912h8l166 912h438l-372 -1443h-400l-215 826h-8zM885 1564l-274 321h348l232 -321h-306z" />
    <glyph glyph-name="Wacute" unicode="&#x1e82;" horiz-adv-x="2062" 
d="M1027 826l-215 -826h-400l-372 1443h438l166 -912h8l215 912h328l215 -912h8l166 912h438l-372 -1443h-400l-215 826h-8zM1171 1555h-306l232 321h348z" />
    <glyph glyph-name="Wdotaccent" unicode="&#x1e86;" horiz-adv-x="2062" 
d="M1027 826l-215 -826h-400l-372 1443h438l166 -912h8l215 912h328l215 -912h8l166 912h438l-372 -1443h-400l-215 826h-8zM1031 1536c-100 0 -177 80 -177 177s77 176 177 176s177 -79 177 -176s-77 -177 -177 -177z" />
    <glyph glyph-name="Wdotbelow" unicode="&#x1e88;" horiz-adv-x="2062" 
d="M1027 826l-215 -826h-400l-372 1443h438l166 -912h8l215 912h328l215 -912h8l166 912h438l-372 -1443h-400l-215 826h-8zM1031 -524c-100 0 -177 80 -177 177s77 176 177 176s177 -79 177 -176s-77 -177 -177 -177z" />
    <glyph glyph-name="Wdieresis" unicode="&#x1e84;" horiz-adv-x="2062" 
d="M1027 826l-215 -826h-400l-372 1443h438l166 -912h8l215 912h328l215 -912h8l166 912h438l-372 -1443h-400l-215 826h-8zM809 1536c-92 0 -158 68 -158 150c0 83 66 150 158 150s158 -67 158 -150c0 -82 -66 -150 -158 -150zM1253 1536c-92 0 -158 68 -158 150
c0 83 66 150 158 150s158 -67 158 -150c0 -82 -66 -150 -158 -150z" />
    <glyph glyph-name="Wcircumflex" unicode="&#x174;" horiz-adv-x="2062" 
d="M1027 826l-215 -826h-400l-372 1443h438l166 -912h8l215 912h328l215 -912h8l166 912h438l-372 -1443h-400l-215 826h-8zM874 1872h314l255 -336h-276l-132 192h-8l-132 -192h-276z" />
    <glyph glyph-name="X" unicode="X" horiz-adv-x="1507" 
d="M41 0l425 723v8l-426 712h494l227 -460h8l228 460h470l-447 -714v-8l445 -721h-472l-248 435h-9l-247 -435h-448z" />
    <glyph glyph-name="Xdotaccent" unicode="&#x1e8a;" horiz-adv-x="1507" 
d="M41 0l425 723v8l-426 712h494l227 -460h8l228 460h470l-447 -714v-8l445 -721h-472l-248 435h-9l-247 -435h-448zM754 1536c-100 0 -177 80 -177 177s77 176 177 176s177 -79 177 -176s-77 -177 -177 -177z" />
    <glyph glyph-name="Xdieresis" unicode="&#x1e8c;" horiz-adv-x="1507" 
d="M41 0l425 723v8l-426 712h494l227 -460h8l228 460h470l-447 -714v-8l445 -721h-472l-248 435h-9l-247 -435h-448zM532 1536c-92 0 -158 68 -158 150c0 83 66 150 158 150s158 -67 158 -150c0 -82 -66 -150 -158 -150zM976 1536c-92 0 -158 68 -158 150
c0 83 66 150 158 150s158 -67 158 -150c0 -82 -66 -150 -158 -150z" />
    <glyph glyph-name="Y" unicode="Y" horiz-adv-x="1470" 
d="M947 0h-424v457l-493 986h453l253 -585h8l253 585h443l-493 -986v-457z" />
    <glyph glyph-name="Ygrave" unicode="&#x1ef2;" horiz-adv-x="1470" 
d="M947 0h-424v457l-493 986h453l253 -585h8l253 585h443l-493 -986v-457zM589 1564l-274 321h348l232 -321h-306z" />
    <glyph glyph-name="Yacute" unicode="&#xdd;" horiz-adv-x="1470" 
d="M947 0h-424v457l-493 986h453l253 -585h8l253 585h443l-493 -986v-457zM875 1555h-306l232 321h348z" />
    <glyph glyph-name="Ydotaccent" unicode="&#x1e8e;" horiz-adv-x="1470" 
d="M947 0h-424v457l-493 986h453l253 -585h8l253 585h443l-493 -986v-457zM735 1536c-100 0 -177 80 -177 177s77 176 177 176s177 -79 177 -176s-77 -177 -177 -177z" />
    <glyph glyph-name="Ydotbelow" unicode="&#x1ef4;" horiz-adv-x="1470" 
d="M947 0h-424v457l-493 986h453l253 -585h8l253 585h443l-493 -986v-457zM735 -524c-100 0 -177 80 -177 177s77 176 177 176s177 -79 177 -176s-77 -177 -177 -177z" />
    <glyph glyph-name="Ydieresis" unicode="&#x178;" horiz-adv-x="1470" 
d="M947 0h-424v457l-493 986h453l253 -585h8l253 585h443l-493 -986v-457zM513 1536c-92 0 -158 68 -158 150c0 83 66 150 158 150s158 -67 158 -150c0 -82 -66 -150 -158 -150zM957 1536c-92 0 -158 68 -158 150c0 83 66 150 158 150s158 -67 158 -150
c0 -82 -66 -150 -158 -150z" />
    <glyph glyph-name="Ytilde" unicode="&#x1ef8;" horiz-adv-x="1470" 
d="M947 0h-424v457l-493 986h453l253 -585h8l253 585h443l-493 -986v-457zM888 1546c-146 0 -199 119 -268 119c-46 0 -66 -48 -69 -101h-201c0 187 117 293 251 293c146 0 199 -119 268 -119c46 0 66 44 69 106h201c0 -187 -117 -298 -251 -298z" />
    <glyph glyph-name="Ycircumflex" unicode="&#x176;" horiz-adv-x="1470" 
d="M947 0h-424v457l-493 986h453l253 -585h8l253 585h443l-493 -986v-457zM578 1872h314l255 -336h-276l-132 192h-8l-132 -192h-276z" />
    <glyph glyph-name="Ymacron" unicode="&#x232;" horiz-adv-x="1470" 
d="M947 0h-424v457l-493 986h453l253 -585h8l253 585h443l-493 -986v-457zM1109 1786v-180h-748v180h748z" />
    <glyph glyph-name="Yhookabove" unicode="&#x1ef6;" horiz-adv-x="1470" 
d="M947 0h-424v457l-493 986h453l253 -585h8l253 585h443l-493 -986v-457zM526 1807v167c36 18 101 29 165 29c172 0 277 -87 277 -231c0 -112 -91 -217 -216 -272l-111 133c60 23 102 70 102 114c0 49 -39 78 -106 78c-32 0 -83 -8 -111 -18z" />
    <glyph glyph-name="Z" unicode="Z" horiz-adv-x="1321" 
d="M80 0v266l643 832v8h-637v337h1131v-265l-641 -833v-8h665v-337h-1161z" />
    <glyph glyph-name="Zacute" unicode="&#x179;" horiz-adv-x="1321" 
d="M80 0v266l643 832v8h-637v337h1131v-265l-641 -833v-8h665v-337h-1161zM801 1555h-306l232 321h348z" />
    <glyph glyph-name="Zcaron" unicode="&#x17d;" horiz-adv-x="1321" 
d="M80 0v266l643 832v8h-637v337h1131v-265l-641 -833v-8h665v-337h-1161zM504 1536l-255 336h276l132 -192h8l132 192h276l-255 -336h-314z" />
    <glyph glyph-name="Zcircumflex" unicode="&#x1e90;" horiz-adv-x="1321" 
d="M80 0v266l643 832v8h-637v337h1131v-265l-641 -833v-8h665v-337h-1161zM504 1872h314l255 -336h-276l-132 192h-8l-132 -192h-276z" />
    <glyph glyph-name="Zlinebelow" unicode="&#x1e94;" horiz-adv-x="1321" 
d="M80 0v266l643 832v8h-637v337h1131v-265l-641 -833v-8h665v-337h-1161zM1035 -240v-180h-748v180h748z" />
    <glyph glyph-name="Zdotbelow" unicode="&#x1e92;" horiz-adv-x="1321" 
d="M80 0v266l643 832v8h-637v337h1131v-265l-641 -833v-8h665v-337h-1161zM661 -524c-100 0 -177 80 -177 177s77 176 177 176s177 -79 177 -176s-77 -177 -177 -177z" />
    <glyph glyph-name="Zdotaccent" unicode="&#x17b;" horiz-adv-x="1321" 
d="M80 0v266l643 832v8h-637v337h1131v-265l-641 -833v-8h665v-337h-1161zM661 1536c-100 0 -177 80 -177 177s77 176 177 176s177 -79 177 -176s-77 -177 -177 -177z" />
    <glyph glyph-name="AE" unicode="&#xc6;" horiz-adv-x="2104" 
d="M858 1129l-188 -543h300v543h-112zM970 0v286h-403l-99 -286h-418l540 1443h1395v-336h-643v-234h606v-304h-606v-233h643v-336h-1015z" />
    <glyph glyph-name="AEmacron" unicode="&#x1e2;" horiz-adv-x="2104" 
d="M858 1129l-188 -543h300v543h-112zM970 0v286h-403l-99 -286h-418l540 1443h1395v-336h-643v-234h606v-304h-606v-233h643v-336h-1015zM1871 1786v-180h-748v180h748z" />
    <glyph glyph-name="AEacute" unicode="&#x1fc;" horiz-adv-x="2104" 
d="M858 1129l-188 -543h300v543h-112zM970 0v286h-403l-99 -286h-418l540 1443h1395v-336h-643v-234h606v-304h-606v-233h643v-336h-1015zM1637 1555h-306l232 321h348z" />
    <glyph glyph-name="OE" unicode="&#x152;" horiz-adv-x="2216" 
d="M802 1136c-177 0 -295 -165 -295 -415s117 -414 295 -414s295 164 295 414s-118 415 -295 415zM1160 0v244c-43 -163 -242 -284 -454 -284c-358 0 -631 316 -631 761c0 447 275 762 638 762c207 0 379 -109 447 -294v254h958v-337h-594v-233h557v-304h-557v-232h594v-337
h-958z" />
    <glyph glyph-name="Eth" unicode="&#xd0;" horiz-adv-x="1503" 
d="M550 337h133c212 0 323 129 323 395c0 243 -120 374 -323 374h-133v-246h233v-279h-233v-244zM126 1443h617c438 0 695 -249 695 -711s-258 -732 -695 -732h-617v581h-66v279h66v583z" />
    <glyph glyph-name="Thorn" unicode="&#xde;" horiz-adv-x="1428" 
d="M142 1443h427v-204h242c324 0 527 -192 527 -500c0 -305 -215 -497 -556 -497h-216v-242h-424v1443zM566 919v-363h129c141 0 215 63 215 182c0 118 -74 181 -212 181h-132z" />
    <glyph glyph-name="Alphagreek" unicode="&#x391;" horiz-adv-x="1534" 
d="M1052 0l-75 287h-440l-75 -287h-432l471 1443h532l471 -1443h-452zM753 1110l-139 -524h286l-139 524h-8z" />
    <glyph glyph-name="Betagreek" unicode="&#x392;" horiz-adv-x="1382" 
d="M833 0h-733v1443h709c295 0 468 -135 468 -360c0 -166 -126 -291 -293 -312v-8c195 -5 358 -152 358 -343c0 -253 -200 -420 -509 -420zM524 1152v-287h164c109 0 177 57 177 144c0 89 -64 143 -171 143h-170zM524 291h181c131 0 206 59 206 168c0 103 -76 163 -203 163
h-184v-331z" />
    <glyph glyph-name="Gammagreek" unicode="&#x393;" horiz-adv-x="1144" 
d="M524 0h-424v1443h994v-337h-570v-1106z" />
    <glyph glyph-name="Deltagreek" unicode="&#x394;" horiz-adv-x="1490" 
d="M1440 0h-1390v217l429 1226h532l429 -1226v-217zM484 344v-8h479v8l-232 775h-8z" />
    <glyph glyph-name="Epsilongreek" unicode="&#x395;" horiz-adv-x="1216" 
d="M1118 337v-337h-1018v1443h1018v-337h-594v-233h557v-304h-557v-232h594z" />
    <glyph glyph-name="Zetagreek" unicode="&#x396;" horiz-adv-x="1321" 
d="M80 0v266l643 832v8h-637v337h1131v-265l-641 -833v-8h665v-337h-1161z" />
    <glyph glyph-name="Etagreek" unicode="&#x397;" horiz-adv-x="1556" 
d="M1456 0h-424v558h-508v-558h-424v1443h424v-548h508v548h424v-1443z" />
    <glyph glyph-name="Thetagreek" unicode="&#x398;" horiz-adv-x="1663" 
d="M1039 568h-418v294h418v-294zM832 1468c496 0 766 -295 766 -746c0 -453 -284 -747 -766 -747c-483 0 -767 294 -767 747c0 451 270 746 767 746zM832 1130c-219 0 -341 -149 -341 -408c0 -260 122 -409 341 -409c218 0 340 149 340 409c0 259 -122 408 -340 408z" />
    <glyph glyph-name="Iotagreek" unicode="&#x399;" horiz-adv-x="624" 
d="M524 0h-424v1443h424v-1443z" />
    <glyph glyph-name="Kappagreek" unicode="&#x39a;" horiz-adv-x="1445" 
d="M524 0h-424v1443h424v-612h8l446 612h445l-475 -641l497 -802h-493l-315 530l-113 -152v-378z" />
    <glyph glyph-name="Lambdagreek" unicode="&#x39b;" horiz-adv-x="1513" 
d="M1012 0l-259 1090h-8l-263 -1090h-452l461 1443h532l460 -1443h-471z" />
    <glyph glyph-name="Mugreek" unicode="&#x39c;" horiz-adv-x="1833" 
d="M1733 1443v-1443h-370v836h-8l-325 -819h-227l-325 819h-8v-836h-370v1443h490l323 -842h8l322 842h490z" />
    <glyph glyph-name="Nugreek" unicode="&#x39d;" horiz-adv-x="1494" 
d="M500 0h-400v1443h329l557 -748h8v748h400v-1443h-325l-561 760h-8v-760z" />
    <glyph glyph-name="Xigreek" unicode="&#x39e;" horiz-adv-x="1312" 
d="M98 1443h1116v-346h-1116v346zM1127 563h-942v314h942v-314zM98 346h1116v-346h-1116v346z" />
    <glyph glyph-name="Omicrongreek" unicode="&#x39f;" horiz-adv-x="1584" 
d="M792 1468c446 0 727 -286 727 -747s-281 -746 -727 -746c-447 0 -727 285 -727 746s281 747 727 747zM792 1130c-177 0 -295 -159 -295 -409c0 -249 117 -408 295 -408s295 159 295 408c0 250 -118 409 -295 409z" />
    <glyph glyph-name="Pigreek" unicode="&#x3a0;" horiz-adv-x="1536" 
d="M1436 0h-424v1107h-488v-1107h-424v1443h1336v-1443z" />
    <glyph glyph-name="Rhogreek" unicode="&#x3a1;" horiz-adv-x="1346" 
d="M100 1443h659c321 0 537 -205 537 -526c0 -318 -229 -523 -566 -523h-206v-394h-424v1443zM524 1124v-417h119c141 0 225 71 225 209c0 137 -84 208 -222 208h-122z" />
    <glyph glyph-name="Sigmagreek" unicode="&#x3a3;" horiz-adv-x="1300" 
d="M601 345v-8h619v-337h-1140v239l345 483l-321 436v285h1093v-337h-561v-8l251 -363v-8z" />
    <glyph glyph-name="Taugreek" unicode="&#x3a4;" horiz-adv-x="1274" 
d="M849 0h-424v1106h-380v337h1184v-337h-380v-1106z" />
    <glyph glyph-name="Upsilongreek" unicode="&#x3a5;" horiz-adv-x="1470" 
d="M947 0h-424v457l-493 986h453l253 -585h8l253 585h443l-493 -986v-457z" />
    <glyph glyph-name="Phigreek" unicode="&#x3a6;" horiz-adv-x="1946" 
d="M1488 710c0 222 -119 361 -328 388v-776c209 27 328 166 328 388zM458 710c0 -222 119 -361 328 -388v776c-209 -27 -328 -166 -328 -388zM1160 -153h-374v158c-429 21 -736 305 -736 705s307 684 736 705v158h374v-158c429 -21 736 -305 736 -705s-307 -684 -736 -705
v-158z" />
    <glyph glyph-name="Chigreek" unicode="&#x3a7;" horiz-adv-x="1507" 
d="M41 0l425 723v8l-426 712h494l227 -460h8l228 460h470l-447 -714v-8l445 -721h-472l-248 435h-9l-247 -435h-448z" />
    <glyph glyph-name="Psigreek" unicode="&#x3a8;" horiz-adv-x="1790" 
d="M1092 0h-394v279c-393 12 -618 249 -618 629v535h394v-546c0 -174 67 -270 224 -293v839h394v-839c157 23 224 119 224 293v546h394v-535c0 -380 -225 -617 -618 -629v-279z" />
    <glyph glyph-name="Omegagreek" unicode="&#x3a9;" horiz-adv-x="1604" 
d="M1117 782c0 224 -132 348 -315 348s-315 -124 -315 -348c0 -195 79 -309 206 -378v-404h-628v316h273v8c-158 81 -273 262 -273 498c0 386 300 646 737 646s737 -260 737 -646c0 -236 -115 -417 -273 -498v-8h273v-316h-628v404c127 69 206 183 206 378z" />
    <glyph glyph-name="Alphatonosgreek" unicode="&#x386;" horiz-adv-x="1710" 
d="M1228 0l-75 287h-440l-75 -287h-432l471 1443h532l471 -1443h-452zM929 1110l-139 -524h286l-139 524h-8zM372 1102h-300l74 341h392z" />
    <glyph glyph-name="Epsilontonosgreek" unicode="&#x388;" horiz-adv-x="1731" 
d="M1633 337v-337h-1018v1443h1018v-337h-594v-233h557v-304h-557v-232h594zM320 1102h-300l74 341h392z" />
    <glyph glyph-name="Etatonosgreek" unicode="&#x389;" horiz-adv-x="2071" 
d="M1971 0h-424v558h-508v-558h-424v1443h424v-548h508v548h424v-1443zM320 1102h-300l74 341h392z" />
    <glyph glyph-name="Iotatonosgreek" unicode="&#x38a;" horiz-adv-x="1139" 
d="M1039 0h-424v1443h424v-1443zM320 1102h-300l74 341h392z" />
    <glyph glyph-name="Iotadieresisgreek" unicode="&#x3aa;" horiz-adv-x="624" 
d="M524 0h-424v1443h424v-1443zM90 1536c-92 0 -158 68 -158 150c0 83 66 150 158 150s158 -67 158 -150c0 -82 -66 -150 -158 -150zM534 1536c-92 0 -158 68 -158 150c0 83 66 150 158 150s158 -67 158 -150c0 -82 -66 -150 -158 -150z" />
    <glyph glyph-name="Omicrontonosgreek" unicode="&#x38c;" horiz-adv-x="1909" 
d="M1117 1468c446 0 727 -286 727 -747s-281 -746 -727 -746c-447 0 -727 285 -727 746s281 747 727 747zM1117 1130c-177 0 -295 -159 -295 -409c0 -249 117 -408 295 -408s295 159 295 408c0 250 -118 409 -295 409zM320 1102h-300l74 341h392z" />
    <glyph glyph-name="Upsilontonosgreek" unicode="&#x38e;" horiz-adv-x="1994" 
d="M1471 0h-424v457l-493 986h453l253 -585h8l253 585h443l-493 -986v-457zM320 1102h-300l74 341h392z" />
    <glyph glyph-name="Upsilondieresisgreek" unicode="&#x3ab;" horiz-adv-x="1470" 
d="M947 0h-424v457l-493 986h453l253 -585h8l253 585h443l-493 -986v-457zM513 1536c-92 0 -158 68 -158 150c0 83 66 150 158 150s158 -67 158 -150c0 -82 -66 -150 -158 -150zM957 1536c-92 0 -158 68 -158 150c0 83 66 150 158 150s158 -67 158 -150
c0 -82 -66 -150 -158 -150z" />
    <glyph glyph-name="Omegatonosgreek" unicode="&#x38f;" horiz-adv-x="1944" 
d="M1457 782c0 224 -132 348 -315 348s-315 -124 -315 -348c0 -195 79 -309 206 -378v-404h-628v316h273v8c-158 81 -273 262 -273 498c0 386 300 646 737 646s737 -260 737 -646c0 -236 -115 -417 -273 -498v-8h273v-316h-628v404c127 69 206 183 206 378zM320 1102h-300
l74 341h392z" />
    <glyph glyph-name="Acyrillic" unicode="&#x410;" horiz-adv-x="1554" 
d="M1062 0l-75 287h-440l-75 -287h-432l471 1443h532l471 -1443h-452zM763 1110l-139 -524h286l-139 524h-8z" />
    <glyph glyph-name="Becyrillic" unicode="&#x411;" horiz-adv-x="1356" 
d="M1306 476c0 -291 -216 -476 -537 -476h-659v1443h1074v-336h-650v-173h216c331 0 556 -179 556 -458zM534 320h132c129 0 208 53 208 157c0 105 -79 158 -211 158h-129v-315z" />
    <glyph glyph-name="Vecyrillic" unicode="&#x412;" horiz-adv-x="1402" 
d="M843 0h-733v1443h709c295 0 468 -135 468 -360c0 -166 -126 -291 -293 -312v-8c195 -5 358 -152 358 -343c0 -253 -200 -420 -509 -420zM534 1152v-287h164c109 0 177 57 177 144c0 89 -64 143 -171 143h-170zM534 291h181c131 0 206 59 206 168c0 103 -76 163 -203 163
h-184v-331z" />
    <glyph glyph-name="Gecyrillic" unicode="&#x413;" horiz-adv-x="1174" 
d="M534 0h-424v1443h1004v-336h-580v-1107z" />
    <glyph glyph-name="Decyrillic" unicode="&#x414;" horiz-adv-x="1642" 
d="M630 679c-11 -158 -33 -269 -91 -334v-8h479v771h-359zM400 0v-285h-380v622h95c96 83 115 181 128 383l45 723h1154v-1106h180v-622h-380v285h-842z" />
    <glyph glyph-name="Iecyrillic" unicode="&#x415;" horiz-adv-x="1238" 
d="M1128 337v-337h-1018v1443h1018v-337h-594v-233h557v-304h-557v-232h594z" />
    <glyph glyph-name="Iocyrillic" unicode="&#x401;" horiz-adv-x="1238" 
d="M1128 337v-337h-1018v1443h1018v-337h-594v-233h557v-304h-557v-232h594zM396 1536c-92 0 -158 68 -158 150c0 83 66 150 158 150s158 -67 158 -150c0 -82 -66 -150 -158 -150zM840 1536c-92 0 -158 68 -158 150c0 83 66 150 158 150s158 -67 158 -150
c0 -82 -66 -150 -158 -150z" />
    <glyph glyph-name="Zhecyrillic" unicode="&#x416;" horiz-adv-x="2161" 
d="M1636 765l510 -765h-497l-359 567h-8v-567h-408v567h-8l-359 -567h-492l505 757l-493 686h455l384 -558h8v558h408v-558h8l384 558h450z" />
    <glyph glyph-name="Zecyrillic" unicode="&#x417;" horiz-adv-x="1385" 
d="M498 582v310h187c114 0 186 53 186 140c0 88 -72 141 -191 141c-120 0 -201 -69 -201 -170h-383c2 293 233 480 593 480c348 0 576 -157 576 -396c0 -167 -111 -296 -276 -325v-8c198 -19 326 -155 326 -346c0 -267 -257 -448 -637 -448c-356 0 -595 190 -608 484h404
c2 -97 83 -156 213 -156c116 0 193 63 193 156c0 87 -74 138 -197 138h-185z" />
    <glyph glyph-name="Iicyrillic" unicode="&#x418;" horiz-adv-x="1586" 
d="M1052 0v803h-8l-530 -803h-404v1443h424v-803h8l530 803h404v-1443h-424z" />
    <glyph glyph-name="Iishortcyrillic" unicode="&#x419;" horiz-adv-x="1586" 
d="M1052 0v803h-8l-530 -803h-404v1443h424v-803h8l530 803h404v-1443h-424zM422 1827h229c3 -90 64 -136 154 -136s151 46 154 136h229c0 -200 -155 -321 -383 -321s-383 121 -383 321z" />
    <glyph glyph-name="Kacyrillic" unicode="&#x41a;" horiz-adv-x="1485" 
d="M903 766l567 -766h-507l-421 567h-8v-567h-424v1443h424v-558h8l446 558h455z" />
    <glyph glyph-name="Elcyrillic" unicode="&#x41b;" horiz-adv-x="1546" 
d="M1436 0h-424v1107h-314l-24 -507c-17 -363 -144 -616 -487 -616c-71 0 -126 10 -147 16v367c17 -3 44 -9 80 -9c131 0 161 120 168 275l34 810h1114v-1443z" />
    <glyph glyph-name="Emcyrillic" unicode="&#x41c;" horiz-adv-x="1853" 
d="M1743 1443v-1443h-370v836h-8l-325 -819h-227l-325 819h-8v-836h-370v1443h490l323 -842h8l322 842h490z" />
    <glyph glyph-name="Encyrillic" unicode="&#x41d;" horiz-adv-x="1576" 
d="M1466 0h-424v558h-508v-558h-424v1443h424v-548h508v548h424v-1443z" />
    <glyph glyph-name="Ocyrillic" unicode="&#x41e;" horiz-adv-x="1604" 
d="M802 1468c446 0 727 -286 727 -747s-281 -746 -727 -746c-447 0 -727 285 -727 746s281 747 727 747zM802 1130c-177 0 -295 -159 -295 -409c0 -249 117 -408 295 -408s295 159 295 408c0 250 -118 409 -295 409z" />
    <glyph glyph-name="Pecyrillic" unicode="&#x41f;" horiz-adv-x="1566" 
d="M1456 0h-424v1107h-498v-1107h-424v1443h1346v-1443z" />
    <glyph glyph-name="Ercyrillic" unicode="&#x420;" horiz-adv-x="1388" 
d="M110 1443h659c321 0 537 -205 537 -526c0 -318 -229 -523 -566 -523h-206v-394h-424v1443zM534 1124v-417h119c141 0 225 71 225 209c0 137 -84 208 -222 208h-122z" />
    <glyph glyph-name="Escyrillic" unicode="&#x421;" horiz-adv-x="1532" 
d="M791 -40c-442 0 -716 286 -716 762s275 761 716 761c366 0 646 -243 669 -580h-410c-24 141 -125 232 -259 232c-174 0 -284 -154 -284 -412c0 -261 109 -415 285 -415c134 0 234 90 260 234h410c-22 -343 -296 -582 -671 -582z" />
    <glyph glyph-name="Tecyrillic" unicode="&#x422;" horiz-adv-x="1325" 
d="M859 0h-424v1106h-380v337h1184v-337h-380v-1106z" />
    <glyph glyph-name="Ucyrillic" unicode="&#x423;" horiz-adv-x="1451" 
d="M407 -16c-91 0 -169 16 -169 16v330s24 -10 96 -10c68 0 127 8 171 60l-465 1063h449l243 -669h8l222 669h449l-442 -1030c-115 -267 -260 -429 -562 -429z" />
    <glyph glyph-name="Efcyrillic" unicode="&#x424;" horiz-adv-x="1928" 
d="M763 441v561c-161 -10 -273 -112 -273 -280c0 -169 112 -271 273 -281zM1438 721c0 169 -112 271 -273 281v-561c161 10 273 112 273 280zM756 117c-411 15 -691 228 -691 605c0 375 282 589 691 604v157h416v-157c411 -15 691 -228 691 -605c0 -375 -282 -589 -691 -604
v-157h-416v157z" />
    <glyph glyph-name="Xacyrillic" unicode="&#x425;" horiz-adv-x="1527" 
d="M51 0l425 723v8l-426 712h494l227 -460h8l228 460h470l-447 -714v-8l445 -721h-472l-248 435h-9l-247 -435h-448z" />
    <glyph glyph-name="Tsecyrillic" unicode="&#x426;" horiz-adv-x="1656" 
d="M1636 -285h-380v285h-1146v1443h424v-1107h498v1107h424v-1107h180v-621z" />
    <glyph glyph-name="Checyrillic" unicode="&#x427;" horiz-adv-x="1536" 
d="M1426 0h-424v557h-8c-84 -61 -203 -97 -340 -97c-318 0 -534 210 -534 539v444h424v-397c0 -152 81 -234 230 -234c110 0 188 40 228 115v516h424v-1443z" />
    <glyph glyph-name="Shacyrillic" unicode="&#x428;" horiz-adv-x="2088" 
d="M110 0v1443h424v-1107h298v1107h424v-1107h298v1107h424v-1443h-1868z" />
    <glyph glyph-name="Shchacyrillic" unicode="&#x429;" horiz-adv-x="2178" 
d="M2158 -285h-380v285h-1668v1443h424v-1107h298v1107h424v-1107h298v1107h424v-1107h180v-621z" />
    <glyph glyph-name="Hardsigncyrillic" unicode="&#x42a;" horiz-adv-x="1656" 
d="M1059 0h-659v1108h-340v335h764v-434h206c337 0 566 -197 566 -503c0 -309 -216 -506 -537 -506zM824 320h122c136 0 218 63 218 187c0 125 -83 188 -221 188h-119v-375z" />
    <glyph glyph-name="Yericyrillic" unicode="&#x42b;" horiz-adv-x="1964" 
d="M110 0v1443h424v-434h206c337 0 566 -197 566 -503c0 -309 -216 -506 -537 -506h-659zM534 320h122c136 0 218 63 218 187c0 125 -83 188 -221 188h-119v-375zM1854 0h-424v1443h424v-1443z" />
    <glyph glyph-name="Softsigncyrillic" unicode="&#x42c;" horiz-adv-x="1366" 
d="M110 0v1443h424v-434h206c337 0 566 -197 566 -503c0 -309 -216 -506 -537 -506h-659zM534 320h122c136 0 218 63 218 187c0 125 -83 188 -221 188h-119v-375z" />
    <glyph glyph-name="Ereversedcyrillic" unicode="&#x42d;" horiz-adv-x="1532" 
d="M747 -40c-378 0 -655 239 -677 582h410c26 -144 129 -234 266 -234c136 0 250 96 271 264h-494v306h492c-22 163 -135 257 -268 257c-137 0 -241 -91 -265 -232h-410c23 337 306 580 675 580c437 0 710 -285 710 -761s-272 -762 -710 -762z" />
    <glyph glyph-name="IUcyrillic" unicode="&#x42e;" horiz-adv-x="2186" 
d="M1395 -40c-384 0 -647 223 -705 599h-156v-559h-424v1443h424v-548h158c61 368 324 588 703 588c435 0 716 -290 716 -761c0 -473 -281 -762 -716 -762zM1393 1137c-169 0 -287 -162 -287 -415c0 -254 118 -416 287 -416c168 0 286 162 286 416c0 253 -118 415 -286 415z
" />
    <glyph glyph-name="IAcyrillic" unicode="&#x42f;" horiz-adv-x="1450" 
d="M921 774v356h-181c-114 0 -191 -72 -191 -179c0 -109 73 -177 192 -177h180zM797 487l-288 -487h-454l345 548c-167 69 -284 214 -284 405c0 295 214 490 586 490h638v-1443h-419v487h-124z" />
    <glyph glyph-name="Djecyrillic" unicode="&#x402;" horiz-adv-x="1809" 
d="M1152 -118c-104 0 -162 17 -162 17v312s34 -9 109 -9c125 0 204 63 204 180c0 108 -75 172 -204 172c-109 0 -190 -46 -229 -115v-439h-424v1107h-381v336h1186v-336h-381v-298h8c80 62 187 97 330 97c352 0 521 -219 521 -490c0 -317 -211 -534 -577 -534z" />
    <glyph glyph-name="Gjecyrillic" unicode="&#x403;" horiz-adv-x="1174" 
d="M534 0h-424v1443h1004v-336h-580v-1107zM793 1525h-306l232 321h348z" />
    <glyph glyph-name="Ecyrillic" unicode="&#x404;" horiz-adv-x="1532" 
d="M1462 542c-22 -343 -296 -582 -671 -582c-442 0 -716 286 -716 762s275 761 716 761c366 0 646 -243 669 -580h-410c-24 141 -125 232 -259 232c-136 0 -248 -94 -274 -257h492v-306h-494c25 -168 138 -264 277 -264c134 0 234 90 260 234h410z" />
    <glyph glyph-name="Dzecyrillic" unicode="&#x405;" horiz-adv-x="1392" 
d="M70 425h401c12 -82 112 -136 226 -136c127 0 205 51 205 121c0 67 -53 96 -208 124l-191 34c-265 46 -409 198 -409 424c0 292 250 476 594 476c384 0 599 -176 601 -456h-387c-3 90 -92 143 -206 143c-111 0 -181 -46 -181 -118c0 -69 59 -105 196 -129l198 -34
c280 -49 411 -182 411 -416c0 -295 -247 -483 -631 -483c-387 0 -618 162 -619 450z" />
    <glyph glyph-name="Icyrillic" unicode="&#x406;" horiz-adv-x="644" 
d="M534 0h-424v1443h424v-1443z" />
    <glyph glyph-name="Yicyrillic" unicode="&#x407;" horiz-adv-x="644" 
d="M534 0h-424v1443h424v-1443zM100 1536c-92 0 -158 68 -158 150c0 83 66 150 158 150s158 -67 158 -150c0 -82 -66 -150 -158 -150zM544 1536c-92 0 -158 68 -158 150c0 83 66 150 158 150s158 -67 158 -150c0 -82 -66 -150 -158 -150z" />
    <glyph glyph-name="Jecyrillic" unicode="&#x408;" horiz-adv-x="1291" 
d="M30 511h406c0 -113 59 -181 156 -181c93 0 143 60 143 174v939h424v-942c0 -339 -210 -526 -561 -526c-350 0 -568 202 -568 536z" />
    <glyph glyph-name="Ljecyrillic" unicode="&#x409;" horiz-adv-x="2298" 
d="M704 600c-17 -363 -144 -616 -487 -616c-71 0 -126 10 -147 16v367c17 -3 44 -9 80 -9c131 0 161 120 168 275l34 810h1114v-434h206c337 0 566 -197 566 -503c0 -309 -216 -506 -537 -506h-659v1107h-314zM1466 320h122c136 0 218 63 218 187c0 125 -83 188 -221 188
h-119v-375z" />
    <glyph glyph-name="Njecyrillic" unicode="&#x40a;" horiz-adv-x="2278" 
d="M1446 320h152c125 0 195 52 195 145c0 90 -71 141 -198 141h-149v-286zM534 589v-589h-424v1443h424v-528h488v528h424v-528h206c341 0 566 -180 566 -454c0 -279 -212 -461 -537 -461h-659v589h-488z" />
    <glyph glyph-name="Tshecyrillic" unicode="&#x40b;" horiz-adv-x="1809" 
d="M1088 554c-110 0 -178 -52 -218 -115v-439h-424v1107h-381v336h1186v-336h-381v-298h8c78 61 178 97 315 97c342 0 506 -225 506 -539v-367h-424v342c0 132 -67 212 -187 212z" />
    <glyph glyph-name="Kjecyrillic" unicode="&#x40c;" horiz-adv-x="1487" 
d="M1197 1846l-274 -321h-306l232 321h348zM903 766l567 -766h-507l-421 567h-8v-567h-424v1443h424v-558h8l446 558h455z" />
    <glyph glyph-name="Ushortcyrillic" unicode="&#x40e;" horiz-adv-x="1451" 
d="M407 -16c-91 0 -169 16 -169 16v330s24 -10 96 -10c68 0 127 8 171 60l-465 1063h449l243 -669h8l222 669h449l-442 -1030c-115 -267 -260 -429 -562 -429zM352 1827h229c3 -90 64 -136 154 -136s151 46 154 136h229c0 -200 -155 -321 -383 -321s-383 121 -383 321z" />
    <glyph glyph-name="Dzhecyrillic" unicode="&#x40f;" horiz-adv-x="1566" 
d="M583 0h-473v1443h424v-1107h498v1107h424v-1443h-473v-285h-400v285z" />
    <glyph glyph-name="Geupturncyrillic" unicode="&#x490;" horiz-adv-x="1174" 
d="M534 1107v-1107h-424v1443h604v285h400v-621h-580z" />
    <glyph glyph-name="a" unicode="a" horiz-adv-x="1231" 
d="M569 259c95 0 182 54 182 139v74l-181 -13c-82 -6 -128 -44 -128 -101c0 -62 51 -99 127 -99zM417 -16c-206 0 -379 140 -379 343c0 215 165 332 465 350l248 15v57c0 77 -58 119 -139 119c-87 0 -143 -48 -150 -106h-366c10 238 213 390 538 390
c310 0 517 -155 517 -383v-769h-400v152h-8c-59 -110 -195 -168 -326 -168z" />
    <glyph glyph-name="agrave" unicode="&#xe0;" horiz-adv-x="1231" 
d="M569 259c95 0 182 54 182 139v74l-181 -13c-82 -6 -128 -44 -128 -101c0 -62 51 -99 127 -99zM417 -16c-206 0 -379 140 -379 343c0 215 165 332 465 350l248 15v57c0 77 -58 119 -139 119c-87 0 -143 -48 -150 -106h-366c10 238 213 390 538 390
c310 0 517 -155 517 -383v-769h-400v152h-8c-59 -110 -195 -168 -326 -168zM804 1275h-314l-265 321h347z" />
    <glyph glyph-name="aacute" unicode="&#xe1;" horiz-adv-x="1231" 
d="M569 259c95 0 182 54 182 139v74l-181 -13c-82 -6 -128 -44 -128 -101c0 -62 51 -99 127 -99zM417 -16c-206 0 -379 140 -379 343c0 215 165 332 465 350l248 15v57c0 77 -58 119 -139 119c-87 0 -143 -48 -150 -106h-366c10 238 213 390 538 390
c310 0 517 -155 517 -383v-769h-400v152h-8c-59 -110 -195 -168 -326 -168zM779 1275h-314l232 321h347z" />
    <glyph glyph-name="adieresis" unicode="&#xe4;" horiz-adv-x="1231" 
d="M569 259c95 0 182 54 182 139v74l-181 -13c-82 -6 -128 -44 -128 -101c0 -62 51 -99 127 -99zM417 -16c-206 0 -379 140 -379 343c0 215 165 332 465 350l248 15v57c0 77 -58 119 -139 119c-87 0 -143 -48 -150 -106h-366c10 238 213 390 538 390
c310 0 517 -155 517 -383v-769h-400v152h-8c-59 -110 -195 -168 -326 -168zM408 1256c-92 0 -158 68 -158 150c0 83 66 150 158 150s158 -67 158 -150c0 -82 -66 -150 -158 -150zM852 1256c-92 0 -158 68 -158 150c0 83 66 150 158 150s158 -67 158 -150
c0 -82 -66 -150 -158 -150z" />
    <glyph glyph-name="adieresismacron" unicode="&#x1df;" horiz-adv-x="1231" 
d="M569 259c95 0 182 54 182 139v74l-181 -13c-82 -6 -128 -44 -128 -101c0 -62 51 -99 127 -99zM417 -16c-206 0 -379 140 -379 343c0 215 165 332 465 350l248 15v57c0 77 -58 119 -139 119c-87 0 -143 -48 -150 -106h-366c10 238 213 390 538 390
c310 0 517 -155 517 -383v-769h-400v152h-8c-59 -110 -195 -168 -326 -168zM421 1255c-86 0 -149 64 -149 141c0 78 63 141 149 141s149 -63 149 -141c0 -77 -63 -141 -149 -141zM839 1255c-86 0 -149 64 -149 141c0 78 63 141 149 141s149 -63 149 -141
c0 -77 -63 -141 -149 -141zM982 1840v-180h-704v180h704z" />
    <glyph glyph-name="aring" unicode="&#xe5;" horiz-adv-x="1231" 
d="M569 259c95 0 182 54 182 139v74l-181 -13c-82 -6 -128 -44 -128 -101c0 -62 51 -99 127 -99zM417 -16c-206 0 -379 140 -379 343c0 215 165 332 465 350l248 15v57c0 77 -58 119 -139 119c-87 0 -143 -48 -150 -106h-366c10 238 213 390 538 390
c310 0 517 -155 517 -383v-769h-400v152h-8c-59 -110 -195 -168 -326 -168zM630 1235c-132 0 -244 106 -244 235c0 130 112 236 244 236s243 -106 243 -236c0 -129 -111 -235 -243 -235zM630 1386c47 0 88 38 88 84c0 47 -41 86 -88 86s-88 -39 -88 -86c0 -46 41 -84 88 -84
z" />
    <glyph glyph-name="aringacute" unicode="&#x1fb;" horiz-adv-x="1231" 
d="M569 259c95 0 182 54 182 139v74l-181 -13c-82 -6 -128 -44 -128 -101c0 -62 51 -99 127 -99zM417 -16c-206 0 -379 140 -379 343c0 215 165 332 465 350l248 15v57c0 77 -58 119 -139 119c-87 0 -143 -48 -150 -106h-366c10 238 213 390 538 390
c310 0 517 -155 517 -383v-769h-400v152h-8c-59 -110 -195 -168 -326 -168zM633 1236c-139 0 -237 95 -237 227c0 133 98 228 237 228s237 -95 237 -228c0 -132 -98 -227 -237 -227zM555 1463c0 -45 33 -77 78 -77s78 32 78 77c0 46 -33 78 -78 78s-78 -32 -78 -78z
M514 1771l144 230h314l-190 -230h-268z" />
    <glyph glyph-name="atilde" unicode="&#xe3;" horiz-adv-x="1231" 
d="M569 259c95 0 182 54 182 139v74l-181 -13c-82 -6 -128 -44 -128 -101c0 -62 51 -99 127 -99zM417 -16c-206 0 -379 140 -379 343c0 215 165 332 465 350l248 15v57c0 77 -58 119 -139 119c-87 0 -143 -48 -150 -106h-366c10 238 213 390 538 390
c310 0 517 -155 517 -383v-769h-400v152h-8c-59 -110 -195 -168 -326 -168zM783 1258c-146 0 -199 119 -268 119c-46 0 -66 -48 -69 -101h-201c0 187 117 293 251 293c146 0 199 -119 268 -119c46 0 66 44 69 106h201c0 -187 -117 -298 -251 -298z" />
    <glyph glyph-name="abrevegrave" unicode="&#x1eb1;" horiz-adv-x="1231" 
d="M569 259c95 0 182 54 182 139v74l-181 -13c-82 -6 -128 -44 -128 -101c0 -62 51 -99 127 -99zM417 -16c-206 0 -379 140 -379 343c0 215 165 332 465 350l248 15v57c0 77 -58 119 -139 119c-87 0 -143 -48 -150 -106h-366c10 238 213 390 538 390
c310 0 517 -155 517 -383v-769h-400v152h-8c-59 -110 -195 -168 -326 -168zM763 1642h-242l-243 268h313zM1025 1590c-6 -180 -143 -334 -395 -334s-389 154 -395 334h236c4 -86 59 -148 159 -148s155 62 159 148h236z" />
    <glyph glyph-name="adotmacron" unicode="&#x1e1;" horiz-adv-x="1231" 
d="M569 259c95 0 182 54 182 139v74l-181 -13c-82 -6 -128 -44 -128 -101c0 -62 51 -99 127 -99zM417 -16c-206 0 -379 140 -379 343c0 215 165 332 465 350l248 15v57c0 77 -58 119 -139 119c-87 0 -143 -48 -150 -106h-366c10 238 213 390 538 390
c310 0 517 -155 517 -383v-769h-400v152h-8c-59 -110 -195 -168 -326 -168zM630 1242c-100 0 -177 78 -177 173s77 173 177 173s177 -78 177 -173s-77 -173 -177 -173zM982 1850v-180h-704v180h704z" />
    <glyph glyph-name="aringbelow" unicode="&#x1e01;" horiz-adv-x="1231" 
d="M569 259c95 0 182 54 182 139v74l-181 -13c-82 -6 -128 -44 -128 -101c0 -62 51 -99 127 -99zM417 -16c-206 0 -379 140 -379 343c0 215 165 332 465 350l248 15v57c0 77 -58 119 -139 119c-87 0 -143 -48 -150 -106h-366c10 238 213 390 538 390
c310 0 517 -155 517 -383v-769h-400v152h-8c-59 -110 -195 -168 -326 -168zM621 -603c-132 0 -244 106 -244 235c0 130 112 236 244 236s243 -106 243 -236c0 -129 -111 -235 -243 -235zM621 -452c47 0 88 38 88 84c0 47 -41 86 -88 86s-88 -39 -88 -86c0 -46 41 -84 88 -84
z" />
    <glyph glyph-name="acircumflex" unicode="&#xe2;" horiz-adv-x="1231" 
d="M569 259c95 0 182 54 182 139v74l-181 -13c-82 -6 -128 -44 -128 -101c0 -62 51 -99 127 -99zM417 -16c-206 0 -379 140 -379 343c0 215 165 332 465 350l248 15v57c0 77 -58 119 -139 119c-87 0 -143 -48 -150 -106h-366c10 238 213 390 538 390
c310 0 517 -155 517 -383v-769h-400v152h-8c-59 -110 -195 -168 -326 -168zM787 1592l255 -336h-284l-124 180h-8l-124 -180h-284l255 336h314z" />
    <glyph glyph-name="acircumflexdotbelow" unicode="&#x1ead;" horiz-adv-x="1231" 
d="M569 259c95 0 182 54 182 139v74l-181 -13c-82 -6 -128 -44 -128 -101c0 -62 51 -99 127 -99zM417 -16c-206 0 -379 140 -379 343c0 215 165 332 465 350l248 15v57c0 77 -58 119 -139 119c-87 0 -143 -48 -150 -106h-366c10 238 213 390 538 390
c310 0 517 -155 517 -383v-769h-400v152h-8c-59 -110 -195 -168 -326 -168zM787 1592l255 -336h-284l-124 180h-8l-124 -180h-284l255 336h314zM621 -524c-100 0 -177 80 -177 177s77 176 177 176s177 -79 177 -176s-77 -177 -177 -177z" />
    <glyph glyph-name="acircumflexacute" unicode="&#x1ea5;" horiz-adv-x="1231" 
d="M569 259c95 0 182 54 182 139v74l-181 -13c-82 -6 -128 -44 -128 -101c0 -62 51 -99 127 -99zM417 -16c-206 0 -379 140 -379 343c0 215 165 332 465 350l248 15v57c0 77 -58 119 -139 119c-87 0 -143 -48 -150 -106h-366c10 238 213 390 538 390
c310 0 517 -155 517 -383v-769h-400v152h-8c-59 -110 -195 -168 -326 -168zM787 1592l255 -336h-284l-124 180h-8l-124 -180h-284l255 336h314zM764 1651l202 281h322l-238 -281h-286z" />
    <glyph glyph-name="acircumflextilde" unicode="&#x1eab;" horiz-adv-x="1231" 
d="M569 259c95 0 182 54 182 139v74l-181 -13c-82 -6 -128 -44 -128 -101c0 -62 51 -99 127 -99zM417 -16c-206 0 -379 140 -379 343c0 215 165 332 465 350l248 15v57c0 77 -58 119 -139 119c-87 0 -143 -48 -150 -106h-366c10 238 213 390 538 390
c310 0 517 -155 517 -383v-769h-400v152h-8c-59 -110 -195 -168 -326 -168zM787 1572l255 -316h-284l-124 164h-8l-124 -164h-284l255 316h314zM773 1639c-146 0 -198 119 -267 119c-46 0 -66 -48 -69 -101h-201c0 187 117 293 251 293c146 0 198 -119 267 -119
c46 0 66 44 69 106h201c0 -187 -117 -298 -251 -298z" />
    <glyph glyph-name="acircumflexgrave" unicode="&#x1ea7;" horiz-adv-x="1231" 
d="M569 259c95 0 182 54 182 139v74l-181 -13c-82 -6 -128 -44 -128 -101c0 -62 51 -99 127 -99zM417 -16c-206 0 -379 140 -379 343c0 215 165 332 465 350l248 15v57c0 77 -58 119 -139 119c-87 0 -143 -48 -150 -106h-366c10 238 213 390 538 390
c310 0 517 -155 517 -383v-769h-400v152h-8c-59 -110 -195 -168 -326 -168zM787 1592l255 -336h-284l-124 180h-8l-124 -180h-284l255 336h314zM1128 1651h-286l-238 281h322z" />
    <glyph glyph-name="acircumflexhookabove" unicode="&#x1ea9;" horiz-adv-x="1231" 
d="M569 259c95 0 182 54 182 139v74l-181 -13c-82 -6 -128 -44 -128 -101c0 -62 51 -99 127 -99zM417 -16c-206 0 -379 140 -379 343c0 215 165 332 465 350l248 15v57c0 77 -58 119 -139 119c-87 0 -143 -48 -150 -106h-366c10 238 213 390 538 390
c310 0 517 -155 517 -383v-769h-400v152h-8c-59 -110 -195 -168 -326 -168zM778 1772v164c34 12 82 20 130 20c166 0 269 -83 269 -216c0 -120 -63 -205 -194 -259l-106 121c59 25 89 68 89 109c0 47 -38 74 -102 74c-32 0 -63 -4 -86 -13zM787 1592l255 -336h-284l-124 180
h-8l-124 -180h-284l255 336h314z" />
    <glyph glyph-name="abreve" unicode="&#x103;" horiz-adv-x="1231" 
d="M569 259c95 0 182 54 182 139v74l-181 -13c-82 -6 -128 -44 -128 -101c0 -62 51 -99 127 -99zM417 -16c-206 0 -379 140 -379 343c0 215 165 332 465 350l248 15v57c0 77 -58 119 -139 119c-87 0 -143 -48 -150 -106h-366c10 238 213 390 538 390
c310 0 517 -155 517 -383v-769h-400v152h-8c-59 -110 -195 -168 -326 -168zM235 1590h236c4 -86 59 -148 159 -148s155 62 159 148h236c-6 -180 -143 -334 -395 -334s-389 154 -395 334z" />
    <glyph glyph-name="abreveacute" unicode="&#x1eaf;" horiz-adv-x="1231" 
d="M569 259c95 0 182 54 182 139v74l-181 -13c-82 -6 -128 -44 -128 -101c0 -62 51 -99 127 -99zM417 -16c-206 0 -379 140 -379 343c0 215 165 332 465 350l248 15v57c0 77 -58 119 -139 119c-87 0 -143 -48 -150 -106h-366c10 238 213 390 538 390
c310 0 517 -155 517 -383v-769h-400v152h-8c-59 -110 -195 -168 -326 -168zM484 1651l202 281h322l-238 -281h-286zM1025 1590c-6 -180 -143 -334 -395 -334s-389 154 -395 334h236c4 -86 59 -148 159 -148s155 62 159 148h236z" />
    <glyph glyph-name="abrevetilde" unicode="&#x1eb5;" horiz-adv-x="1231" 
d="M569 259c95 0 182 54 182 139v74l-181 -13c-82 -6 -128 -44 -128 -101c0 -62 51 -99 127 -99zM417 -16c-206 0 -379 140 -379 343c0 215 165 332 465 350l248 15v57c0 77 -58 119 -139 119c-87 0 -143 -48 -150 -106h-366c10 238 213 390 538 390
c310 0 517 -155 517 -383v-769h-400v152h-8c-59 -110 -195 -168 -326 -168zM1025 1590c-6 -180 -143 -334 -395 -334s-389 154 -395 334h236c4 -86 59 -148 159 -148s155 62 159 148h236zM773 1639c-146 0 -198 119 -267 119c-46 0 -66 -48 -69 -91h-201
c0 177 117 283 251 283c146 0 198 -119 267 -119c46 0 66 44 69 106h201c0 -187 -117 -298 -251 -298z" />
    <glyph glyph-name="abrevehookabove" unicode="&#x1eb3;" horiz-adv-x="1231" 
d="M569 259c95 0 182 54 182 139v74l-181 -13c-82 -6 -128 -44 -128 -101c0 -62 51 -99 127 -99zM417 -16c-206 0 -379 140 -379 343c0 215 165 332 465 350l248 15v57c0 77 -58 119 -139 119c-87 0 -143 -48 -150 -106h-366c10 238 213 390 538 390
c310 0 517 -155 517 -383v-769h-400v152h-8c-59 -110 -195 -168 -326 -168zM1025 1590c-6 -180 -143 -334 -395 -334s-389 154 -395 334h236c4 -86 59 -148 159 -148s155 62 159 148h236zM441 1825v148c30 13 74 20 119 20c155 0 250 -75 250 -199
c0 -110 -57 -180 -177 -229l-98 111c61 33 79 59 79 92c0 43 -34 70 -94 70c-28 0 -56 -5 -79 -13z" />
    <glyph glyph-name="abrevedotbelow" unicode="&#x1eb7;" horiz-adv-x="1231" 
d="M569 259c95 0 182 54 182 139v74l-181 -13c-82 -6 -128 -44 -128 -101c0 -62 51 -99 127 -99zM417 -16c-206 0 -379 140 -379 343c0 215 165 332 465 350l248 15v57c0 77 -58 119 -139 119c-87 0 -143 -48 -150 -106h-366c10 238 213 390 538 390
c310 0 517 -155 517 -383v-769h-400v152h-8c-59 -110 -195 -168 -326 -168zM235 1590h236c4 -86 59 -148 159 -148s155 62 159 148h236c-6 -180 -143 -334 -395 -334s-389 154 -395 334zM621 -524c-100 0 -177 80 -177 177s77 176 177 176s177 -79 177 -176
s-77 -177 -177 -177z" />
    <glyph glyph-name="ainvertedbreve" unicode="&#x203;" horiz-adv-x="1231" 
d="M569 259c95 0 182 54 182 139v74l-181 -13c-82 -6 -128 -44 -128 -101c0 -62 51 -99 127 -99zM417 -16c-206 0 -379 140 -379 343c0 215 165 332 465 350l248 15v57c0 77 -58 119 -139 119c-87 0 -143 -48 -150 -106h-366c10 238 213 390 538 390
c310 0 517 -155 517 -383v-769h-400v152h-8c-59 -110 -195 -168 -326 -168zM235 1256c6 180 143 334 395 334s389 -154 395 -334h-236c-4 86 -59 148 -159 148s-155 -62 -159 -148h-236z" />
    <glyph glyph-name="acaron" unicode="&#x1ce;" horiz-adv-x="1231" 
d="M569 259c95 0 182 54 182 139v74l-181 -13c-82 -6 -128 -44 -128 -101c0 -62 51 -99 127 -99zM417 -16c-206 0 -379 140 -379 343c0 215 165 332 465 350l248 15v57c0 77 -58 119 -139 119c-87 0 -143 -48 -150 -106h-366c10 238 213 390 538 390
c310 0 517 -155 517 -383v-769h-400v152h-8c-59 -110 -195 -168 -326 -168zM787 1256h-314l-255 336h284l124 -180h8l124 180h284z" />
    <glyph glyph-name="adotaccent" unicode="&#x227;" horiz-adv-x="1231" 
d="M569 259c95 0 182 54 182 139v74l-181 -13c-82 -6 -128 -44 -128 -101c0 -62 51 -99 127 -99zM417 -16c-206 0 -379 140 -379 343c0 215 165 332 465 350l248 15v57c0 77 -58 119 -139 119c-87 0 -143 -48 -150 -106h-366c10 238 213 390 538 390
c310 0 517 -155 517 -383v-769h-400v152h-8c-59 -110 -195 -168 -326 -168zM628 1264c-100 0 -177 78 -177 173s77 173 177 173s177 -78 177 -173s-77 -173 -177 -173z" />
    <glyph glyph-name="adotbelow" unicode="&#x1ea1;" horiz-adv-x="1231" 
d="M569 259c95 0 182 54 182 139v74l-181 -13c-82 -6 -128 -44 -128 -101c0 -62 51 -99 127 -99zM417 -16c-206 0 -379 140 -379 343c0 215 165 332 465 350l248 15v57c0 77 -58 119 -139 119c-87 0 -143 -48 -150 -106h-366c10 238 213 390 538 390
c310 0 517 -155 517 -383v-769h-400v152h-8c-59 -110 -195 -168 -326 -168zM621 -524c-100 0 -177 80 -177 177s77 176 177 176s177 -79 177 -176s-77 -177 -177 -177z" />
    <glyph glyph-name="ahookabove" unicode="&#x1ea3;" horiz-adv-x="1231" 
d="M569 259c95 0 182 54 182 139v74l-181 -13c-82 -6 -128 -44 -128 -101c0 -62 51 -99 127 -99zM417 -16c-206 0 -379 140 -379 343c0 215 165 332 465 350l248 15v57c0 77 -58 119 -139 119c-87 0 -143 -48 -150 -106h-366c10 238 213 390 538 390
c310 0 517 -155 517 -383v-769h-400v152h-8c-59 -110 -195 -168 -326 -168zM442 1538v164c37 16 115 30 165 30c169 0 277 -93 277 -238c0 -104 -78 -201 -216 -268l-108 125c73 38 99 70 99 122c0 50 -45 83 -115 83c-36 0 -74 -7 -102 -18z" />
    <glyph glyph-name="adblgrave" unicode="&#x201;" horiz-adv-x="1231" 
d="M569 259c95 0 182 54 182 139v74l-181 -13c-82 -6 -128 -44 -128 -101c0 -62 51 -99 127 -99zM417 -16c-206 0 -379 140 -379 343c0 215 165 332 465 350l248 15v57c0 77 -58 119 -139 119c-87 0 -143 -48 -150 -106h-366c10 238 213 390 538 390
c310 0 517 -155 517 -383v-769h-400v152h-8c-59 -110 -195 -168 -326 -168zM570 1276h-280l-211 320h309zM995 1276h-280l-211 320h308z" />
    <glyph glyph-name="amacron" unicode="&#x101;" horiz-adv-x="1231" 
d="M569 259c95 0 182 54 182 139v74l-181 -13c-82 -6 -128 -44 -128 -101c0 -62 51 -99 127 -99zM417 -16c-206 0 -379 140 -379 343c0 215 165 332 465 350l248 15v57c0 77 -58 119 -139 119c-87 0 -143 -48 -150 -106h-366c10 238 213 390 538 390
c310 0 517 -155 517 -383v-769h-400v152h-8c-59 -110 -195 -168 -326 -168zM982 1456v-180h-704v180h704z" />
    <glyph glyph-name="aogonek" unicode="&#x105;" horiz-adv-x="1231" 
d="M569 259c95 0 182 54 182 139v74l-181 -13c-82 -6 -128 -44 -128 -101c0 -62 51 -99 127 -99zM1087 -468c-23 -10 -68 -26 -172 -26c-183 0 -306 99 -306 240c0 92 62 185 142 234v172h-8c-59 -110 -195 -168 -326 -168c-206 0 -379 140 -379 343c0 215 165 332 465 350
l248 15v57c0 77 -58 119 -139 119c-87 0 -143 -48 -150 -106h-366c10 238 213 390 538 390c310 0 517 -155 517 -383v-769l-60 -8c-105 -14 -200 -91 -200 -182c0 -56 38 -94 124 -94c32 0 63 4 72 9v-193z" />
    <glyph glyph-name="b" unicode="b" horiz-adv-x="1330" 
d="M843 -16c-165 0 -288 79 -340 210h-8v-194h-410v1518h410v-596h8c54 137 174 218 335 218c284 0 442 -207 442 -578c0 -370 -157 -578 -437 -578zM677 823c-112 0 -183 -102 -184 -262c1 -161 71 -260 184 -260c112 0 183 101 183 261c0 159 -72 261 -183 261z" />
    <glyph glyph-name="blinebelow" unicode="&#x1e07;" horiz-adv-x="1330" 
d="M843 -16c-165 0 -288 79 -340 210h-8v-194h-410v1518h410v-596h8c54 137 174 218 335 218c284 0 442 -207 442 -578c0 -370 -157 -578 -437 -578zM677 823c-112 0 -183 -102 -184 -262c1 -161 71 -260 184 -260c112 0 183 101 183 261c0 159 -72 261 -183 261zM1039 -240
v-180h-748v180h748z" />
    <glyph glyph-name="bdotbelow" unicode="&#x1e05;" horiz-adv-x="1330" 
d="M843 -16c-165 0 -288 79 -340 210h-8v-194h-410v1518h410v-596h8c54 137 174 218 335 218c284 0 442 -207 442 -578c0 -370 -157 -578 -437 -578zM677 823c-112 0 -183 -102 -184 -262c1 -161 71 -260 184 -260c112 0 183 101 183 261c0 159 -72 261 -183 261zM665 -524
c-100 0 -177 80 -177 177s77 176 177 176s177 -79 177 -176s-77 -177 -177 -177z" />
    <glyph glyph-name="bdotaccent" unicode="&#x1e03;" horiz-adv-x="1330" 
d="M843 -16c-165 0 -288 79 -340 210h-8v-194h-410v1518h410v-596h8c54 137 174 218 335 218c284 0 442 -207 442 -578c0 -370 -157 -578 -437 -578zM677 823c-112 0 -183 -102 -184 -262c1 -161 71 -260 184 -260c112 0 183 101 183 261c0 159 -72 261 -183 261zM290 1611
c-100 0 -177 80 -177 177s77 176 177 176s177 -79 177 -176s-77 -177 -177 -177z" />
    <glyph glyph-name="c" unicode="c" horiz-adv-x="1223" 
d="M1178 662h-373c-9 114 -73 184 -165 184c-113 0 -175 -100 -175 -283c0 -186 61 -285 175 -285c95 0 157 65 165 177h373c-5 -302 -212 -483 -543 -483c-363 0 -585 221 -585 591c0 366 223 589 583 589c325 0 539 -189 545 -490z" />
    <glyph glyph-name="cacute" unicode="&#x107;" horiz-adv-x="1223" 
d="M1178 662h-373c-9 114 -73 184 -165 184c-113 0 -175 -100 -175 -283c0 -186 61 -285 175 -285c95 0 157 65 165 177h373c-5 -302 -212 -483 -543 -483c-363 0 -585 221 -585 591c0 366 223 589 583 589c325 0 539 -189 545 -490zM756 1275h-314l232 321h347z" />
    <glyph glyph-name="ccaron" unicode="&#x10d;" horiz-adv-x="1223" 
d="M1178 662h-373c-9 114 -73 184 -165 184c-113 0 -175 -100 -175 -283c0 -186 61 -285 175 -285c95 0 157 65 165 177h373c-5 -302 -212 -483 -543 -483c-363 0 -585 221 -585 591c0 366 223 589 583 589c325 0 539 -189 545 -490zM764 1256h-314l-255 336h284l124 -180h8
l124 180h284z" />
    <glyph glyph-name="ccircumflex" unicode="&#x109;" horiz-adv-x="1223" 
d="M1178 662h-373c-9 114 -73 184 -165 184c-113 0 -175 -100 -175 -283c0 -186 61 -285 175 -285c95 0 157 65 165 177h373c-5 -302 -212 -483 -543 -483c-363 0 -585 221 -585 591c0 366 223 589 583 589c325 0 539 -189 545 -490zM764 1592l255 -336h-284l-124 180h-8
l-124 -180h-284l255 336h314z" />
    <glyph glyph-name="cdotaccent" unicode="&#x10b;" horiz-adv-x="1223" 
d="M1178 662h-373c-9 114 -73 184 -165 184c-113 0 -175 -100 -175 -283c0 -186 61 -285 175 -285c95 0 157 65 165 177h373c-5 -302 -212 -483 -543 -483c-363 0 -585 221 -585 591c0 366 223 589 583 589c325 0 539 -189 545 -490zM605 1264c-100 0 -177 78 -177 173
s77 173 177 173s177 -78 177 -173s-77 -173 -177 -173z" />
    <glyph glyph-name="ccedilla" unicode="&#xe7;" horiz-adv-x="1223" 
d="M1178 662h-373c-9 114 -73 184 -165 184c-113 0 -175 -100 -175 -283c0 -186 61 -285 175 -285c95 0 157 65 165 177h373c-5 -278 -181 -454 -468 -480l-33 -64c96 0 162 -66 162 -168c0 -129 -88 -195 -263 -195c-55 0 -107 5 -133 15v141c25 -8 63 -12 99 -12
c66 0 94 11 94 37c0 35 -25 46 -100 46h-56v127l43 78c-296 41 -473 253 -473 583c0 366 223 589 583 589c325 0 539 -189 545 -490z" />
    <glyph glyph-name="ccedillaacute" unicode="&#x1e09;" horiz-adv-x="1223" 
d="M1021 1596l-265 -321h-314l232 321h347zM1178 662h-373c-9 114 -73 184 -165 184c-113 0 -175 -100 -175 -283c0 -186 61 -285 175 -285c95 0 157 65 165 177h373c-5 -278 -181 -454 -468 -480l-33 -64c96 0 162 -66 162 -168c0 -129 -88 -195 -263 -195
c-55 0 -107 5 -133 15v141c25 -8 63 -12 99 -12c66 0 94 11 94 37c0 35 -25 46 -100 46h-56v127l43 78c-296 41 -473 253 -473 583c0 366 223 589 583 589c325 0 539 -189 545 -490z" />
    <glyph glyph-name="d" unicode="d" horiz-adv-x="1325" 
d="M490 -16c-277 0 -440 215 -440 581c0 361 166 575 446 575c164 0 287 -92 331 -218h8v596h410v-1518h-410v194h-8c-38 -118 -169 -210 -337 -210zM653 823c-114 0 -183 -99 -183 -261c0 -164 68 -261 183 -261c116 0 184 96 184 260c0 163 -69 262 -184 262z" />
    <glyph glyph-name="ddotaccent" unicode="&#x1e0b;" horiz-adv-x="1325" 
d="M490 -16c-277 0 -440 215 -440 581c0 361 166 575 446 575c164 0 287 -92 331 -218h8v596h410v-1518h-410v194h-8c-38 -118 -169 -210 -337 -210zM653 823c-114 0 -183 -99 -183 -261c0 -164 68 -261 183 -261c116 0 184 96 184 260c0 163 -69 262 -184 262zM1053 1611
c-100 0 -177 80 -177 177s77 176 177 176s177 -79 177 -176s-77 -177 -177 -177z" />
    <glyph glyph-name="dcircumflexbelow" unicode="&#x1e13;" horiz-adv-x="1325" 
d="M490 -16c-277 0 -440 215 -440 581c0 361 166 575 446 575c164 0 287 -92 331 -218h8v596h410v-1518h-410v194h-8c-38 -118 -169 -210 -337 -210zM653 823c-114 0 -183 -99 -183 -261c0 -164 68 -261 183 -261c116 0 184 96 184 260c0 163 -69 262 -184 262zM506 -154
h314l255 -336h-276l-132 192h-8l-132 -192h-276z" />
    <glyph glyph-name="dcommaaccent" unicode="&#x1e11;" horiz-adv-x="1325" 
d="M490 -16c-277 0 -440 215 -440 581c0 361 166 575 446 575c164 0 287 -92 331 -218h8v596h410v-1518h-410v194h-8c-38 -118 -169 -210 -337 -210zM653 823c-114 0 -183 -99 -183 -261c0 -164 68 -261 183 -261c116 0 184 96 184 260c0 163 -69 262 -184 262zM634 -457
h-308l152 321h359z" />
    <glyph glyph-name="dlinebelow" unicode="&#x1e0f;" horiz-adv-x="1325" 
d="M490 -16c-277 0 -440 215 -440 581c0 361 166 575 446 575c164 0 287 -92 331 -218h8v596h410v-1518h-410v194h-8c-38 -118 -169 -210 -337 -210zM653 823c-114 0 -183 -99 -183 -261c0 -164 68 -261 183 -261c116 0 184 96 184 260c0 163 -69 262 -184 262zM1037 -240
v-180h-748v180h748z" />
    <glyph glyph-name="dcaron" unicode="&#x10f;" horiz-adv-x="1591" 
d="M1398 1508h293l-50 -518h-243v518zM490 -16c-277 0 -440 215 -440 581c0 361 166 575 446 575c164 0 287 -92 331 -218h8v596h410v-1518h-410v194h-8c-38 -118 -169 -210 -337 -210zM653 823c-114 0 -183 -99 -183 -261c0 -164 68 -261 183 -261c116 0 184 96 184 260
c0 163 -69 262 -184 262z" />
    <glyph glyph-name="ddotbelow" unicode="&#x1e0d;" horiz-adv-x="1325" 
d="M490 -16c-277 0 -440 215 -440 581c0 361 166 575 446 575c164 0 287 -92 331 -218h8v596h410v-1518h-410v194h-8c-38 -118 -169 -210 -337 -210zM653 823c-114 0 -183 -99 -183 -261c0 -164 68 -261 183 -261c116 0 184 96 184 260c0 163 -69 262 -184 262zM663 -524
c-100 0 -177 80 -177 177s77 176 177 176s177 -79 177 -176s-77 -177 -177 -177z" />
    <glyph glyph-name="dcroat" unicode="&#x111;" horiz-adv-x="1355" 
d="M653 301c116 0 184 96 184 260c0 163 -69 262 -184 262c-114 0 -183 -99 -183 -261c0 -164 68 -261 183 -261zM1319 1413v-176h-74v-1237h-410v194h-8c-38 -118 -169 -210 -337 -210c-277 0 -440 215 -440 581c0 361 166 575 446 575c164 0 287 -92 331 -218h8v315h-176
v176h176v105h410v-105h74z" />
    <glyph glyph-name="e" unicode="e" horiz-adv-x="1243" 
d="M631 869c-97 0 -171 -71 -179 -171h358c-7 104 -78 171 -179 171zM822 363h366c-35 -241 -246 -391 -552 -391c-367 0 -586 219 -586 584c0 367 221 596 573 596c346 0 570 -222 570 -566v-111h-747v-26c0 -114 81 -195 196 -195c86 0 155 41 180 109z" />
    <glyph glyph-name="egrave" unicode="&#xe8;" horiz-adv-x="1243" 
d="M631 869c-97 0 -171 -71 -179 -171h358c-7 104 -78 171 -179 171zM822 363h366c-35 -241 -246 -391 -552 -391c-367 0 -586 219 -586 584c0 367 221 596 573 596c346 0 570 -222 570 -566v-111h-747v-26c0 -114 81 -195 196 -195c86 0 155 41 180 109zM796 1275h-314
l-265 321h347z" />
    <glyph glyph-name="edblgrave" unicode="&#x205;" horiz-adv-x="1243" 
d="M631 869c-97 0 -171 -71 -179 -171h358c-7 104 -78 171 -179 171zM822 363h366c-35 -241 -246 -391 -552 -391c-367 0 -586 219 -586 584c0 367 221 596 573 596c346 0 570 -222 570 -566v-111h-747v-26c0 -114 81 -195 196 -195c86 0 155 41 180 109zM562 1276h-280
l-211 320h309zM987 1276h-280l-211 320h308z" />
    <glyph glyph-name="eacute" unicode="&#xe9;" horiz-adv-x="1243" 
d="M631 869c-97 0 -171 -71 -179 -171h358c-7 104 -78 171 -179 171zM822 363h366c-35 -241 -246 -391 -552 -391c-367 0 -586 219 -586 584c0 367 221 596 573 596c346 0 570 -222 570 -566v-111h-747v-26c0 -114 81 -195 196 -195c86 0 155 41 180 109zM771 1275h-314
l232 321h347z" />
    <glyph glyph-name="ecircumflex" unicode="&#xea;" horiz-adv-x="1243" 
d="M631 869c-97 0 -171 -71 -179 -171h358c-7 104 -78 171 -179 171zM822 363h366c-35 -241 -246 -391 -552 -391c-367 0 -586 219 -586 584c0 367 221 596 573 596c346 0 570 -222 570 -566v-111h-747v-26c0 -114 81 -195 196 -195c86 0 155 41 180 109zM779 1592l255 -336
h-284l-124 180h-8l-124 -180h-284l255 336h314z" />
    <glyph glyph-name="ecircumflexhookabove" unicode="&#x1ec3;" horiz-adv-x="1243" 
d="M631 869c-97 0 -171 -71 -179 -171h358c-7 104 -78 171 -179 171zM822 363h366c-35 -241 -246 -391 -552 -391c-367 0 -586 219 -586 584c0 367 221 596 573 596c346 0 570 -222 570 -566v-111h-747v-26c0 -114 81 -195 196 -195c86 0 155 41 180 109zM770 1772v164
c34 12 82 20 130 20c166 0 269 -83 269 -216c0 -120 -63 -205 -194 -259l-106 121c59 25 89 68 89 109c0 47 -38 74 -102 74c-32 0 -63 -4 -86 -13zM779 1592l255 -336h-284l-124 180h-8l-124 -180h-284l255 336h314z" />
    <glyph glyph-name="ecircumflexgrave" unicode="&#x1ec1;" horiz-adv-x="1243" 
d="M631 869c-97 0 -171 -71 -179 -171h358c-7 104 -78 171 -179 171zM822 363h366c-35 -241 -246 -391 -552 -391c-367 0 -586 219 -586 584c0 367 221 596 573 596c346 0 570 -222 570 -566v-111h-747v-26c0 -114 81 -195 196 -195c86 0 155 41 180 109zM779 1592l255 -336
h-284l-124 180h-8l-124 -180h-284l255 336h314zM1120 1651h-286l-238 281h322z" />
    <glyph glyph-name="ecircumflextilde" unicode="&#x1ec5;" horiz-adv-x="1243" 
d="M631 869c-97 0 -171 -71 -179 -171h358c-7 104 -78 171 -179 171zM822 363h366c-35 -241 -246 -391 -552 -391c-367 0 -586 219 -586 584c0 367 221 596 573 596c346 0 570 -222 570 -566v-111h-747v-26c0 -114 81 -195 196 -195c86 0 155 41 180 109zM779 1572l255 -316
h-284l-124 164h-8l-124 -164h-284l255 316h314zM765 1639c-146 0 -198 119 -267 119c-46 0 -66 -48 -69 -101h-201c0 187 117 293 251 293c146 0 198 -119 267 -119c46 0 66 44 69 106h201c0 -187 -117 -298 -251 -298z" />
    <glyph glyph-name="ecircumflexdotbelow" unicode="&#x1ec7;" horiz-adv-x="1243" 
d="M631 869c-97 0 -171 -71 -179 -171h358c-7 104 -78 171 -179 171zM822 363h366c-35 -241 -246 -391 -552 -391c-367 0 -586 219 -586 584c0 367 221 596 573 596c346 0 570 -222 570 -566v-111h-747v-26c0 -114 81 -195 196 -195c86 0 155 41 180 109zM779 1592l255 -336
h-284l-124 180h-8l-124 -180h-284l255 336h314zM622 -524c-100 0 -177 80 -177 177s77 176 177 176s177 -79 177 -176s-77 -177 -177 -177z" />
    <glyph glyph-name="ecircumflexacute" unicode="&#x1ebf;" horiz-adv-x="1243" 
d="M631 869c-97 0 -171 -71 -179 -171h358c-7 104 -78 171 -179 171zM822 363h366c-35 -241 -246 -391 -552 -391c-367 0 -586 219 -586 584c0 367 221 596 573 596c346 0 570 -222 570 -566v-111h-747v-26c0 -114 81 -195 196 -195c86 0 155 41 180 109zM779 1592l255 -336
h-284l-124 180h-8l-124 -180h-284l255 336h314zM756 1651l202 281h322l-238 -281h-286z" />
    <glyph glyph-name="edieresis" unicode="&#xeb;" horiz-adv-x="1243" 
d="M631 869c-97 0 -171 -71 -179 -171h358c-7 104 -78 171 -179 171zM822 363h366c-35 -241 -246 -391 -552 -391c-367 0 -586 219 -586 584c0 367 221 596 573 596c346 0 570 -222 570 -566v-111h-747v-26c0 -114 81 -195 196 -195c86 0 155 41 180 109zM400 1256
c-92 0 -158 68 -158 150c0 83 66 150 158 150s158 -67 158 -150c0 -82 -66 -150 -158 -150zM844 1256c-92 0 -158 68 -158 150c0 83 66 150 158 150s158 -67 158 -150c0 -82 -66 -150 -158 -150z" />
    <glyph glyph-name="edotbelow" unicode="&#x1eb9;" horiz-adv-x="1243" 
d="M631 869c-97 0 -171 -71 -179 -171h358c-7 104 -78 171 -179 171zM822 363h366c-35 -241 -246 -391 -552 -391c-367 0 -586 219 -586 584c0 367 221 596 573 596c346 0 570 -222 570 -566v-111h-747v-26c0 -114 81 -195 196 -195c86 0 155 41 180 109zM622 -524
c-100 0 -177 80 -177 177s77 176 177 176s177 -79 177 -176s-77 -177 -177 -177z" />
    <glyph glyph-name="einvertedbreve" unicode="&#x207;" horiz-adv-x="1243" 
d="M631 869c-97 0 -171 -71 -179 -171h358c-7 104 -78 171 -179 171zM822 363h366c-35 -241 -246 -391 -552 -391c-367 0 -586 219 -586 584c0 367 221 596 573 596c346 0 570 -222 570 -566v-111h-747v-26c0 -114 81 -195 196 -195c86 0 155 41 180 109zM227 1256
c6 180 143 334 395 334s389 -154 395 -334h-236c-4 86 -59 148 -159 148s-155 -62 -159 -148h-236z" />
    <glyph glyph-name="ehookabove" unicode="&#x1ebb;" horiz-adv-x="1243" 
d="M631 869c-97 0 -171 -71 -179 -171h358c-7 104 -78 171 -179 171zM822 363h366c-35 -241 -246 -391 -552 -391c-367 0 -586 219 -586 584c0 367 221 596 573 596c346 0 570 -222 570 -566v-111h-747v-26c0 -114 81 -195 196 -195c86 0 155 41 180 109zM434 1538v164
c37 16 115 30 165 30c169 0 277 -93 277 -238c0 -104 -78 -201 -216 -268l-108 125c73 38 99 70 99 122c0 50 -45 83 -115 83c-36 0 -74 -7 -102 -18z" />
    <glyph glyph-name="ecaron" unicode="&#x11b;" horiz-adv-x="1243" 
d="M631 869c-97 0 -171 -71 -179 -171h358c-7 104 -78 171 -179 171zM822 363h366c-35 -241 -246 -391 -552 -391c-367 0 -586 219 -586 584c0 367 221 596 573 596c346 0 570 -222 570 -566v-111h-747v-26c0 -114 81 -195 196 -195c86 0 155 41 180 109zM779 1256h-314
l-255 336h284l124 -180h8l124 180h284z" />
    <glyph glyph-name="emacron" unicode="&#x113;" horiz-adv-x="1243" 
d="M631 869c-97 0 -171 -71 -179 -171h358c-7 104 -78 171 -179 171zM822 363h366c-35 -241 -246 -391 -552 -391c-367 0 -586 219 -586 584c0 367 221 596 573 596c346 0 570 -222 570 -566v-111h-747v-26c0 -114 81 -195 196 -195c86 0 155 41 180 109zM974 1456v-180
h-704v180h704z" />
    <glyph glyph-name="emacrongrave" unicode="&#x1e15;" horiz-adv-x="1243" 
d="M631 869c-97 0 -171 -71 -179 -171h358c-7 104 -78 171 -179 171zM822 363h366c-35 -241 -246 -391 -552 -391c-367 0 -586 219 -586 584c0 367 221 596 573 596c346 0 570 -222 570 -566v-111h-747v-26c0 -114 81 -195 196 -195c86 0 155 41 180 109zM758 1645h-261
l-233 287h322zM974 1456v-180h-704v180h704z" />
    <glyph glyph-name="emacronacute" unicode="&#x1e17;" horiz-adv-x="1243" 
d="M631 869c-97 0 -171 -71 -179 -171h358c-7 104 -78 171 -179 171zM822 363h366c-35 -241 -246 -391 -552 -391c-367 0 -586 219 -586 584c0 367 221 596 573 596c346 0 570 -222 570 -566v-111h-747v-26c0 -114 81 -195 196 -195c86 0 155 41 180 109zM480 1651l202 281
h322l-238 -281h-286zM974 1456v-180h-704v180h704z" />
    <glyph glyph-name="etilde" unicode="&#x1ebd;" horiz-adv-x="1243" 
d="M631 869c-97 0 -171 -71 -179 -171h358c-7 104 -78 171 -179 171zM822 363h366c-35 -241 -246 -391 -552 -391c-367 0 -586 219 -586 584c0 367 221 596 573 596c346 0 570 -222 570 -566v-111h-747v-26c0 -114 81 -195 196 -195c86 0 155 41 180 109zM775 1258
c-146 0 -199 119 -268 119c-46 0 -66 -48 -69 -101h-201c0 187 117 293 251 293c146 0 199 -119 268 -119c46 0 66 44 69 106h201c0 -187 -117 -298 -251 -298z" />
    <glyph glyph-name="ecircumflexbelow" unicode="&#x1e19;" horiz-adv-x="1243" 
d="M631 869c-97 0 -171 -71 -179 -171h358c-7 104 -78 171 -179 171zM822 363h366c-35 -241 -246 -391 -552 -391c-367 0 -586 219 -586 584c0 367 221 596 573 596c346 0 570 -222 570 -566v-111h-747v-26c0 -114 81 -195 196 -195c86 0 155 41 180 109zM465 -154h314
l255 -336h-276l-132 192h-8l-132 -192h-276z" />
    <glyph glyph-name="ebreve" unicode="&#x115;" horiz-adv-x="1243" 
d="M631 869c-97 0 -171 -71 -179 -171h358c-7 104 -78 171 -179 171zM822 363h366c-35 -241 -246 -391 -552 -391c-367 0 -586 219 -586 584c0 367 221 596 573 596c346 0 570 -222 570 -566v-111h-747v-26c0 -114 81 -195 196 -195c86 0 155 41 180 109zM227 1590h236
c4 -86 59 -148 159 -148s155 62 159 148h236c-6 -180 -143 -334 -395 -334s-389 154 -395 334z" />
    <glyph glyph-name="etildebelow" unicode="&#x1e1b;" horiz-adv-x="1243" 
d="M631 869c-97 0 -171 -71 -179 -171h358c-7 104 -78 171 -179 171zM822 363h366c-35 -241 -246 -391 -552 -391c-367 0 -586 219 -586 584c0 367 221 596 573 596c346 0 570 -222 570 -566v-111h-747v-26c0 -114 81 -195 196 -195c86 0 155 41 180 109zM775 -456
c-146 0 -199 119 -268 119c-46 0 -66 -48 -69 -101h-201c0 187 117 293 251 293c146 0 199 -119 268 -119c46 0 66 44 69 106h201c0 -187 -117 -298 -251 -298z" />
    <glyph glyph-name="edotaccent" unicode="&#x117;" horiz-adv-x="1243" 
d="M631 869c-97 0 -171 -71 -179 -171h358c-7 104 -78 171 -179 171zM822 363h366c-35 -241 -246 -391 -552 -391c-367 0 -586 219 -586 584c0 367 221 596 573 596c346 0 570 -222 570 -566v-111h-747v-26c0 -114 81 -195 196 -195c86 0 155 41 180 109zM620 1264
c-100 0 -177 78 -177 173s77 173 177 173s177 -78 177 -173s-77 -173 -177 -173z" />
    <glyph glyph-name="ecedilla" unicode="&#x229;" horiz-adv-x="1243" 
d="M452 698h358c-7 104 -78 171 -179 171c-97 0 -171 -71 -179 -171zM1193 475h-747v-26c0 -114 81 -195 196 -195c86 0 155 41 180 109h366c-31 -217 -205 -360 -462 -386l-34 -66c96 0 162 -66 162 -168c0 -129 -88 -195 -263 -195c-55 0 -107 5 -133 15v141
c25 -8 63 -12 99 -12c66 0 94 11 94 37c0 35 -25 46 -100 46h-56v127l42 76c-307 36 -487 247 -487 578c0 367 221 596 573 596c346 0 570 -222 570 -566v-111z" />
    <glyph glyph-name="ecedillabreve" unicode="&#x1e1d;" horiz-adv-x="1243" 
d="M781 1590h236c-6 -180 -143 -334 -395 -334s-389 154 -395 334h236c4 -86 59 -148 159 -148s155 62 159 148zM452 698h358c-7 104 -78 171 -179 171c-97 0 -171 -71 -179 -171zM1193 475h-747v-26c0 -114 81 -195 196 -195c86 0 155 41 180 109h366
c-31 -217 -205 -360 -462 -386l-34 -66c96 0 162 -66 162 -168c0 -129 -88 -195 -263 -195c-55 0 -107 5 -133 15v141c25 -8 63 -12 99 -12c66 0 94 11 94 37c0 35 -25 46 -100 46h-56v127l42 76c-307 36 -487 247 -487 578c0 367 221 596 573 596c346 0 570 -222 570 -566
v-111z" />
    <glyph glyph-name="eogonek" unicode="&#x119;" horiz-adv-x="1243" 
d="M860 -494c-181 0 -306 98 -306 240c0 93 57 177 151 221v8c-14 -2 -36 -3 -69 -3c-367 0 -586 219 -586 584c0 367 221 596 573 596c346 0 570 -222 570 -566v-111h-747v-26c0 -114 81 -195 196 -195c87 0 155 42 180 109h366c-12 -94 -64 -189 -136 -249
c-147 -123 -216 -216 -216 -294c0 -69 42 -104 124 -104c32 0 63 4 72 9v-193c-39 -17 -98 -26 -172 -26zM631 869c-97 0 -171 -71 -179 -171h358c-7 104 -78 171 -179 171z" />
    <glyph glyph-name="f" unicode="f" horiz-adv-x="839" 
d="M179 0v826h-149v298h149v96c0 224 115 310 425 310c65 0 125 -5 173 -12v-261c-20 3 -42 6 -80 6c-85 0 -120 -25 -120 -78v-61h202v-298h-190v-826h-410z" />
    <glyph glyph-name="fdotaccent" unicode="&#x1e1f;" horiz-adv-x="839" 
d="M179 0v826h-149v298h149v96c0 224 115 310 425 310c65 0 125 -5 173 -12v-261c-20 3 -42 6 -80 6c-85 0 -120 -25 -120 -78v-61h202v-298h-190v-826h-410zM507 1617c-100 0 -177 80 -177 177s77 176 177 176s177 -79 177 -176s-77 -177 -177 -177z" />
    <glyph glyph-name="g" unicode="g" horiz-adv-x="1325" 
d="M653 311c116 0 184 86 184 250c0 163 -69 262 -184 262c-114 0 -183 -99 -183 -261c0 -164 68 -251 183 -251zM645 -421c-335 0 -563 136 -568 353h394c12 -55 89 -91 178 -91c110 0 186 55 186 149v224h-8c-38 -118 -169 -200 -337 -200c-263 0 -440 199 -440 551
c0 361 166 575 446 575c164 0 287 -92 331 -218h8v202h410v-1104c0 -266 -241 -441 -600 -441z" />
    <glyph glyph-name="gacute" unicode="&#x1f5;" horiz-adv-x="1325" 
d="M653 311c116 0 184 86 184 250c0 163 -69 262 -184 262c-114 0 -183 -99 -183 -261c0 -164 68 -251 183 -251zM645 -421c-335 0 -563 136 -568 353h394c12 -55 89 -91 178 -91c110 0 186 55 186 149v224h-8c-38 -118 -169 -200 -337 -200c-263 0 -440 199 -440 551
c0 361 166 575 446 575c164 0 287 -92 331 -218h8v202h410v-1104c0 -266 -241 -441 -600 -441zM812 1275h-314l232 321h347z" />
    <glyph glyph-name="gcaron" unicode="&#x1e7;" horiz-adv-x="1325" 
d="M653 311c116 0 184 86 184 250c0 163 -69 262 -184 262c-114 0 -183 -99 -183 -261c0 -164 68 -251 183 -251zM645 -421c-335 0 -563 136 -568 353h394c12 -55 89 -91 178 -91c110 0 186 55 186 149v224h-8c-38 -118 -169 -200 -337 -200c-263 0 -440 199 -440 551
c0 361 166 575 446 575c164 0 287 -92 331 -218h8v202h410v-1104c0 -266 -241 -441 -600 -441zM820 1256h-314l-255 336h284l124 -180h8l124 180h284z" />
    <glyph glyph-name="gcircumflex" unicode="&#x11d;" horiz-adv-x="1325" 
d="M653 311c116 0 184 86 184 250c0 163 -69 262 -184 262c-114 0 -183 -99 -183 -261c0 -164 68 -251 183 -251zM645 -421c-335 0 -563 136 -568 353h394c12 -55 89 -91 178 -91c110 0 186 55 186 149v224h-8c-38 -118 -169 -200 -337 -200c-263 0 -440 199 -440 551
c0 361 166 575 446 575c164 0 287 -92 331 -218h8v202h410v-1104c0 -266 -241 -441 -600 -441zM820 1592l255 -336h-284l-124 180h-8l-124 -180h-284l255 336h314z" />
    <glyph glyph-name="gbreve" unicode="&#x11f;" horiz-adv-x="1325" 
d="M653 311c116 0 184 86 184 250c0 163 -69 262 -184 262c-114 0 -183 -99 -183 -261c0 -164 68 -251 183 -251zM645 -421c-335 0 -563 136 -568 353h394c12 -55 89 -91 178 -91c110 0 186 55 186 149v224h-8c-38 -118 -169 -200 -337 -200c-263 0 -440 199 -440 551
c0 361 166 575 446 575c164 0 287 -92 331 -218h8v202h410v-1104c0 -266 -241 -441 -600 -441zM268 1590h236c4 -86 59 -148 159 -148s155 62 159 148h236c-6 -180 -143 -334 -395 -334s-389 154 -395 334z" />
    <glyph glyph-name="gmacron" unicode="&#x1e21;" horiz-adv-x="1325" 
d="M653 311c116 0 184 86 184 250c0 163 -69 262 -184 262c-114 0 -183 -99 -183 -261c0 -164 68 -251 183 -251zM645 -421c-335 0 -563 136 -568 353h394c12 -55 89 -91 178 -91c110 0 186 55 186 149v224h-8c-38 -118 -169 -200 -337 -200c-263 0 -440 199 -440 551
c0 361 166 575 446 575c164 0 287 -92 331 -218h8v202h410v-1104c0 -266 -241 -441 -600 -441zM1015 1456v-180h-704v180h704z" />
    <glyph glyph-name="gdotaccent" unicode="&#x121;" horiz-adv-x="1325" 
d="M653 311c116 0 184 86 184 250c0 163 -69 262 -184 262c-114 0 -183 -99 -183 -261c0 -164 68 -251 183 -251zM645 -421c-335 0 -563 136 -568 353h394c12 -55 89 -91 178 -91c110 0 186 55 186 149v224h-8c-38 -118 -169 -200 -337 -200c-263 0 -440 199 -440 551
c0 361 166 575 446 575c164 0 287 -92 331 -218h8v202h410v-1104c0 -266 -241 -441 -600 -441zM661 1264c-100 0 -177 78 -177 173s77 173 177 173s177 -78 177 -173s-77 -173 -177 -173z" />
    <glyph glyph-name="gcommaaccent" unicode="&#x123;" horiz-adv-x="1325" 
d="M653 311c116 0 184 86 184 250c0 163 -69 262 -184 262c-114 0 -183 -99 -183 -261c0 -164 68 -251 183 -251zM645 -421c-335 0 -563 136 -568 353h394c12 -55 89 -91 178 -91c110 0 186 55 186 149v224h-8c-38 -118 -169 -200 -337 -200c-263 0 -440 199 -440 551
c0 361 166 575 446 575c164 0 287 -92 331 -218h8v202h410v-1104c0 -266 -241 -441 -600 -441zM634 -854h-308l152 321h359z" />
    <glyph glyph-name="h" unicode="h" horiz-adv-x="1308" 
d="M85 0v1518h400v-614h8c57 157 180 242 351 242c252 0 389 -157 389 -426v-720h-410v629c0 115 -56 186 -163 186s-165 -78 -165 -186v-629h-410z" />
    <glyph glyph-name="hdieresis" unicode="&#x1e27;" horiz-adv-x="1308" 
d="M85 0v1518h400v-614h8c57 157 180 242 351 242c252 0 389 -157 389 -426v-720h-410v629c0 115 -56 186 -163 186s-165 -78 -165 -186v-629h-410zM66 1611c-92 0 -158 68 -158 150c0 83 66 150 158 150s158 -67 158 -150c0 -82 -66 -150 -158 -150zM510 1611
c-92 0 -158 68 -158 150c0 83 66 150 158 150s158 -67 158 -150c0 -82 -66 -150 -158 -150z" />
    <glyph glyph-name="hcaron" unicode="&#x21f;" horiz-adv-x="1308" 
d="M85 0v1518h400v-614h8c57 157 180 242 351 242c252 0 389 -157 389 -426v-720h-410v629c0 115 -56 186 -163 186s-165 -78 -165 -186v-629h-410zM131 1611l-255 336h276l132 -192h8l132 192h276l-255 -336h-314z" />
    <glyph glyph-name="hcircumflex" unicode="&#x125;" horiz-adv-x="1308" 
d="M85 0v1518h400v-614h8c57 157 180 242 351 242c252 0 389 -157 389 -426v-720h-410v629c0 115 -56 186 -163 186s-165 -78 -165 -186v-629h-410zM131 1947h314l255 -336h-276l-132 192h-8l-132 -192h-276z" />
    <glyph glyph-name="hdotbelow" unicode="&#x1e25;" horiz-adv-x="1308" 
d="M85 0v1518h400v-614h8c57 157 180 242 351 242c252 0 389 -157 389 -426v-720h-410v629c0 115 -56 186 -163 186s-165 -78 -165 -186v-629h-410zM654 -524c-100 0 -177 80 -177 177s77 176 177 176s177 -79 177 -176s-77 -177 -177 -177z" />
    <glyph glyph-name="hdotaccent" unicode="&#x1e23;" horiz-adv-x="1308" 
d="M85 0v1518h400v-614h8c57 157 180 242 351 242c252 0 389 -157 389 -426v-720h-410v629c0 115 -56 186 -163 186s-165 -78 -165 -186v-629h-410zM288 1611c-100 0 -177 80 -177 177s77 176 177 176s177 -79 177 -176s-77 -177 -177 -177z" />
    <glyph glyph-name="hbrevebelow" unicode="&#x1e2b;" horiz-adv-x="1308" 
d="M85 0v1518h400v-614h8c57 157 180 242 351 242c252 0 389 -157 389 -426v-720h-410v629c0 115 -56 186 -163 186s-165 -78 -165 -186v-629h-410zM259 -156h236c4 -86 59 -148 159 -148s155 62 159 148h236c-6 -180 -143 -334 -395 -334s-389 154 -395 334z" />
    <glyph glyph-name="hcedilla" unicode="&#x1e29;" horiz-adv-x="1308" 
d="M485 904h8c57 157 180 242 351 242c252 0 389 -157 389 -426v-720h-410v629c0 115 -56 186 -163 186s-165 -78 -165 -186v-629h-169l-46 -89c96 0 162 -66 162 -168c0 -129 -88 -195 -263 -195c-55 0 -107 5 -133 15v141c25 -8 63 -12 99 -12c66 0 94 11 94 37
c0 35 -25 46 -100 46h-56v127l54 98h-52v1518h400v-614z" />
    <glyph glyph-name="hbar" unicode="&#x127;" horiz-adv-x="1308" 
d="M485 904h8c57 157 180 242 351 242c252 0 389 -157 389 -426v-720h-410v629c0 115 -56 186 -163 186s-165 -78 -165 -186v-629h-410v1237h-49v176h49v105h400v-105h201v-176h-201v-333z" />
    <glyph glyph-name="hlinebelow" unicode="&#x1e96;" horiz-adv-x="1308" 
d="M85 0v1518h400v-614h8c57 157 180 242 351 242c252 0 389 -157 389 -426v-720h-410v629c0 115 -56 186 -163 186s-165 -78 -165 -186v-629h-410zM1028 -240v-180h-748v180h748z" />
    <glyph glyph-name="i" unicode="i" horiz-adv-x="570" 
d="M80 0v1124h410v-1124h-410zM285 1190c-113 0 -205 82 -205 195s92 195 205 195s205 -82 205 -195s-92 -195 -205 -195z" />
    <glyph glyph-name="idotaccent" horiz-adv-x="570" 
d="M80 0v1124h410v-1124h-410zM283 1264c-100 0 -177 78 -177 173s77 173 177 173s177 -78 177 -173s-77 -173 -177 -173z" />
    <glyph glyph-name="igrave" unicode="&#xec;" horiz-adv-x="570" 
d="M80 0v1124h410v-1124h-410zM459 1275h-314l-265 321h347z" />
    <glyph glyph-name="idblgrave" unicode="&#x209;" horiz-adv-x="570" 
d="M80 0v1124h410v-1124h-410zM225 1276h-280l-211 320h309zM650 1276h-280l-211 320h308z" />
    <glyph glyph-name="iacute" unicode="&#xed;" horiz-adv-x="570" 
d="M80 0v1124h410v-1124h-410zM434 1275h-314l232 321h347z" />
    <glyph glyph-name="icircumflex" unicode="&#xee;" horiz-adv-x="570" 
d="M80 0v1124h410v-1124h-410zM442 1592l255 -336h-284l-124 180h-8l-124 -180h-284l255 336h314z" />
    <glyph glyph-name="icaron" unicode="&#x1d0;" horiz-adv-x="570" 
d="M80 0v1124h410v-1124h-410zM442 1256h-314l-255 336h284l124 -180h8l124 180h284z" />
    <glyph glyph-name="idieresis" unicode="&#xef;" horiz-adv-x="570" 
d="M80 0v1124h410v-1124h-410zM63 1256c-92 0 -158 68 -158 150c0 83 66 150 158 150s158 -67 158 -150c0 -82 -66 -150 -158 -150zM507 1256c-92 0 -158 68 -158 150c0 83 66 150 158 150s158 -67 158 -150c0 -82 -66 -150 -158 -150z" />
    <glyph glyph-name="idieresisacute" unicode="&#x1e2f;" horiz-adv-x="570" 
d="M80 0v1124h410v-1124h-410zM143 1651l202 281h322l-238 -281h-286zM63 1256c-92 0 -158 68 -158 150c0 83 66 150 158 150s158 -67 158 -150c0 -82 -66 -150 -158 -150zM507 1256c-92 0 -158 68 -158 150c0 83 66 150 158 150s158 -67 158 -150c0 -82 -66 -150 -158 -150
z" />
    <glyph glyph-name="ibreve" unicode="&#x12d;" horiz-adv-x="570" 
d="M80 0v1124h410v-1124h-410zM-110 1590h236c4 -86 59 -148 159 -148s155 62 159 148h236c-6 -180 -143 -334 -395 -334s-389 154 -395 334z" />
    <glyph glyph-name="idotbelow" unicode="&#x1ecb;" horiz-adv-x="570" 
d="M80 0v1124h410v-1124h-410zM285 1190c-113 0 -205 82 -205 195s92 195 205 195s205 -82 205 -195s-92 -195 -205 -195zM285 -524c-100 0 -177 80 -177 177s77 176 177 176s177 -79 177 -176s-77 -177 -177 -177z" />
    <glyph glyph-name="iinvertedbreve" unicode="&#x20b;" horiz-adv-x="570" 
d="M80 0v1124h410v-1124h-410zM-110 1256c6 180 143 334 395 334s389 -154 395 -334h-236c-4 86 -59 148 -159 148s-155 -62 -159 -148h-236z" />
    <glyph glyph-name="imacron" unicode="&#x12b;" horiz-adv-x="570" 
d="M80 0v1124h410v-1124h-410zM637 1456v-180h-704v180h704z" />
    <glyph glyph-name="itildebelow" unicode="&#x1e2d;" horiz-adv-x="570" 
d="M80 0v1124h410v-1124h-410zM285 1190c-113 0 -205 82 -205 195s92 195 205 195s205 -82 205 -195s-92 -195 -205 -195zM438 -456c-146 0 -199 119 -268 119c-46 0 -66 -48 -69 -101h-201c0 187 117 293 251 293c146 0 199 -119 268 -119c46 0 66 44 69 106h201
c0 -187 -117 -298 -251 -298z" />
    <glyph glyph-name="ihookabove" unicode="&#x1ec9;" horiz-adv-x="570" 
d="M80 0v1124h410v-1124h-410zM97 1538v164c37 16 115 30 165 30c169 0 277 -93 277 -238c0 -104 -78 -201 -216 -268l-108 125c73 38 99 70 99 122c0 50 -45 83 -115 83c-36 0 -74 -7 -102 -18z" />
    <glyph glyph-name="itilde" unicode="&#x129;" horiz-adv-x="570" 
d="M80 0v1124h410v-1124h-410zM438 1258c-146 0 -199 119 -268 119c-46 0 -66 -48 -69 -101h-201c0 187 117 293 251 293c146 0 199 -119 268 -119c46 0 66 44 69 106h201c0 -187 -117 -298 -251 -298z" />
    <glyph glyph-name="iogonek" unicode="&#x12f;" horiz-adv-x="570" 
d="M285 1190c-113 0 -205 82 -205 195s92 195 205 195s205 -82 205 -195s-92 -195 -205 -195zM80 -40v1164h410v-1124l-60 -8c-88 -12 -174 -82 -174 -172c0 -64 44 -104 134 -104c22 0 43 2 72 7v-191c-37 -16 -104 -26 -166 -26c-194 0 -316 101 -316 250
c0 75 37 152 100 204z" />
    <glyph glyph-name="j" unicode="j" horiz-adv-x="570" 
d="M490 1124v-1143c0 -228 -166 -361 -451 -361c-41 0 -101 3 -125 6v286c12 -2 30 -3 47 -3c83 0 119 27 119 90v1125h410zM285 1190c-113 0 -205 82 -205 195s92 195 205 195s205 -82 205 -195s-92 -195 -205 -195z" />
    <glyph glyph-name="jcircumflex" unicode="&#x135;" horiz-adv-x="570" 
d="M490 1124v-1143c0 -228 -166 -361 -451 -361c-41 0 -101 3 -125 6v286c12 -2 30 -3 47 -3c83 0 119 27 119 90v1125h410zM442 1592l255 -336h-284l-124 180h-8l-124 -180h-284l255 336h314z" />
    <glyph glyph-name="k" unicode="k" horiz-adv-x="1226" 
d="M503 715l280 409h452l-378 -480l404 -644h-471l-238 399l-57 -74v-325h-410v1518h410v-803h8z" />
    <glyph glyph-name="kacute" unicode="&#x1e31;" horiz-adv-x="1226" 
d="M503 715l280 409h452l-378 -480l404 -644h-471l-238 399l-57 -74v-325h-410v1518h410v-803h8zM428 1630h-306l232 321h348z" />
    <glyph glyph-name="kcaron" unicode="&#x1e9;" horiz-adv-x="1226" 
d="M503 715l280 409h452l-378 -480l404 -644h-471l-238 399l-57 -74v-325h-410v1518h410v-803h8zM131 1611l-255 336h276l132 -192h8l132 192h276l-255 -336h-314z" />
    <glyph glyph-name="kdotbelow" unicode="&#x1e33;" horiz-adv-x="1226" 
d="M503 715l280 409h452l-378 -480l404 -644h-471l-238 399l-57 -74v-325h-410v1518h410v-803h8zM613 -524c-100 0 -177 80 -177 177s77 176 177 176s177 -79 177 -176s-77 -177 -177 -177z" />
    <glyph glyph-name="klinebelow" unicode="&#x1e35;" horiz-adv-x="1226" 
d="M503 715l280 409h452l-378 -480l404 -644h-471l-238 399l-57 -74v-325h-410v1518h410v-803h8zM987 -240v-180h-748v180h748z" />
    <glyph glyph-name="kcommaaccent" unicode="&#x137;" horiz-adv-x="1226" 
d="M503 715l280 409h452l-378 -480l404 -644h-471l-238 399l-57 -74v-325h-410v1518h410v-803h8zM584 -457h-308l152 321h359z" />
    <glyph glyph-name="l" unicode="l" horiz-adv-x="580" 
d="M85 0v1518h410v-1518h-410z" />
    <glyph glyph-name="lacute" unicode="&#x13a;" horiz-adv-x="580" 
d="M85 0v1518h410v-1518h-410zM430 1630h-306l232 321h348z" />
    <glyph glyph-name="lcircumflexbelow" unicode="&#x1e3d;" horiz-adv-x="580" 
d="M85 0v1518h410v-1518h-410zM133 -154h314l255 -336h-276l-132 192h-8l-132 -192h-276z" />
    <glyph glyph-name="ldotbelow" unicode="&#x1e37;" horiz-adv-x="580" 
d="M85 0v1518h410v-1518h-410zM290 -524c-100 0 -177 80 -177 177s77 176 177 176s177 -79 177 -176s-77 -177 -177 -177z" />
    <glyph glyph-name="ldotbelowmacron" unicode="&#x1e39;" horiz-adv-x="580" 
d="M85 0v1518h410v-1518h-410zM290 -524c-100 0 -177 80 -177 177s77 176 177 176s177 -79 177 -176s-77 -177 -177 -177zM664 1861v-180h-748v180h748z" />
    <glyph glyph-name="llinebelow" unicode="&#x1e3b;" horiz-adv-x="580" 
d="M85 0v1518h410v-1518h-410zM664 -240v-180h-748v180h748z" />
    <glyph glyph-name="lcommaaccent" unicode="&#x13c;" horiz-adv-x="580" 
d="M85 0v1518h410v-1518h-410zM261 -457h-308l152 321h359z" />
    <glyph glyph-name="lcaron" unicode="&#x13e;" horiz-adv-x="863" 
d="M650 1508h293l-50 -518h-243v518zM85 0v1518h410v-1518h-410z" />
    <glyph glyph-name="lslash" unicode="&#x142;" horiz-adv-x="630" 
d="M610 1168v-256l-90 -53v-859h-410v619l-90 -53v256l90 53v643h410v-403z" />
    <glyph glyph-name="m" unicode="m" horiz-adv-x="1920" 
d="M80 0v1124h400v-226h8c42 151 168 248 321 248c171 0 285 -89 313 -246h8c38 148 175 246 345 246c219 0 370 -157 370 -386v-760h-410v654c0 108 -47 163 -140 163c-86 0 -138 -62 -138 -163v-654h-389v654c0 107 -48 163 -139 163c-86 0 -139 -63 -139 -163v-654h-410z
" />
    <glyph glyph-name="macute" unicode="&#x1e3f;" horiz-adv-x="1920" 
d="M80 0v1124h400v-226h8c42 151 168 248 321 248c171 0 285 -89 313 -246h8c38 148 175 246 345 246c219 0 370 -157 370 -386v-760h-410v654c0 108 -47 163 -140 163c-86 0 -138 -62 -138 -163v-654h-389v654c0 107 -48 163 -139 163c-86 0 -139 -63 -139 -163v-654h-410z
M1109 1275h-314l232 321h347z" />
    <glyph glyph-name="mdotaccent" unicode="&#x1e41;" horiz-adv-x="1920" 
d="M80 0v1124h400v-226h8c42 151 168 248 321 248c171 0 285 -89 313 -246h8c38 148 175 246 345 246c219 0 370 -157 370 -386v-760h-410v654c0 108 -47 163 -140 163c-86 0 -138 -62 -138 -163v-654h-389v654c0 107 -48 163 -139 163c-86 0 -139 -63 -139 -163v-654h-410z
M958 1264c-100 0 -177 78 -177 173s77 173 177 173s177 -78 177 -173s-77 -173 -177 -173z" />
    <glyph glyph-name="mdotbelow" unicode="&#x1e43;" horiz-adv-x="1920" 
d="M80 0v1124h400v-226h8c42 151 168 248 321 248c171 0 285 -89 313 -246h8c38 148 175 246 345 246c219 0 370 -157 370 -386v-760h-410v654c0 108 -47 163 -140 163c-86 0 -138 -62 -138 -163v-654h-389v654c0 107 -48 163 -139 163c-86 0 -139 -63 -139 -163v-654h-410z
M960 -524c-100 0 -177 80 -177 177s77 176 177 176s177 -79 177 -176s-77 -177 -177 -177z" />
    <glyph glyph-name="n" unicode="n" horiz-adv-x="1299" 
d="M80 0v1124h400v-220h8c57 157 174 242 345 242c252 0 391 -157 391 -426v-720h-410v629c0 115 -54 186 -161 186c-102 0 -163 -78 -163 -186v-629h-410z" />
    <glyph glyph-name="ngrave" unicode="&#x1f9;" horiz-adv-x="1299" 
d="M80 0v1124h400v-220h8c57 157 174 242 345 242c252 0 391 -157 391 -426v-720h-410v629c0 115 -54 186 -161 186c-102 0 -163 -78 -163 -186v-629h-410zM824 1275h-314l-265 321h347z" />
    <glyph glyph-name="nacute" unicode="&#x144;" horiz-adv-x="1299" 
d="M80 0v1124h400v-220h8c57 157 174 242 345 242c252 0 391 -157 391 -426v-720h-410v629c0 115 -54 186 -161 186c-102 0 -163 -78 -163 -186v-629h-410zM799 1275h-314l232 321h347z" />
    <glyph glyph-name="ntilde" unicode="&#xf1;" horiz-adv-x="1299" 
d="M80 0v1124h400v-220h8c57 157 174 242 345 242c252 0 391 -157 391 -426v-720h-410v629c0 115 -54 186 -161 186c-102 0 -163 -78 -163 -186v-629h-410zM803 1258c-146 0 -199 119 -268 119c-46 0 -66 -48 -69 -101h-201c0 187 117 293 251 293c146 0 199 -119 268 -119
c46 0 66 44 69 106h201c0 -187 -117 -298 -251 -298z" />
    <glyph glyph-name="ndotbelow" unicode="&#x1e47;" horiz-adv-x="1299" 
d="M80 0v1124h400v-220h8c57 157 174 242 345 242c252 0 391 -157 391 -426v-720h-410v629c0 115 -54 186 -161 186c-102 0 -163 -78 -163 -186v-629h-410zM652 -524c-100 0 -177 80 -177 177s77 176 177 176s177 -79 177 -176s-77 -177 -177 -177z" />
    <glyph glyph-name="ndotaccent" unicode="&#x1e45;" horiz-adv-x="1299" 
d="M80 0v1124h400v-220h8c57 157 174 242 345 242c252 0 391 -157 391 -426v-720h-410v629c0 115 -54 186 -161 186c-102 0 -163 -78 -163 -186v-629h-410zM648 1264c-100 0 -177 78 -177 173s77 173 177 173s177 -78 177 -173s-77 -173 -177 -173z" />
    <glyph glyph-name="ncaron" unicode="&#x148;" horiz-adv-x="1299" 
d="M80 0v1124h400v-220h8c57 157 174 242 345 242c252 0 391 -157 391 -426v-720h-410v629c0 115 -54 186 -161 186c-102 0 -163 -78 -163 -186v-629h-410zM807 1256h-314l-255 336h284l124 -180h8l124 180h284z" />
    <glyph glyph-name="ncircumflexbelow" unicode="&#x1e4b;" horiz-adv-x="1299" 
d="M80 0v1124h400v-220h8c57 157 174 242 345 242c252 0 391 -157 391 -426v-720h-410v629c0 115 -54 186 -161 186c-102 0 -163 -78 -163 -186v-629h-410zM495 -154h314l255 -336h-276l-132 192h-8l-132 -192h-276z" />
    <glyph glyph-name="nlinebelow" unicode="&#x1e49;" horiz-adv-x="1299" 
d="M80 0v1124h400v-220h8c57 157 174 242 345 242c252 0 391 -157 391 -426v-720h-410v629c0 115 -54 186 -161 186c-102 0 -163 -78 -163 -186v-629h-410zM1026 -240v-180h-748v180h748z" />
    <glyph glyph-name="ncommaaccent" unicode="&#x146;" horiz-adv-x="1299" 
d="M80 0v1124h400v-220h8c57 157 174 242 345 242c252 0 391 -157 391 -426v-720h-410v629c0 115 -54 186 -161 186c-102 0 -163 -78 -163 -186v-629h-410zM623 -457h-308l152 321h359z" />
    <glyph glyph-name="o" unicode="o" horiz-adv-x="1278" 
d="M639 -28c-365 0 -589 212 -589 591c0 369 230 589 589 589c361 0 589 -218 589 -589c0 -380 -223 -591 -589 -591zM639 266c107 0 173 105 173 296c0 186 -67 296 -173 296s-173 -110 -173 -296c0 -191 65 -296 173 -296z" />
    <glyph glyph-name="odieresis" unicode="&#xf6;" horiz-adv-x="1278" 
d="M639 -28c-365 0 -589 212 -589 591c0 369 230 589 589 589c361 0 589 -218 589 -589c0 -380 -223 -591 -589 -591zM639 266c107 0 173 105 173 296c0 186 -67 296 -173 296s-173 -110 -173 -296c0 -191 65 -296 173 -296zM417 1256c-92 0 -158 68 -158 150
c0 83 66 150 158 150s158 -67 158 -150c0 -82 -66 -150 -158 -150zM861 1256c-92 0 -158 68 -158 150c0 83 66 150 158 150s158 -67 158 -150c0 -82 -66 -150 -158 -150z" />
    <glyph glyph-name="oslash" unicode="&#xf8;" horiz-adv-x="1278" 
d="M798 694l-237 -405c23 -15 49 -23 78 -23c107 0 173 105 173 296c0 50 -5 94 -14 132zM487 400l244 422c-25 24 -56 36 -92 36c-106 0 -173 -110 -173 -296c0 -64 7 -118 21 -162zM1072 1163l-66 -114c141 -98 222 -265 222 -486c0 -380 -223 -591 -589 -591
c-89 0 -170 13 -241 37l-65 -111l-103 58l60 104c-153 96 -240 267 -240 503c0 369 230 589 589 589c96 0 182 -15 257 -45l64 110z" />
    <glyph glyph-name="otilde" unicode="&#xf5;" horiz-adv-x="1278" 
d="M639 -28c-365 0 -589 212 -589 591c0 369 230 589 589 589c361 0 589 -218 589 -589c0 -380 -223 -591 -589 -591zM639 266c107 0 173 105 173 296c0 186 -67 296 -173 296s-173 -110 -173 -296c0 -191 65 -296 173 -296zM792 1258c-146 0 -199 119 -268 119
c-46 0 -66 -48 -69 -101h-201c0 187 117 293 251 293c146 0 199 -119 268 -119c46 0 66 44 69 106h201c0 -187 -117 -298 -251 -298z" />
    <glyph glyph-name="oacute" unicode="&#xf3;" horiz-adv-x="1278" 
d="M639 -28c-365 0 -589 212 -589 591c0 369 230 589 589 589c361 0 589 -218 589 -589c0 -380 -223 -591 -589 -591zM639 266c107 0 173 105 173 296c0 186 -67 296 -173 296s-173 -110 -173 -296c0 -191 65 -296 173 -296zM788 1275h-314l232 321h347z" />
    <glyph glyph-name="ocircumflex" unicode="&#xf4;" horiz-adv-x="1278" 
d="M639 -28c-365 0 -589 212 -589 591c0 369 230 589 589 589c361 0 589 -218 589 -589c0 -380 -223 -591 -589 -591zM639 266c107 0 173 105 173 296c0 186 -67 296 -173 296s-173 -110 -173 -296c0 -191 65 -296 173 -296zM796 1592l255 -336h-284l-124 180h-8l-124 -180
h-284l255 336h314z" />
    <glyph glyph-name="ograve" unicode="&#xf2;" horiz-adv-x="1278" 
d="M639 -28c-365 0 -589 212 -589 591c0 369 230 589 589 589c361 0 589 -218 589 -589c0 -380 -223 -591 -589 -591zM639 266c107 0 173 105 173 296c0 186 -67 296 -173 296s-173 -110 -173 -296c0 -191 65 -296 173 -296zM813 1275h-314l-265 321h347z" />
    <glyph glyph-name="ocircumflexhookabove" unicode="&#x1ed5;" horiz-adv-x="1278" 
d="M639 -28c-365 0 -589 212 -589 591c0 369 230 589 589 589c361 0 589 -218 589 -589c0 -380 -223 -591 -589 -591zM639 266c107 0 173 105 173 296c0 186 -67 296 -173 296s-173 -110 -173 -296c0 -191 65 -296 173 -296zM787 1772v164c34 12 82 20 130 20
c166 0 269 -83 269 -216c0 -120 -63 -205 -194 -259l-106 121c59 25 89 68 89 109c0 47 -38 74 -102 74c-32 0 -63 -4 -86 -13zM796 1592l255 -336h-284l-124 180h-8l-124 -180h-284l255 336h314z" />
    <glyph glyph-name="ocircumflexgrave" unicode="&#x1ed3;" horiz-adv-x="1278" 
d="M639 -28c-365 0 -589 212 -589 591c0 369 230 589 589 589c361 0 589 -218 589 -589c0 -380 -223 -591 -589 -591zM639 266c107 0 173 105 173 296c0 186 -67 296 -173 296s-173 -110 -173 -296c0 -191 65 -296 173 -296zM796 1592l255 -336h-284l-124 180h-8l-124 -180
h-284l255 336h314zM1137 1651h-286l-238 281h322z" />
    <glyph glyph-name="odotbelow" unicode="&#x1ecd;" horiz-adv-x="1278" 
d="M639 -28c-365 0 -589 212 -589 591c0 369 230 589 589 589c361 0 589 -218 589 -589c0 -380 -223 -591 -589 -591zM639 266c107 0 173 105 173 296c0 186 -67 296 -173 296s-173 -110 -173 -296c0 -191 65 -296 173 -296zM639 -524c-100 0 -177 80 -177 177
s77 176 177 176s177 -79 177 -176s-77 -177 -177 -177z" />
    <glyph glyph-name="odblgrave" unicode="&#x20d;" horiz-adv-x="1278" 
d="M639 -28c-365 0 -589 212 -589 591c0 369 230 589 589 589c361 0 589 -218 589 -589c0 -380 -223 -591 -589 -591zM639 266c107 0 173 105 173 296c0 186 -67 296 -173 296s-173 -110 -173 -296c0 -191 65 -296 173 -296zM579 1276h-280l-211 320h309zM1004 1276h-280
l-211 320h308z" />
    <glyph glyph-name="otildeacute" unicode="&#x1e4d;" horiz-adv-x="1278" 
d="M639 -28c-365 0 -589 212 -589 591c0 369 230 589 589 589c361 0 589 -218 589 -589c0 -380 -223 -591 -589 -591zM639 266c107 0 173 105 173 296c0 186 -67 296 -173 296s-173 -110 -173 -296c0 -191 65 -296 173 -296zM497 1651l202 281h322l-238 -281h-286zM792 1258
c-146 0 -199 119 -268 119c-46 0 -66 -48 -69 -101h-201c0 187 117 293 251 293c146 0 199 -119 268 -119c46 0 66 44 69 106h201c0 -187 -117 -298 -251 -298z" />
    <glyph glyph-name="omacronacute" unicode="&#x1e53;" horiz-adv-x="1278" 
d="M639 -28c-365 0 -589 212 -589 591c0 369 230 589 589 589c361 0 589 -218 589 -589c0 -380 -223 -591 -589 -591zM639 266c107 0 173 105 173 296c0 186 -67 296 -173 296s-173 -110 -173 -296c0 -191 65 -296 173 -296zM497 1651l202 281h322l-238 -281h-286zM991 1456
v-180h-704v180h704z" />
    <glyph glyph-name="ocircumflextilde" unicode="&#x1ed7;" horiz-adv-x="1278" 
d="M639 -28c-365 0 -589 212 -589 591c0 369 230 589 589 589c361 0 589 -218 589 -589c0 -380 -223 -591 -589 -591zM639 266c107 0 173 105 173 296c0 186 -67 296 -173 296s-173 -110 -173 -296c0 -191 65 -296 173 -296zM796 1572l255 -316h-284l-124 164h-8l-124 -164
h-284l255 316h314zM782 1639c-146 0 -198 119 -267 119c-46 0 -66 -48 -69 -101h-201c0 187 117 293 251 293c146 0 198 -119 267 -119c46 0 66 44 69 106h201c0 -187 -117 -298 -251 -298z" />
    <glyph glyph-name="odotaccentmacron" unicode="&#x231;" horiz-adv-x="1278" 
d="M639 -28c-365 0 -589 212 -589 591c0 369 230 589 589 589c361 0 589 -218 589 -589c0 -380 -223 -591 -589 -591zM639 266c107 0 173 105 173 296c0 186 -67 296 -173 296s-173 -110 -173 -296c0 -191 65 -296 173 -296zM639 1242c-100 0 -177 78 -177 173
s77 173 177 173s177 -78 177 -173s-77 -173 -177 -173zM991 1850v-180h-704v180h704z" />
    <glyph glyph-name="omacrongrave" unicode="&#x1e51;" horiz-adv-x="1278" 
d="M639 -28c-365 0 -589 212 -589 591c0 369 230 589 589 589c361 0 589 -218 589 -589c0 -380 -223 -591 -589 -591zM639 266c107 0 173 105 173 296c0 186 -67 296 -173 296s-173 -110 -173 -296c0 -191 65 -296 173 -296zM775 1645h-261l-233 287h322zM991 1456v-180
h-704v180h704z" />
    <glyph glyph-name="ocaron" unicode="&#x1d2;" horiz-adv-x="1278" 
d="M639 -28c-365 0 -589 212 -589 591c0 369 230 589 589 589c361 0 589 -218 589 -589c0 -380 -223 -591 -589 -591zM639 266c107 0 173 105 173 296c0 186 -67 296 -173 296s-173 -110 -173 -296c0 -191 65 -296 173 -296zM796 1256h-314l-255 336h284l124 -180h8l124 180
h284z" />
    <glyph glyph-name="oslashacute" unicode="&#x1ff;" horiz-adv-x="1278" 
d="M1053 1596l-265 -321h-314l232 321h347zM798 694l-237 -405c23 -15 49 -23 78 -23c107 0 173 105 173 296c0 50 -5 94 -14 132zM487 400l244 422c-25 24 -56 36 -92 36c-106 0 -173 -110 -173 -296c0 -64 7 -118 21 -162zM1072 1163l-66 -114c141 -98 222 -265 222 -486
c0 -380 -223 -591 -589 -591c-89 0 -170 13 -241 37l-65 -111l-103 58l60 104c-153 96 -240 267 -240 503c0 369 230 589 589 589c96 0 182 -15 257 -45l64 110z" />
    <glyph glyph-name="ohungarumlaut" unicode="&#x151;" horiz-adv-x="1278" 
d="M639 -28c-365 0 -589 212 -589 591c0 369 230 589 589 589c361 0 589 -218 589 -589c0 -380 -223 -591 -589 -591zM639 266c107 0 173 105 173 296c0 186 -67 296 -173 296s-173 -110 -173 -296c0 -191 65 -296 173 -296zM699 1276l182 320h309l-211 -320h-280zM274 1276
l183 320h308l-211 -320h-280z" />
    <glyph glyph-name="obreve" unicode="&#x14f;" horiz-adv-x="1278" 
d="M639 -28c-365 0 -589 212 -589 591c0 369 230 589 589 589c361 0 589 -218 589 -589c0 -380 -223 -591 -589 -591zM639 266c107 0 173 105 173 296c0 186 -67 296 -173 296s-173 -110 -173 -296c0 -191 65 -296 173 -296zM244 1590h236c4 -86 59 -148 159 -148
s155 62 159 148h236c-6 -180 -143 -334 -395 -334s-389 154 -395 334z" />
    <glyph glyph-name="oinvertedbreve" unicode="&#x20f;" horiz-adv-x="1278" 
d="M639 -28c-365 0 -589 212 -589 591c0 369 230 589 589 589c361 0 589 -218 589 -589c0 -380 -223 -591 -589 -591zM639 266c107 0 173 105 173 296c0 186 -67 296 -173 296s-173 -110 -173 -296c0 -191 65 -296 173 -296zM244 1256c6 180 143 334 395 334
s389 -154 395 -334h-236c-4 86 -59 148 -159 148s-155 -62 -159 -148h-236z" />
    <glyph glyph-name="ohookabove" unicode="&#x1ecf;" horiz-adv-x="1278" 
d="M639 -28c-365 0 -589 212 -589 591c0 369 230 589 589 589c361 0 589 -218 589 -589c0 -380 -223 -591 -589 -591zM639 266c107 0 173 105 173 296c0 186 -67 296 -173 296s-173 -110 -173 -296c0 -191 65 -296 173 -296zM451 1538v164c37 16 115 30 165 30
c169 0 277 -93 277 -238c0 -104 -78 -201 -216 -268l-108 125c73 38 99 70 99 122c0 50 -45 83 -115 83c-36 0 -74 -7 -102 -18z" />
    <glyph glyph-name="odieresismacron" unicode="&#x22b;" horiz-adv-x="1278" 
d="M639 -28c-365 0 -589 212 -589 591c0 369 230 589 589 589c361 0 589 -218 589 -589c0 -380 -223 -591 -589 -591zM639 266c107 0 173 105 173 296c0 186 -67 296 -173 296s-173 -110 -173 -296c0 -191 65 -296 173 -296zM430 1255c-86 0 -149 64 -149 141
c0 78 63 141 149 141s149 -63 149 -141c0 -77 -63 -141 -149 -141zM848 1255c-86 0 -149 64 -149 141c0 78 63 141 149 141s149 -63 149 -141c0 -77 -63 -141 -149 -141zM991 1840v-180h-704v180h704z" />
    <glyph glyph-name="otildemacron" unicode="&#x22d;" horiz-adv-x="1278" 
d="M639 -28c-365 0 -589 212 -589 591c0 369 230 589 589 589c361 0 589 -218 589 -589c0 -380 -223 -591 -589 -591zM639 266c107 0 173 105 173 296c0 186 -67 296 -173 296s-173 -110 -173 -296c0 -191 65 -296 173 -296zM792 1258c-146 0 -199 119 -268 119
c-46 0 -66 -48 -69 -101h-201c0 187 117 293 251 293c146 0 199 -119 268 -119c46 0 66 44 69 106h201c0 -187 -117 -298 -251 -298zM991 1840v-180h-704v180h704z" />
    <glyph glyph-name="odotaccent" unicode="&#x22f;" horiz-adv-x="1278" 
d="M639 -28c-365 0 -589 212 -589 591c0 369 230 589 589 589c361 0 589 -218 589 -589c0 -380 -223 -591 -589 -591zM639 266c107 0 173 105 173 296c0 186 -67 296 -173 296s-173 -110 -173 -296c0 -191 65 -296 173 -296zM637 1264c-100 0 -177 78 -177 173
s77 173 177 173s177 -78 177 -173s-77 -173 -177 -173z" />
    <glyph glyph-name="ocircumflexdotbelow" unicode="&#x1ed9;" horiz-adv-x="1278" 
d="M639 -28c-365 0 -589 212 -589 591c0 369 230 589 589 589c361 0 589 -218 589 -589c0 -380 -223 -591 -589 -591zM639 266c107 0 173 105 173 296c0 186 -67 296 -173 296s-173 -110 -173 -296c0 -191 65 -296 173 -296zM796 1592l255 -336h-284l-124 180h-8l-124 -180
h-284l255 336h314zM639 -524c-100 0 -177 80 -177 177s77 176 177 176s177 -79 177 -176s-77 -177 -177 -177z" />
    <glyph glyph-name="ocircumflexacute" unicode="&#x1ed1;" horiz-adv-x="1278" 
d="M639 -28c-365 0 -589 212 -589 591c0 369 230 589 589 589c361 0 589 -218 589 -589c0 -380 -223 -591 -589 -591zM639 266c107 0 173 105 173 296c0 186 -67 296 -173 296s-173 -110 -173 -296c0 -191 65 -296 173 -296zM796 1592l255 -336h-284l-124 180h-8l-124 -180
h-284l255 336h314zM773 1651l202 281h322l-238 -281h-286z" />
    <glyph glyph-name="otildedieresis" unicode="&#x1e4f;" horiz-adv-x="1278" 
d="M639 -28c-365 0 -589 212 -589 591c0 369 230 589 589 589c361 0 589 -218 589 -589c0 -380 -223 -591 -589 -591zM639 266c107 0 173 105 173 296c0 186 -67 296 -173 296s-173 -110 -173 -296c0 -191 65 -296 173 -296zM430 1658c-86 0 -149 64 -149 141
c0 78 63 141 149 141s149 -63 149 -141c0 -77 -63 -141 -149 -141zM848 1658c-86 0 -149 64 -149 141c0 78 63 141 149 141s149 -63 149 -141c0 -77 -63 -141 -149 -141zM792 1258c-146 0 -199 119 -268 119c-46 0 -66 -48 -69 -101h-201c0 187 117 293 251 293
c146 0 199 -119 268 -119c46 0 66 44 69 106h201c0 -187 -117 -298 -251 -298z" />
    <glyph glyph-name="omacron" unicode="&#x14d;" horiz-adv-x="1278" 
d="M639 -28c-365 0 -589 212 -589 591c0 369 230 589 589 589c361 0 589 -218 589 -589c0 -380 -223 -591 -589 -591zM639 266c107 0 173 105 173 296c0 186 -67 296 -173 296s-173 -110 -173 -296c0 -191 65 -296 173 -296zM991 1456v-180h-704v180h704z" />
    <glyph glyph-name="oogonek" unicode="&#x1eb;" horiz-adv-x="1278" 
d="M856 -494c-181 0 -294 98 -294 240c0 93 45 177 139 221v8c-24 -2 -37 -3 -62 -3c-365 0 -589 212 -589 591c0 369 230 589 589 589c361 0 589 -218 589 -589c0 -209 -80 -366 -202 -467c-133 -110 -194 -192 -194 -276c0 -69 42 -104 124 -104c32 0 63 4 72 9v-193
c-39 -17 -98 -26 -172 -26zM639 266c107 0 173 105 173 296c0 186 -67 296 -173 296s-173 -110 -173 -296c0 -191 65 -296 173 -296z" />
    <glyph glyph-name="oogonekmacron" unicode="&#x1ed;" horiz-adv-x="1278" 
d="M991 1456v-180h-704v180h704zM856 -494c-181 0 -294 98 -294 240c0 93 45 177 139 221v8c-24 -2 -37 -3 -62 -3c-365 0 -589 212 -589 591c0 369 230 589 589 589c361 0 589 -218 589 -589c0 -209 -80 -366 -202 -467c-133 -110 -194 -192 -194 -276
c0 -69 42 -104 124 -104c32 0 63 4 72 9v-193c-39 -17 -98 -26 -172 -26zM639 266c107 0 173 105 173 296c0 186 -67 296 -173 296s-173 -110 -173 -296c0 -191 65 -296 173 -296z" />
    <glyph glyph-name="ohorn" unicode="&#x1a1;" horiz-adv-x="1400" 
d="M639 266c109 0 173 109 173 296c0 184 -66 296 -173 296s-173 -112 -173 -296c0 -188 63 -296 173 -296zM1227 526c0 -330 -233 -554 -578 -554c-380 0 -599 217 -599 591c0 364 225 589 589 589c158 0 214 -48 314 -48c79 0 111 23 111 78v153h303v-252
c0 -148 -70 -218 -217 -218h-36v-8c73 -73 113 -191 113 -331z" />
    <glyph glyph-name="ohorndotbelow" unicode="&#x1ee3;" horiz-adv-x="1400" 
d="M639 -524c-100 0 -177 80 -177 177s77 176 177 176s177 -79 177 -176s-77 -177 -177 -177zM639 266c109 0 173 109 173 296c0 184 -66 296 -173 296s-173 -112 -173 -296c0 -188 63 -296 173 -296zM1227 526c0 -330 -233 -554 -578 -554c-380 0 -599 217 -599 591
c0 364 225 589 589 589c158 0 214 -48 314 -48c79 0 111 23 111 78v153h303v-252c0 -148 -70 -218 -217 -218h-36v-8c73 -73 113 -191 113 -331z" />
    <glyph glyph-name="ohornhookabove" unicode="&#x1edf;" horiz-adv-x="1400" 
d="M451 1538v164c37 16 115 30 165 30c169 0 277 -93 277 -238c0 -104 -78 -201 -216 -268l-108 125c73 38 99 70 99 122c0 50 -45 83 -115 83c-36 0 -74 -7 -102 -18zM639 266c109 0 173 109 173 296c0 184 -66 296 -173 296s-173 -112 -173 -296c0 -188 63 -296 173 -296z
M1227 526c0 -330 -233 -554 -578 -554c-380 0 -599 217 -599 591c0 364 225 589 589 589c158 0 214 -48 314 -48c79 0 111 23 111 78v153h303v-252c0 -148 -70 -218 -217 -218h-36v-8c73 -73 113 -191 113 -331z" />
    <glyph glyph-name="ohorntilde" unicode="&#x1ee1;" horiz-adv-x="1400" 
d="M792 1258c-146 0 -199 119 -268 119c-46 0 -66 -48 -69 -101h-201c0 187 117 293 251 293c146 0 199 -119 268 -119c46 0 66 44 69 106h201c0 -187 -117 -298 -251 -298zM639 266c109 0 173 109 173 296c0 184 -66 296 -173 296s-173 -112 -173 -296
c0 -188 63 -296 173 -296zM1227 526c0 -330 -233 -554 -578 -554c-380 0 -599 217 -599 591c0 364 225 589 589 589c158 0 214 -48 314 -48c79 0 111 23 111 78v153h303v-252c0 -148 -70 -218 -217 -218h-36v-8c73 -73 113 -191 113 -331z" />
    <glyph glyph-name="ohorngrave" unicode="&#x1edd;" horiz-adv-x="1400" 
d="M813 1275h-314l-265 321h347zM639 266c109 0 173 109 173 296c0 184 -66 296 -173 296s-173 -112 -173 -296c0 -188 63 -296 173 -296zM1227 526c0 -330 -233 -554 -578 -554c-380 0 -599 217 -599 591c0 364 225 589 589 589c158 0 214 -48 314 -48c79 0 111 23 111 78
v153h303v-252c0 -148 -70 -218 -217 -218h-36v-8c73 -73 113 -191 113 -331z" />
    <glyph glyph-name="ohornacute" unicode="&#x1edb;" horiz-adv-x="1400" 
d="M788 1275h-314l232 321h347zM639 266c109 0 173 109 173 296c0 184 -66 296 -173 296s-173 -112 -173 -296c0 -188 63 -296 173 -296zM1227 526c0 -330 -233 -554 -578 -554c-380 0 -599 217 -599 591c0 364 225 589 589 589c158 0 214 -48 314 -48c79 0 111 23 111 78
v153h303v-252c0 -148 -70 -218 -217 -218h-36v-8c73 -73 113 -191 113 -331z" />
    <glyph glyph-name="p" unicode="p" horiz-adv-x="1325" 
d="M833 1140c284 0 442 -207 442 -578c0 -370 -157 -578 -437 -578c-165 0 -288 79 -340 210h-8v-554h-410v1484h410v-202h8c54 137 174 218 335 218zM672 301c112 0 183 101 183 261c0 159 -72 261 -183 261c-112 0 -183 -102 -184 -262c1 -161 71 -260 184 -260z" />
    <glyph glyph-name="pdotaccent" unicode="&#x1e57;" horiz-adv-x="1325" 
d="M833 1140c284 0 442 -207 442 -578c0 -370 -157 -578 -437 -578c-165 0 -288 79 -340 210h-8v-554h-410v1484h410v-202h8c54 137 174 218 335 218zM672 301c112 0 183 101 183 261c0 159 -72 261 -183 261c-112 0 -183 -102 -184 -262c1 -161 71 -260 184 -260zM661 1264
c-100 0 -177 78 -177 173s77 173 177 173s177 -78 177 -173s-77 -173 -177 -173z" />
    <glyph glyph-name="pacute" unicode="&#x1e55;" horiz-adv-x="1325" 
d="M833 1140c284 0 442 -207 442 -578c0 -370 -157 -578 -437 -578c-165 0 -288 79 -340 210h-8v-554h-410v1484h410v-202h8c54 137 174 218 335 218zM672 301c112 0 183 101 183 261c0 159 -72 261 -183 261c-112 0 -183 -102 -184 -262c1 -161 71 -260 184 -260zM812 1275
h-314l232 321h347z" />
    <glyph glyph-name="q" unicode="q" horiz-adv-x="1325" 
d="M496 1140c164 0 287 -92 331 -218h8v202h410v-1484h-410v554h-8c-38 -118 -169 -210 -337 -210c-277 0 -440 215 -440 581c0 361 166 575 446 575zM653 301c116 0 184 96 184 260c0 163 -69 262 -184 262c-114 0 -183 -99 -183 -261c0 -164 68 -261 183 -261z" />
    <glyph glyph-name="r" unicode="r" horiz-adv-x="868" 
d="M80 0v1124h400v-220h8c42 159 129 236 263 236c37 0 70 -6 97 -16v-345c-35 15 -78 23 -121 23c-156 0 -237 -81 -237 -238v-564h-410z" />
    <glyph glyph-name="rcaron" unicode="&#x159;" horiz-adv-x="868" 
d="M80 0v1124h400v-220h8c42 159 129 236 263 236c37 0 70 -6 97 -16v-345c-35 15 -78 23 -121 23c-156 0 -237 -81 -237 -238v-564h-410zM597 1256h-314l-255 336h284l124 -180h8l124 180h284z" />
    <glyph glyph-name="rlinebelow" unicode="&#x1e5f;" horiz-adv-x="868" 
d="M80 0v1124h400v-220h8c42 159 129 236 263 236c37 0 70 -6 97 -16v-345c-35 15 -78 23 -121 23c-156 0 -237 -81 -237 -238v-564h-410zM663 -240v-180h-748v180h748z" />
    <glyph glyph-name="rdotbelowmacron" unicode="&#x1e5d;" horiz-adv-x="868" 
d="M80 0v1124h400v-220h8c42 159 129 236 263 236c37 0 70 -6 97 -16v-345c-35 15 -78 23 -121 23c-156 0 -237 -81 -237 -238v-564h-410zM289 -524c-100 0 -177 80 -177 177s77 176 177 176s177 -79 177 -176s-77 -177 -177 -177zM792 1456v-180h-704v180h704z" />
    <glyph glyph-name="rdblgrave" unicode="&#x211;" horiz-adv-x="868" 
d="M80 0v1124h400v-220h8c42 159 129 236 263 236c37 0 70 -6 97 -16v-345c-35 15 -78 23 -121 23c-156 0 -237 -81 -237 -238v-564h-410zM380 1276h-280l-211 320h309zM805 1276h-280l-211 320h308z" />
    <glyph glyph-name="rinvertedbreve" unicode="&#x213;" horiz-adv-x="868" 
d="M80 0v1124h400v-220h8c42 159 129 236 263 236c37 0 70 -6 97 -16v-345c-35 15 -78 23 -121 23c-156 0 -237 -81 -237 -238v-564h-410zM45 1256c6 180 143 334 395 334s389 -154 395 -334h-236c-4 86 -59 148 -159 148s-155 -62 -159 -148h-236z" />
    <glyph glyph-name="racute" unicode="&#x155;" horiz-adv-x="868" 
d="M80 0v1124h400v-220h8c42 159 129 236 263 236c37 0 70 -6 97 -16v-345c-35 15 -78 23 -121 23c-156 0 -237 -81 -237 -238v-564h-410zM589 1275h-314l232 321h347z" />
    <glyph glyph-name="rdotbelow" unicode="&#x1e5b;" horiz-adv-x="868" 
d="M80 0v1124h400v-220h8c42 159 129 236 263 236c37 0 70 -6 97 -16v-345c-35 15 -78 23 -121 23c-156 0 -237 -81 -237 -238v-564h-410zM289 -524c-100 0 -177 80 -177 177s77 176 177 176s177 -79 177 -176s-77 -177 -177 -177z" />
    <glyph glyph-name="rdotaccent" unicode="&#x1e59;" horiz-adv-x="868" 
d="M80 0v1124h400v-220h8c42 159 129 236 263 236c37 0 70 -6 97 -16v-345c-35 15 -78 23 -121 23c-156 0 -237 -81 -237 -238v-564h-410zM438 1264c-100 0 -177 78 -177 173s77 173 177 173s177 -78 177 -173s-77 -173 -177 -173z" />
    <glyph glyph-name="rcommaaccent" unicode="&#x157;" horiz-adv-x="868" 
d="M80 0v1124h400v-220h8c42 159 129 236 263 236c37 0 70 -6 97 -16v-345c-35 15 -78 23 -121 23c-156 0 -237 -81 -237 -238v-564h-410zM260 -457h-308l152 321h359z" />
    <glyph glyph-name="s" unicode="s" horiz-adv-x="1172" 
d="M60 776c0 233 198 376 523 376s521 -146 521 -390h-372c-1 74 -60 121 -152 121c-77 0 -127 -32 -127 -80c0 -36 37 -62 111 -76l251 -50c223 -44 322 -139 322 -310c0 -243 -218 -395 -545 -395c-348 0 -543 153 -557 391h396c9 -76 71 -122 166 -122
c84 0 134 29 134 77c0 37 -30 58 -108 73l-216 43c-226 45 -347 165 -347 342z" />
    <glyph glyph-name="scaron" unicode="&#x161;" horiz-adv-x="1172" 
d="M60 776c0 233 198 376 523 376s521 -146 521 -390h-372c-1 74 -60 121 -152 121c-77 0 -127 -32 -127 -80c0 -36 37 -62 111 -76l251 -50c223 -44 322 -139 322 -310c0 -243 -218 -395 -545 -395c-348 0 -543 153 -557 391h396c9 -76 71 -122 166 -122
c84 0 134 29 134 77c0 37 -30 58 -108 73l-216 43c-226 45 -347 165 -347 342zM743 1256h-314l-255 336h284l124 -180h8l124 180h284z" />
    <glyph glyph-name="scedilla" unicode="&#x15f;" horiz-adv-x="1172" 
d="M564 727l251 -50c223 -44 322 -139 322 -310c0 -218 -175 -363 -447 -390l-34 -66c96 0 162 -66 162 -168c0 -129 -88 -195 -263 -195c-55 0 -107 5 -133 15v141c25 -8 63 -12 99 -12c66 0 94 11 94 37c0 35 -25 46 -100 46h-56v127l41 74c-290 25 -452 171 -465 387h396
c9 -76 71 -122 166 -122c84 0 134 29 134 77c0 37 -30 58 -108 73l-216 43c-226 45 -347 165 -347 342c0 233 198 376 523 376s521 -146 521 -390h-372c-1 74 -60 121 -152 121c-77 0 -127 -32 -127 -80c0 -36 37 -62 111 -76z" />
    <glyph glyph-name="sdotaccent" unicode="&#x1e61;" horiz-adv-x="1172" 
d="M60 776c0 233 198 376 523 376s521 -146 521 -390h-372c-1 74 -60 121 -152 121c-77 0 -127 -32 -127 -80c0 -36 37 -62 111 -76l251 -50c223 -44 322 -139 322 -310c0 -243 -218 -395 -545 -395c-348 0 -543 153 -557 391h396c9 -76 71 -122 166 -122
c84 0 134 29 134 77c0 37 -30 58 -108 73l-216 43c-226 45 -347 165 -347 342zM584 1264c-100 0 -177 78 -177 173s77 173 177 173s177 -78 177 -173s-77 -173 -177 -173z" />
    <glyph glyph-name="sdotbelow" unicode="&#x1e63;" horiz-adv-x="1172" 
d="M60 776c0 233 198 376 523 376s521 -146 521 -390h-372c-1 74 -60 121 -152 121c-77 0 -127 -32 -127 -80c0 -36 37 -62 111 -76l251 -50c223 -44 322 -139 322 -310c0 -243 -218 -395 -545 -395c-348 0 -543 153 -557 391h396c9 -76 71 -122 166 -122
c84 0 134 29 134 77c0 37 -30 58 -108 73l-216 43c-226 45 -347 165 -347 342zM586 -524c-100 0 -177 80 -177 177s77 176 177 176s177 -79 177 -176s-77 -177 -177 -177z" />
    <glyph glyph-name="scommaaccent" unicode="&#x219;" horiz-adv-x="1172" 
d="M60 776c0 233 198 376 523 376s521 -146 521 -390h-372c-1 74 -60 121 -152 121c-77 0 -127 -32 -127 -80c0 -36 37 -62 111 -76l251 -50c223 -44 322 -139 322 -310c0 -243 -218 -395 -545 -395c-348 0 -543 153 -557 391h396c9 -76 71 -122 166 -122
c84 0 134 29 134 77c0 37 -30 58 -108 73l-216 43c-226 45 -347 165 -347 342zM557 -457h-308l152 321h359z" />
    <glyph glyph-name="sdotbelowdotaccent" unicode="&#x1e69;" horiz-adv-x="1172" 
d="M60 776c0 233 198 376 523 376s521 -146 521 -390h-372c-1 74 -60 121 -152 121c-77 0 -127 -32 -127 -80c0 -36 37 -62 111 -76l251 -50c223 -44 322 -139 322 -310c0 -243 -218 -395 -545 -395c-348 0 -543 153 -557 391h396c9 -76 71 -122 166 -122
c84 0 134 29 134 77c0 37 -30 58 -108 73l-216 43c-226 45 -347 165 -347 342zM586 -524c-100 0 -177 80 -177 177s77 176 177 176s177 -79 177 -176s-77 -177 -177 -177zM584 1264c-100 0 -177 78 -177 173s77 173 177 173s177 -78 177 -173s-77 -173 -177 -173z" />
    <glyph glyph-name="scarondotaccent" unicode="&#x1e67;" horiz-adv-x="1172" 
d="M60 776c0 233 198 376 523 376s521 -146 521 -390h-372c-1 74 -60 121 -152 121c-77 0 -127 -32 -127 -80c0 -36 37 -62 111 -76l251 -50c223 -44 322 -139 322 -310c0 -243 -218 -395 -545 -395c-348 0 -543 153 -557 391h396c9 -76 71 -122 166 -122
c84 0 134 29 134 77c0 37 -30 58 -108 73l-216 43c-226 45 -347 165 -347 342zM745 1256h-314l-255 336h284l124 -180h8l124 180h284zM588 1672c-89 0 -159 70 -159 156c0 85 70 156 159 156s159 -71 159 -156c0 -86 -70 -156 -159 -156z" />
    <glyph glyph-name="scircumflex" unicode="&#x15d;" horiz-adv-x="1172" 
d="M60 776c0 233 198 376 523 376s521 -146 521 -390h-372c-1 74 -60 121 -152 121c-77 0 -127 -32 -127 -80c0 -36 37 -62 111 -76l251 -50c223 -44 322 -139 322 -310c0 -243 -218 -395 -545 -395c-348 0 -543 153 -557 391h396c9 -76 71 -122 166 -122
c84 0 134 29 134 77c0 37 -30 58 -108 73l-216 43c-226 45 -347 165 -347 342zM743 1592l255 -336h-284l-124 180h-8l-124 -180h-284l255 336h314z" />
    <glyph glyph-name="sacutedotaccent" unicode="&#x1e65;" horiz-adv-x="1172" 
d="M60 776c0 233 198 376 523 376s521 -146 521 -390h-372c-1 74 -60 121 -152 121c-77 0 -127 -32 -127 -80c0 -36 37 -62 111 -76l251 -50c223 -44 322 -139 322 -310c0 -243 -218 -395 -545 -395c-348 0 -543 153 -557 391h396c9 -76 71 -122 166 -122
c84 0 134 29 134 77c0 37 -30 58 -108 73l-216 43c-226 45 -347 165 -347 342zM916 1275h-314l232 321h347zM353 1269c-100 0 -177 78 -177 173s77 173 177 173s177 -78 177 -173s-77 -173 -177 -173z" />
    <glyph glyph-name="sacute" unicode="&#x15b;" horiz-adv-x="1172" 
d="M60 776c0 233 198 376 523 376s521 -146 521 -390h-372c-1 74 -60 121 -152 121c-77 0 -127 -32 -127 -80c0 -36 37 -62 111 -76l251 -50c223 -44 322 -139 322 -310c0 -243 -218 -395 -545 -395c-348 0 -543 153 -557 391h396c9 -76 71 -122 166 -122
c84 0 134 29 134 77c0 37 -30 58 -108 73l-216 43c-226 45 -347 165 -347 342zM735 1275h-314l232 321h347z" />
    <glyph glyph-name="t" unicode="t" horiz-adv-x="847" 
d="M179 1371h410v-247h198v-298h-198v-423c0 -71 41 -108 127 -108c31 0 47 1 71 5v-285c-39 -8 -92 -15 -170 -15c-314 0 -438 91 -438 313v513h-149v298h149v247z" />
    <glyph glyph-name="tcircumflexbelow" unicode="&#x1e71;" horiz-adv-x="847" 
d="M179 1371h410v-247h198v-298h-198v-423c0 -71 41 -108 127 -108c31 0 47 1 71 5v-285c-39 -8 -92 -15 -170 -15c-314 0 -438 91 -438 313v513h-149v298h149v247zM324 -154h314l255 -336h-276l-132 192h-8l-132 -192h-276z" />
    <glyph glyph-name="tdotbelow" unicode="&#x1e6d;" horiz-adv-x="847" 
d="M179 1371h410v-247h198v-298h-198v-423c0 -71 41 -108 127 -108c31 0 47 1 71 5v-285c-39 -8 -92 -15 -170 -15c-314 0 -438 91 -438 313v513h-149v298h149v247zM481 -524c-100 0 -177 80 -177 177s77 176 177 176s177 -79 177 -176s-77 -177 -177 -177z" />
    <glyph glyph-name="tcommaaccent" unicode="&#x21b;" horiz-adv-x="847" 
d="M179 1371h410v-247h198v-298h-198v-423c0 -71 41 -108 127 -108c31 0 47 1 71 5v-285c-39 -8 -92 -15 -170 -15c-314 0 -438 91 -438 313v513h-149v298h149v247zM452 -457h-308l152 321h359z" />
    <glyph glyph-name="tdotaccent" unicode="&#x1e6b;" horiz-adv-x="847" 
d="M179 1371h410v-247h198v-298h-198v-423c0 -71 41 -108 127 -108c31 0 47 1 71 5v-285c-39 -8 -92 -15 -170 -15c-314 0 -438 91 -438 313v513h-149v298h149v247zM385 1486c-100 0 -177 78 -177 173s77 173 177 173s177 -78 177 -173s-77 -173 -177 -173z" />
    <glyph glyph-name="tcedilla" unicode="&#x163;" horiz-adv-x="847" 
d="M787 826h-198v-423c0 -71 41 -108 127 -108c31 0 47 1 71 5v-285c-39 -8 -92 -15 -170 -15l-46 -89c96 0 162 -66 162 -168c0 -129 -88 -195 -263 -195c-55 0 -107 5 -133 15v141c25 -8 63 -12 99 -12c66 0 94 11 94 37c0 35 -25 46 -100 46h-56v127l62 112
c-182 33 -257 126 -257 299v513h-149v298h149v247h410v-247h198v-298z" />
    <glyph glyph-name="tlinebelow" unicode="&#x1e6f;" horiz-adv-x="847" 
d="M179 1371h410v-247h198v-298h-198v-423c0 -71 41 -108 127 -108c31 0 47 1 71 5v-285c-39 -8 -92 -15 -170 -15c-314 0 -438 91 -438 313v513h-149v298h149v247zM855 -240v-180h-748v180h748z" />
    <glyph glyph-name="tcaron" unicode="&#x165;" horiz-adv-x="947" 
d="M736 1768h293l-50 -518h-243v518zM179 1371h410v-247h198v-298h-198v-423c0 -71 41 -108 127 -108c31 0 47 1 71 5v-285c-39 -8 -92 -15 -170 -15c-314 0 -438 91 -438 313v513h-149v298h149v247z" />
    <glyph glyph-name="tbar" unicode="&#x167;" horiz-adv-x="947" 
d="M841 490h-252v-87c0 -71 41 -108 127 -108c31 0 47 1 71 5v-285c-39 -8 -92 -15 -170 -15c-314 0 -438 91 -438 313v177h-128v176h128v160h-149v298h149v247h410v-247h198v-298h-198v-160h252v-176z" />
    <glyph glyph-name="tdieresis" unicode="&#x1e97;" horiz-adv-x="847" 
d="M179 1371h410v-247h198v-298h-198v-423c0 -71 41 -108 127 -108c31 0 47 1 71 5v-285c-39 -8 -92 -15 -170 -15c-314 0 -438 91 -438 313v513h-149v298h149v247zM165 1478c-92 0 -158 68 -158 150c0 83 66 150 158 150s158 -67 158 -150c0 -82 -66 -150 -158 -150z
M609 1478c-92 0 -158 68 -158 150c0 83 66 150 158 150s158 -67 158 -150c0 -82 -66 -150 -158 -150z" />
    <glyph glyph-name="u" unicode="u" horiz-adv-x="1299" 
d="M1219 1124v-1124h-400v220h-8c-45 -152 -151 -242 -319 -242c-241 0 -417 158 -417 425v721h410v-629c0 -121 65 -186 165 -186c96 0 159 74 159 186v629h410z" />
    <glyph glyph-name="ugrave" unicode="&#xf9;" horiz-adv-x="1299" 
d="M1219 1124v-1124h-400v220h-8c-45 -152 -151 -242 -319 -242c-241 0 -417 158 -417 425v721h410v-629c0 -121 65 -186 165 -186c96 0 159 74 159 186v629h410zM824 1275h-314l-265 321h347z" />
    <glyph glyph-name="udblgrave" unicode="&#x215;" horiz-adv-x="1299" 
d="M1219 1124v-1124h-400v220h-8c-45 -152 -151 -242 -319 -242c-241 0 -417 158 -417 425v721h410v-629c0 -121 65 -186 165 -186c96 0 159 74 159 186v629h410zM590 1276h-280l-211 320h309zM1015 1276h-280l-211 320h308z" />
    <glyph glyph-name="uacute" unicode="&#xfa;" horiz-adv-x="1299" 
d="M1219 1124v-1124h-400v220h-8c-45 -152 -151 -242 -319 -242c-241 0 -417 158 -417 425v721h410v-629c0 -121 65 -186 165 -186c96 0 159 74 159 186v629h410zM799 1275h-314l232 321h347z" />
    <glyph glyph-name="uhungarumlaut" unicode="&#x171;" horiz-adv-x="1299" 
d="M1219 1124v-1124h-400v220h-8c-45 -152 -151 -242 -319 -242c-241 0 -417 158 -417 425v721h410v-629c0 -121 65 -186 165 -186c96 0 159 74 159 186v629h410zM710 1276l182 320h309l-211 -320h-280zM285 1276l183 320h308l-211 -320h-280z" />
    <glyph glyph-name="ucircumflex" unicode="&#xfb;" horiz-adv-x="1299" 
d="M1219 1124v-1124h-400v220h-8c-45 -152 -151 -242 -319 -242c-241 0 -417 158 -417 425v721h410v-629c0 -121 65 -186 165 -186c96 0 159 74 159 186v629h410zM807 1592l255 -336h-284l-124 180h-8l-124 -180h-284l255 336h314z" />
    <glyph glyph-name="ucaron" unicode="&#x1d4;" horiz-adv-x="1299" 
d="M1219 1124v-1124h-400v220h-8c-45 -152 -151 -242 -319 -242c-241 0 -417 158 -417 425v721h410v-629c0 -121 65 -186 165 -186c96 0 159 74 159 186v629h410zM807 1256h-314l-255 336h284l124 -180h8l124 180h284z" />
    <glyph glyph-name="ucircumflexbelow" unicode="&#x1e77;" horiz-adv-x="1299" 
d="M1219 1124v-1124h-400v220h-8c-45 -152 -151 -242 -319 -242c-241 0 -417 158 -417 425v721h410v-629c0 -121 65 -186 165 -186c96 0 159 74 159 186v629h410zM493 -154h314l255 -336h-276l-132 192h-8l-132 -192h-276z" />
    <glyph glyph-name="udieresis" unicode="&#xfc;" horiz-adv-x="1299" 
d="M1219 1124v-1124h-400v220h-8c-45 -152 -151 -242 -319 -242c-241 0 -417 158 -417 425v721h410v-629c0 -121 65 -186 165 -186c96 0 159 74 159 186v629h410zM428 1256c-92 0 -158 68 -158 150c0 83 66 150 158 150s158 -67 158 -150c0 -82 -66 -150 -158 -150z
M872 1256c-92 0 -158 68 -158 150c0 83 66 150 158 150s158 -67 158 -150c0 -82 -66 -150 -158 -150z" />
    <glyph glyph-name="udieresisgrave" unicode="&#x1dc;" horiz-adv-x="1299" 
d="M1219 1124v-1124h-400v220h-8c-45 -152 -151 -242 -319 -242c-241 0 -417 158 -417 425v721h410v-629c0 -121 65 -186 165 -186c96 0 159 74 159 186v629h410zM802 1675h-282l-244 275h343zM428 1256c-92 0 -158 68 -158 150c0 83 66 150 158 150s158 -67 158 -150
c0 -82 -66 -150 -158 -150zM872 1256c-92 0 -158 68 -158 150c0 83 66 150 158 150s158 -67 158 -150c0 -82 -66 -150 -158 -150z" />
    <glyph glyph-name="udieresisacute" unicode="&#x1d8;" horiz-adv-x="1299" 
d="M1219 1124v-1124h-400v220h-8c-45 -152 -151 -242 -319 -242c-241 0 -417 158 -417 425v721h410v-629c0 -121 65 -186 165 -186c96 0 159 74 159 186v629h410zM508 1651l202 281h322l-238 -281h-286zM428 1256c-92 0 -158 68 -158 150c0 83 66 150 158 150
s158 -67 158 -150c0 -82 -66 -150 -158 -150zM872 1256c-92 0 -158 68 -158 150c0 83 66 150 158 150s158 -67 158 -150c0 -82 -66 -150 -158 -150z" />
    <glyph glyph-name="udieresismacron" unicode="&#x1d6;" horiz-adv-x="1299" 
d="M1219 1124v-1124h-400v220h-8c-45 -152 -151 -242 -319 -242c-241 0 -417 158 -417 425v721h410v-629c0 -121 65 -186 165 -186c96 0 159 74 159 186v629h410zM441 1255c-86 0 -149 64 -149 141c0 78 63 141 149 141s149 -63 149 -141c0 -77 -63 -141 -149 -141z
M859 1255c-86 0 -149 64 -149 141c0 78 63 141 149 141s149 -63 149 -141c0 -77 -63 -141 -149 -141zM1002 1840v-180h-704v180h704z" />
    <glyph glyph-name="udieresiscaron" unicode="&#x1da;" horiz-adv-x="1299" 
d="M1219 1124v-1124h-400v220h-8c-45 -152 -151 -242 -319 -242c-241 0 -417 158 -417 425v721h410v-629c0 -121 65 -186 165 -186c96 0 159 74 159 186v629h410zM441 1255c-86 0 -149 64 -149 141c0 78 63 141 149 141s149 -63 149 -141c0 -77 -63 -141 -149 -141z
M859 1255c-86 0 -149 64 -149 141c0 78 63 141 149 141s149 -63 149 -141c0 -77 -63 -141 -149 -141zM807 1614h-314l-255 336h284l124 -180h8l124 180h284z" />
    <glyph glyph-name="udieresisbelow" unicode="&#x1e73;" horiz-adv-x="1299" 
d="M1219 1124v-1124h-400v220h-8c-45 -152 -151 -242 -319 -242c-241 0 -417 158 -417 425v721h410v-629c0 -121 65 -186 165 -186c96 0 159 74 159 186v629h410zM428 -476c-92 0 -158 68 -158 150c0 83 66 150 158 150s158 -67 158 -150c0 -82 -66 -150 -158 -150z
M872 -476c-92 0 -158 68 -158 150c0 83 66 150 158 150s158 -67 158 -150c0 -82 -66 -150 -158 -150z" />
    <glyph glyph-name="utildebelow" unicode="&#x1e75;" horiz-adv-x="1299" 
d="M1219 1124v-1124h-400v220h-8c-45 -152 -151 -242 -319 -242c-241 0 -417 158 -417 425v721h410v-629c0 -121 65 -186 165 -186c96 0 159 74 159 186v629h410zM803 -456c-146 0 -199 119 -268 119c-46 0 -66 -48 -69 -101h-201c0 187 117 293 251 293
c146 0 199 -119 268 -119c46 0 66 44 69 106h201c0 -187 -117 -298 -251 -298z" />
    <glyph glyph-name="uhookabove" unicode="&#x1ee7;" horiz-adv-x="1299" 
d="M1219 1124v-1124h-400v220h-8c-45 -152 -151 -242 -319 -242c-241 0 -417 158 -417 425v721h410v-629c0 -121 65 -186 165 -186c96 0 159 74 159 186v629h410zM462 1538v164c37 16 115 30 165 30c169 0 277 -93 277 -238c0 -104 -78 -201 -216 -268l-108 125
c73 38 99 70 99 122c0 50 -45 83 -115 83c-36 0 -74 -7 -102 -18z" />
    <glyph glyph-name="ubreve" unicode="&#x16d;" horiz-adv-x="1299" 
d="M1219 1124v-1124h-400v220h-8c-45 -152 -151 -242 -319 -242c-241 0 -417 158 -417 425v721h410v-629c0 -121 65 -186 165 -186c96 0 159 74 159 186v629h410zM255 1590h236c4 -86 59 -148 159 -148s155 62 159 148h236c-6 -180 -143 -334 -395 -334s-389 154 -395 334z
" />
    <glyph glyph-name="uinvertedbreve" unicode="&#x217;" horiz-adv-x="1299" 
d="M1219 1124v-1124h-400v220h-8c-45 -152 -151 -242 -319 -242c-241 0 -417 158 -417 425v721h410v-629c0 -121 65 -186 165 -186c96 0 159 74 159 186v629h410zM255 1256c6 180 143 334 395 334s389 -154 395 -334h-236c-4 86 -59 148 -159 148s-155 -62 -159 -148h-236z
" />
    <glyph glyph-name="utildeacute" unicode="&#x1e79;" horiz-adv-x="1299" 
d="M1219 1124v-1124h-400v220h-8c-45 -152 -151 -242 -319 -242c-241 0 -417 158 -417 425v721h410v-629c0 -121 65 -186 165 -186c96 0 159 74 159 186v629h410zM508 1651l202 281h322l-238 -281h-286zM803 1258c-146 0 -199 119 -268 119c-46 0 -66 -48 -69 -101h-201
c0 187 117 293 251 293c146 0 199 -119 268 -119c46 0 66 44 69 106h201c0 -187 -117 -298 -251 -298z" />
    <glyph glyph-name="udotbelow" unicode="&#x1ee5;" horiz-adv-x="1299" 
d="M1219 1124v-1124h-400v220h-8c-45 -152 -151 -242 -319 -242c-241 0 -417 158 -417 425v721h410v-629c0 -121 65 -186 165 -186c96 0 159 74 159 186v629h410zM650 -524c-100 0 -177 80 -177 177s77 176 177 176s177 -79 177 -176s-77 -177 -177 -177z" />
    <glyph glyph-name="utilde" unicode="&#x169;" horiz-adv-x="1299" 
d="M1219 1124v-1124h-400v220h-8c-45 -152 -151 -242 -319 -242c-241 0 -417 158 -417 425v721h410v-629c0 -121 65 -186 165 -186c96 0 159 74 159 186v629h410zM803 1258c-146 0 -199 119 -268 119c-46 0 -66 -48 -69 -101h-201c0 187 117 293 251 293
c146 0 199 -119 268 -119c46 0 66 44 69 106h201c0 -187 -117 -298 -251 -298z" />
    <glyph glyph-name="umacron" unicode="&#x16b;" horiz-adv-x="1299" 
d="M1219 1124v-1124h-400v220h-8c-45 -152 -151 -242 -319 -242c-241 0 -417 158 -417 425v721h410v-629c0 -121 65 -186 165 -186c96 0 159 74 159 186v629h410zM1002 1456v-180h-704v180h704z" />
    <glyph glyph-name="umacrondieresis" unicode="&#x1e7b;" horiz-adv-x="1299" 
d="M1219 1124v-1124h-400v220h-8c-45 -152 -151 -242 -319 -242c-241 0 -417 158 -417 425v721h410v-629c0 -121 65 -186 165 -186c96 0 159 74 159 186v629h410zM441 1585c-86 0 -149 64 -149 141c0 78 63 141 149 141s149 -63 149 -141c0 -77 -63 -141 -149 -141z
M859 1585c-86 0 -149 64 -149 141c0 78 63 141 149 141s149 -63 149 -141c0 -77 -63 -141 -149 -141zM1002 1456v-180h-704v180h704z" />
    <glyph glyph-name="uring" unicode="&#x16f;" horiz-adv-x="1299" 
d="M1219 1124v-1124h-400v220h-8c-45 -152 -151 -242 -319 -242c-241 0 -417 158 -417 425v721h410v-629c0 -121 65 -186 165 -186c96 0 159 74 159 186v629h410zM650 1235c-132 0 -244 106 -244 235c0 130 112 236 244 236s243 -106 243 -236c0 -129 -111 -235 -243 -235z
M650 1386c47 0 88 38 88 84c0 47 -41 86 -88 86s-88 -39 -88 -86c0 -46 41 -84 88 -84z" />
    <glyph glyph-name="uogonek" unicode="&#x173;" horiz-adv-x="1299" 
d="M1155 -468c-23 -10 -68 -26 -172 -26c-183 0 -306 99 -306 240c0 90 58 185 142 234v240h-8c-45 -152 -151 -242 -319 -242c-241 0 -417 158 -417 425v721h410v-629c0 -121 65 -186 165 -186c96 0 159 74 159 186v629h410v-1124l-60 -8c-105 -14 -200 -91 -200 -182
c0 -56 38 -94 124 -94c32 0 63 4 72 9v-193z" />
    <glyph glyph-name="uhorn" unicode="&#x1b0;" horiz-adv-x="1617" 
d="M811 220c-45 -152 -151 -242 -319 -242c-241 0 -417 158 -417 425v721h410v-629c0 -121 65 -186 165 -186c96 0 159 74 159 186v629h437c43 0 68 25 68 66v165h303v-250c0 -151 -93 -240 -252 -240h-146v-865h-400v220h-8z" />
    <glyph glyph-name="uhorngrave" unicode="&#x1eeb;" horiz-adv-x="1617" 
d="M811 220c-45 -152 -151 -242 -319 -242c-241 0 -417 158 -417 425v721h410v-629c0 -121 65 -186 165 -186c96 0 159 74 159 186v629h437c43 0 68 25 68 66v165h303v-250c0 -151 -93 -240 -252 -240h-146v-865h-400v220h-8zM824 1275h-314l-265 321h347z" />
    <glyph glyph-name="uhornacute" unicode="&#x1ee9;" horiz-adv-x="1617" 
d="M811 220c-45 -152 -151 -242 -319 -242c-241 0 -417 158 -417 425v721h410v-629c0 -121 65 -186 165 -186c96 0 159 74 159 186v629h437c43 0 68 25 68 66v165h303v-250c0 -151 -93 -240 -252 -240h-146v-865h-400v220h-8zM799 1275h-314l232 321h347z" />
    <glyph glyph-name="uhorndotbelow" unicode="&#x1ef1;" horiz-adv-x="1617" 
d="M811 220c-45 -152 -151 -242 -319 -242c-241 0 -417 158 -417 425v721h410v-629c0 -121 65 -186 165 -186c96 0 159 74 159 186v629h437c43 0 68 25 68 66v165h303v-250c0 -151 -93 -240 -252 -240h-146v-865h-400v220h-8zM650 -524c-100 0 -177 80 -177 177
s77 176 177 176s177 -79 177 -176s-77 -177 -177 -177z" />
    <glyph glyph-name="uhornhookabove" unicode="&#x1eed;" horiz-adv-x="1617" 
d="M811 220c-45 -152 -151 -242 -319 -242c-241 0 -417 158 -417 425v721h410v-629c0 -121 65 -186 165 -186c96 0 159 74 159 186v629h437c43 0 68 25 68 66v165h303v-250c0 -151 -93 -240 -252 -240h-146v-865h-400v220h-8zM462 1538v164c37 16 115 30 165 30
c169 0 277 -93 277 -238c0 -104 -78 -201 -216 -268l-108 125c73 38 99 70 99 122c0 50 -45 83 -115 83c-36 0 -74 -7 -102 -18z" />
    <glyph glyph-name="uhorntilde" unicode="&#x1eef;" horiz-adv-x="1617" 
d="M811 220c-45 -152 -151 -242 -319 -242c-241 0 -417 158 -417 425v721h410v-629c0 -121 65 -186 165 -186c96 0 159 74 159 186v629h437c43 0 68 25 68 66v165h303v-250c0 -151 -93 -240 -252 -240h-146v-865h-400v220h-8zM803 1258c-146 0 -199 119 -268 119
c-46 0 -66 -48 -69 -101h-201c0 187 117 293 251 293c146 0 199 -119 268 -119c46 0 66 44 69 106h201c0 -187 -117 -298 -251 -298z" />
    <glyph glyph-name="v" unicode="v" horiz-adv-x="1189" 
d="M1199 1124l-362 -1124h-480l-367 1124h442l167 -791h8l163 791h429z" />
    <glyph glyph-name="vtilde" unicode="&#x1e7d;" horiz-adv-x="1189" 
d="M1199 1124l-362 -1124h-480l-367 1124h442l167 -791h8l163 791h429zM748 1258c-146 0 -199 119 -268 119c-46 0 -66 -48 -69 -101h-201c0 187 117 293 251 293c146 0 199 -119 268 -119c46 0 66 44 69 106h201c0 -187 -117 -298 -251 -298z" />
    <glyph glyph-name="vdotbelow" unicode="&#x1e7f;" horiz-adv-x="1189" 
d="M1199 1124l-362 -1124h-480l-367 1124h442l167 -791h8l163 791h429zM595 -524c-100 0 -177 80 -177 177s77 176 177 176s177 -79 177 -176s-77 -177 -177 -177z" />
    <glyph glyph-name="w" unicode="w" horiz-adv-x="1796" 
d="M1786 1124l-284 -1124h-445l-159 729h-8l-157 -729h-437l-286 1124h415l122 -764h8l151 764h391l154 -764h8l122 764h405z" />
    <glyph glyph-name="wgrave" unicode="&#x1e81;" horiz-adv-x="1796" 
d="M1786 1124l-284 -1124h-445l-159 729h-8l-157 -729h-437l-286 1124h415l122 -764h8l151 764h391l154 -764h8l122 764h405zM1072 1275h-314l-265 321h347z" />
    <glyph glyph-name="wacute" unicode="&#x1e83;" horiz-adv-x="1796" 
d="M1786 1124l-284 -1124h-445l-159 729h-8l-157 -729h-437l-286 1124h415l122 -764h8l151 764h391l154 -764h8l122 764h405zM1047 1275h-314l232 321h347z" />
    <glyph glyph-name="wdotaccent" unicode="&#x1e87;" horiz-adv-x="1796" 
d="M1786 1124l-284 -1124h-445l-159 729h-8l-157 -729h-437l-286 1124h415l122 -764h8l151 764h391l154 -764h8l122 764h405zM896 1264c-100 0 -177 78 -177 173s77 173 177 173s177 -78 177 -173s-77 -173 -177 -173z" />
    <glyph glyph-name="wdotbelow" unicode="&#x1e89;" horiz-adv-x="1796" 
d="M1786 1124l-284 -1124h-445l-159 729h-8l-157 -729h-437l-286 1124h415l122 -764h8l151 764h391l154 -764h8l122 764h405zM898 -524c-100 0 -177 80 -177 177s77 176 177 176s177 -79 177 -176s-77 -177 -177 -177z" />
    <glyph glyph-name="wdieresis" unicode="&#x1e85;" horiz-adv-x="1796" 
d="M1786 1124l-284 -1124h-445l-159 729h-8l-157 -729h-437l-286 1124h415l122 -764h8l151 764h391l154 -764h8l122 764h405zM676 1256c-92 0 -158 68 -158 150c0 83 66 150 158 150s158 -67 158 -150c0 -82 -66 -150 -158 -150zM1120 1256c-92 0 -158 68 -158 150
c0 83 66 150 158 150s158 -67 158 -150c0 -82 -66 -150 -158 -150z" />
    <glyph glyph-name="wcircumflex" unicode="&#x175;" horiz-adv-x="1796" 
d="M1786 1124l-284 -1124h-445l-159 729h-8l-157 -729h-437l-286 1124h415l122 -764h8l151 764h391l154 -764h8l122 764h405zM1055 1592l255 -336h-284l-124 180h-8l-124 -180h-284l255 336h314z" />
    <glyph glyph-name="wring" unicode="&#x1e98;" horiz-adv-x="1796" 
d="M1786 1124l-284 -1124h-445l-159 729h-8l-157 -729h-437l-286 1124h415l122 -764h8l151 764h391l154 -764h8l122 764h405zM898 1235c-132 0 -244 106 -244 235c0 130 112 236 244 236s243 -106 243 -236c0 -129 -111 -235 -243 -235zM898 1386c47 0 88 38 88 84
c0 47 -41 86 -88 86s-88 -39 -88 -86c0 -46 41 -84 88 -84z" />
    <glyph glyph-name="x" unicode="x" horiz-adv-x="1216" 
d="M599 356h-8l-158 -356h-422l326 558l-327 566h464l142 -344h8l141 344h441l-327 -558l327 -566h-443z" />
    <glyph glyph-name="xdotaccent" unicode="&#x1e8b;" horiz-adv-x="1216" 
d="M599 356h-8l-158 -356h-422l326 558l-327 566h464l142 -344h8l141 344h441l-327 -558l327 -566h-443zM606 1264c-100 0 -177 78 -177 173s77 173 177 173s177 -78 177 -173s-77 -173 -177 -173z" />
    <glyph glyph-name="xdieresis" unicode="&#x1e8d;" horiz-adv-x="1216" 
d="M599 356h-8l-158 -356h-422l326 558l-327 566h464l142 -344h8l141 344h441l-327 -558l327 -566h-443zM386 1256c-92 0 -158 68 -158 150c0 83 66 150 158 150s158 -67 158 -150c0 -82 -66 -150 -158 -150zM830 1256c-92 0 -158 68 -158 150c0 83 66 150 158 150
s158 -67 158 -150c0 -82 -66 -150 -158 -150z" />
    <glyph glyph-name="y" unicode="y" horiz-adv-x="1246" 
d="M268 -412h-146v306h60c119 0 190 27 192 74v20l-374 1136h455l175 -828h8l175 828h433l-339 -1101c-96 -312 -281 -435 -639 -435z" />
    <glyph glyph-name="ygrave" unicode="&#x1ef3;" horiz-adv-x="1246" 
d="M268 -412h-146v306h60c119 0 190 27 192 74v20l-374 1136h455l175 -828h8l175 828h433l-339 -1101c-96 -312 -281 -435 -639 -435zM797 1275h-314l-265 321h347z" />
    <glyph glyph-name="yacute" unicode="&#xfd;" horiz-adv-x="1246" 
d="M268 -412h-146v306h60c119 0 190 27 192 74v20l-374 1136h455l175 -828h8l175 828h433l-339 -1101c-96 -312 -281 -435 -639 -435zM772 1275h-314l232 321h347z" />
    <glyph glyph-name="ydotaccent" unicode="&#x1e8f;" horiz-adv-x="1246" 
d="M268 -412h-146v306h60c119 0 190 27 192 74v20l-374 1136h455l175 -828h8l175 828h433l-339 -1101c-96 -312 -281 -435 -639 -435zM621 1264c-100 0 -177 78 -177 173s77 173 177 173s177 -78 177 -173s-77 -173 -177 -173z" />
    <glyph glyph-name="ydotbelow" unicode="&#x1ef5;" horiz-adv-x="1246" 
d="M268 -412h-146v306h60c119 0 190 27 192 74v20l-374 1136h455l175 -828h8l175 828h433l-339 -1101c-96 -312 -281 -435 -639 -435zM1036 -524c-100 0 -177 80 -177 177s77 176 177 176s177 -79 177 -176s-77 -177 -177 -177z" />
    <glyph glyph-name="ydieresis" unicode="&#xff;" horiz-adv-x="1246" 
d="M268 -412h-146v306h60c119 0 190 27 192 74v20l-374 1136h455l175 -828h8l175 828h433l-339 -1101c-96 -312 -281 -435 -639 -435zM401 1256c-92 0 -158 68 -158 150c0 83 66 150 158 150s158 -67 158 -150c0 -82 -66 -150 -158 -150zM845 1256c-92 0 -158 68 -158 150
c0 83 66 150 158 150s158 -67 158 -150c0 -82 -66 -150 -158 -150z" />
    <glyph glyph-name="ytilde" unicode="&#x1ef9;" horiz-adv-x="1246" 
d="M268 -412h-146v306h60c119 0 190 27 192 74v20l-374 1136h455l175 -828h8l175 828h433l-339 -1101c-96 -312 -281 -435 -639 -435zM776 1258c-146 0 -199 119 -268 119c-46 0 -66 -48 -69 -101h-201c0 187 117 293 251 293c146 0 199 -119 268 -119c46 0 66 44 69 106
h201c0 -187 -117 -298 -251 -298z" />
    <glyph glyph-name="ycircumflex" unicode="&#x177;" horiz-adv-x="1246" 
d="M268 -412h-146v306h60c119 0 190 27 192 74v20l-374 1136h455l175 -828h8l175 828h433l-339 -1101c-96 -312 -281 -435 -639 -435zM780 1592l255 -336h-284l-124 180h-8l-124 -180h-284l255 336h314z" />
    <glyph glyph-name="ymacron" unicode="&#x233;" horiz-adv-x="1246" 
d="M268 -412h-146v306h60c119 0 190 27 192 74v20l-374 1136h455l175 -828h8l175 828h433l-339 -1101c-96 -312 -281 -435 -639 -435zM975 1456v-180h-704v180h704z" />
    <glyph glyph-name="yhookabove" unicode="&#x1ef7;" horiz-adv-x="1246" 
d="M268 -412h-146v306h60c119 0 190 27 192 74v20l-374 1136h455l175 -828h8l175 828h433l-339 -1101c-96 -312 -281 -435 -639 -435zM435 1538v164c37 16 115 30 165 30c169 0 277 -93 277 -238c0 -104 -78 -201 -216 -268l-108 125c73 38 99 70 99 122
c0 50 -45 83 -115 83c-36 0 -74 -7 -102 -18z" />
    <glyph glyph-name="yring" unicode="&#x1e99;" horiz-adv-x="1246" 
d="M268 -412h-146v306h60c119 0 190 27 192 74v20l-374 1136h455l175 -828h8l175 828h433l-339 -1101c-96 -312 -281 -435 -639 -435zM623 1235c-132 0 -244 106 -244 235c0 130 112 236 244 236s243 -106 243 -236c0 -129 -111 -235 -243 -235zM623 1386c47 0 88 38 88 84
c0 47 -41 86 -88 86s-88 -39 -88 -86c0 -46 41 -84 88 -84z" />
    <glyph glyph-name="z" unicode="z" horiz-adv-x="1128" 
d="M60 0v209l506 603v8h-490v304h970v-244l-446 -568v-8h468v-304h-1008z" />
    <glyph glyph-name="zacute" unicode="&#x17a;" horiz-adv-x="1128" 
d="M60 0v209l506 603v8h-490v304h970v-244l-446 -568v-8h468v-304h-1008zM713 1275h-314l232 321h347z" />
    <glyph glyph-name="zcaron" unicode="&#x17e;" horiz-adv-x="1128" 
d="M60 0v209l506 603v8h-490v304h970v-244l-446 -568v-8h468v-304h-1008zM721 1256h-314l-255 336h284l124 -180h8l124 180h284z" />
    <glyph glyph-name="zcircumflex" unicode="&#x1e91;" horiz-adv-x="1128" 
d="M60 0v209l506 603v8h-490v304h970v-244l-446 -568v-8h468v-304h-1008zM721 1592l255 -336h-284l-124 180h-8l-124 -180h-284l255 336h314z" />
    <glyph glyph-name="zlinebelow" unicode="&#x1e95;" horiz-adv-x="1128" 
d="M60 0v209l506 603v8h-490v304h970v-244l-446 -568v-8h468v-304h-1008zM938 -240v-180h-748v180h748z" />
    </font>
</defs>
</svg>
